/* XPM */
static char *result[] = {
/* columns rows colors chars-per-pixel */
"50 50 227 2 ",
"   c #0F1515",
".  c #36011F",
"X  c #15261C",
"o  c #111726",
"O  c #191D3C",
"+  c #340125",
"@  c #3A0127",
"#  c #36022C",
"$  c #39002B",
"%  c #2E0A37",
"&  c #310D3B",
"*  c #360232",
"=  c #2F113E",
"-  c #36183B",
";  c #19252D",
":  c #172B29",
">  c #18392C",
",  c #1B2A34",
"<  c #183832",
"1  c #223739",
"2  c #262C34",
"3  c #47041D",
"4  c #4A031C",
"5  c #7B191E",
"6  c #630D1E",
"7  c #4E261B",
"8  c #692A1A",
"9  c #450727",
"0  c #550A25",
"q  c #5B152B",
"w  c #581628",
"e  c #541E34",
"r  c #681624",
"t  c #751424",
"y  c #791627",
"u  c #610E2A",
"i  c #593429",
"p  c #542238",
"a  c #6D2528",
"s  c #78272D",
"d  c #692935",
"f  c #6B2937",
"g  c #7E3A34",
"h  c #783435",
"j  c #71372B",
"k  c #194836",
"l  c #1B513D",
"z  c #224439",
"x  c #31463B",
"c  c #7C4834",
"v  c #330E45",
"b  c #2D1343",
"n  c #2C1449",
"m  c #2B1A4A",
"M  c #281A47",
"N  c #361A46",
"B  c #291F52",
"V  c #1E3244",
"C  c #1E2A5C",
"Z  c #1C2C55",
"A  c #26274A",
"S  c #253948",
"D  c #252554",
"F  c #2B2354",
"G  c #252955",
"H  c #25265C",
"J  c #23295C",
"K  c #2B2956",
"L  c #332D55",
"P  c #372B56",
"I  c #2A3C53",
"U  c #3B2B51",
"Y  c #1D2A61",
"T  c #222861",
"R  c #222761",
"E  c #56294A",
"W  c #57374B",
"Q  c #493552",
"!  c #583C57",
"~  c #482E4B",
"^  c #6D3448",
"/  c #1E5641",
"(  c #1D5A47",
")  c #1E5359",
"_  c #23434A",
"`  c #245949",
"'  c #2D4B5C",
"]  c #294653",
"[  c #334958",
"{  c #285753",
"}  c #34525B",
"|  c #374E49",
" . c #1F624C",
".. c #1A745A",
"X. c #25624E",
"o. c #286857",
"O. c #2B725C",
"+. c #27775D",
"@. c #34705C",
"#. c #294C63",
"$. c #2C5867",
"%. c #345966",
"&. c #255D71",
"*. c #1C7F64",
"=. c #1A6960",
"-. c #276968",
";. c #247769",
":. c #386E65",
">. c #5B494B",
",. c #484B54",
"<. c #6D4749",
"1. c #784349",
"2. c #6B4355",
"3. c #794B56",
"4. c #6B594F",
"5. c #911D1C",
"6. c #91201F",
"7. c #831825",
"8. c #9A1830",
"9. c #AB1A36",
"0. c #83282B",
"q. c #992629",
"w. c #84352A",
"e. c #9E2A32",
"r. c #863A35",
"t. c #973E35",
"y. c #952E33",
"u. c #A4292F",
"i. c #B72D2D",
"p. c #BA3A25",
"a. c #A93C3A",
"s. c #BC3333",
"d. c #AD2731",
"f. c #D52D1D",
"g. c #D52E16",
"h. c #CB341C",
"j. c #D2321D",
"k. c #D73619",
"l. c #CB2C25",
"z. c #C72C2C",
"x. c #CC2D2B",
"c. c #D32D23",
"v. c #D52C29",
"b. c #CE3223",
"n. c #C83128",
"m. c #D23122",
"M. c #DA3E23",
"N. c #C53533",
"B. c #864535",
"V. c #97463A",
"C. c #9A543B",
"Z. c #A54A35",
"A. c #B64737",
"S. c #A85637",
"D. c #B75639",
"F. c #D9481F",
"G. c #DA4529",
"H. c #C74B35",
"J. c #CD5333",
"K. c #CC5E3E",
"L. c #C55B3D",
"P. c #D85938",
"I. c #D04231",
"U. c #E25936",
"Y. c #E45025",
"T. c #CB653E",
"R. c #DB653C",
"E. c #EC6737",
"W. c #FE7D3D",
"Q. c #F6723B",
"!. c #E5612F",
"~. c #9D0F40",
"^. c #9A3A45",
"/. c #823852",
"(. c #864549",
"). c #994444",
"_. c #8A5849",
"`. c #924951",
"'. c #975B57",
"]. c #93524F",
"[. c #AA4F48",
"{. c #B54A40",
"}. c #A4504E",
"|. c #A85947",
" X c #B75843",
".X c #AF5B52",
"XX c #9C6741",
"oX c #B9624D",
"OX c #BA6657",
"+X c #AD6D62",
"@X c #CD5E43",
"#X c #C86647",
"$X c #D86844",
"%X c #CC6C54",
"&X c #D77A58",
"*X c #DF7249",
"=X c #E76A45",
"-X c #E47B4D",
";X c #EC7B4C",
":X c #E97249",
">X c #F57542",
",X c #FE7D43",
"<X c #F47D4C",
"1X c #FE7E4A",
"2X c #F57A45",
"3X c #E87955",
"4X c #F16142",
"5X c #C97062",
"6X c #0E8A6C",
"7X c #148867",
"8X c #158A6C",
"9X c #19896B",
"0X c #1A8568",
"qX c #238266",
"wX c #22836A",
"eX c #2B856C",
"rX c #268669",
"tX c #37836A",
"yX c #46816D",
"uX c #FD833E",
"iX c #FD8243",
"pX c #FB8349",
"aX c #F78549",
"sX c #E88558",
"dX c #F48051",
"fX c #E68D62",
"gX c None",
/* pixels */
"gXgXgXgXgXgXgXgXgXgXgXgXgXgXgXgXgXgXgXgXgXgXgXgXgXgXgXgXgXgXgXgXgXgXgXgXgXgXgXgXgXgXgXgXgXgXgXgXgXgX",
"gXgXgXgXgXgXgXgXgXgXgXgXgXgXgXgXgXgXgXgXgXgXgXgXgXgXgXgXgXgXgXgXgXgXgXgXgXgXgXgXgXgXgXgXgXgXgXgXgXgX",
"gXgXgXgXgXgXgXgXgXgXgXgXgXgXgXgXgXgXgXgXgXgXgXgXgXgXgXgXgXgXgXgXgXgXgXgXgXgXgXgXgXgXgXgXgXgXgXgXgXgX",
"gXgXgXgXgXgXgXgXgXgXgXgXgXgXgXgXgXgXgXgXgXgXgXgXgXgXgXgXgXgXgXgXgXgXgXgXgXgXgXgXgXgXgXgXgXgXgXgXgXgX",
"gXgXgXgXgXgXgXgXgXgXgXgXgXgXgXgXgXgXgXgXgXgXgXgXgXgXgXgXgXgXgXgXgXgXgXgXgXgXgXgXgXgXgXgXgXgXgXgXgXgX",
"gXgXgXgXgXgXgXgXgXgXgXgXgXgXgXgXgXgXgXgXgXgXgXgXgXgXgXgXgXgXgXgXgXgXgXgXgXgXgXgXgXgXgXgXgXgXgXgXgXgX",
"gXgXgXgXgXgXgXgXgXgXgXgXgXgXgXgXgXgXgXgXgXgXgXgXk gXgXgXgXgXgXgXgXgXgXgXgXgXgXgXgXgXgXgXgXgXgXgXgXgX",
"gXgXgXgXgXgXgXgXgXgXgXgXgXgXgXgXgXgXgXgXgXgXgX> *.( gXgXgXgXgXgXgXgXgXgXgXgXgXgXgXgXgXgXgXgXgXgXgXgX",
"gXgXgXgXgXgXgXgXgXgXgXgXgXgXgXgXgXgXgXgXgXgXgX` eXqXk gXgX` O.+.o.gXgXgXgXgXgXgXgXgXgXgXgXgXgXgXgXgX",
"gXgXgXgXgXgXgXgXgXgXgXgXgXgXgXgXgXgXgXgXgXgXgX/ qX6X..> ;.8X8X6XqXz gXgXgXgXgXgXgXgXgXgXgXgXgXgXgXgX",
"gXgXgXgXgXgXgXgXgXgXgXgXgXgXgXgXgXgXgXgXgXgXgXl O.;.X.o.eX9XwX;.{ < gXgXgXgXgXgXgXgXgXgXgXgXgXgXgXgX",
"gXgXgXgXgXgXgXgXgXgXgXgXgXgXgXgXgXgXgXgXgXgXgXi 4.).C.XX_.| S 2 ; gXgXgXgXgXgXgXgXgXgXgXgXgXgXgXgXgX",
"gXgXgXgXgXgXgXgXgXgXgXgXgXgXgXgXgXgXgXgXw.S.T.E.R.2X1XW.E.p.D.D.(.>.U S , gXgXgXgXgXgXgXgXgXgXgXgXgX",
"gXgXgXgXgXgXgXgXgXgXgXgXgXgXgXgXgXgXw  X2X2X!.Q.uXiXiXuXQ.P.pXiXJ.I.XX4.{ X.gXgXgXgXgXgXgXgXgXgXgXgX",
"gXgXgXgXgXgXgXgXgXgXgXgXgXgXgXgXgXj p ).E.!.>X;X,XuXW.uXE.Y.,XiX$Xq.z.J.B.x z gXgXgXgXgXgXgXgXgXgXgX",
"gXgXgXgXgXgXgXgXgXgXgXgXgXgXgXgXB.f N V.E.2X.Xc dX,XW.dXJ.U.uX<Xw.9 7.z.G.S.gXgXgXgXgXgXgXgXgXgXgXgX",
"gXgXgXgXgXgXgXgXgXgXgXgXgXgXgXj `.~ E L.aX-XQ E -XuX-X(.p #XpX<X0.# 9 q.h.F. XgXgXgXgXgXgXgXgXgXgXgX",
"gXgXgXgXgXgXgXgXgXgXgXgXgXgXgXD.g ^ ).2XpX'.F - #X;X2.K b V.pXiX X@ # 0 d.m.P.B.gXgXgXgXgXgXgXgXgXgX",
"gXgXgXgXgXgXgXgXgXgXgXgXgXgXS.:X:X'.^ -X-XQ B b 3.2.G J % t.uXuX<Xt.9 @ 0 i.G.T.gXgXgXgXgXgXgXgXgXgX",
"gXgXgXgXgXgXgXgXgXgXgXgXgXa :XiX3XW P +X'.F m b K D C D % t.iXuXuX,XT.y t 5.h.P.C.gXgXgXgXgXgXgXgXgX",
"gXgXgXgXgXgXgXgXgXgXgXgXgXt.W.iXoXF J Q P D M M J C Y F * q ;XuXiXiX>Xm.b.l.l.G.#XgXgXgXgXgXgXgXgXgX",
"gXgXgXgXgXgXgXgXgXgXgXgXgXS.uXiX`.J C H H C n B J T J F * w 3X:X0.T.,XM.h.c.c.f.P.c gXgXgXgXgXgXgXgX",
"gXgXgXgXgXgXgXgXgXgXgXgXgXK.*X3X! G J J H J n F G J J m * 9 ).d + D.1XI.f.g.f.f.P.B.gXgXgXgXgXgXgXgX",
"gXgXgXgXgXgXgXgXgXgXgXgX8 Z.h 5XU Z T J J D v D Z J Y m # $ @ # * D. X5.c.c.c.f.G.|.gXgXgXgXgXgXgXgX",
"gXgXgXgXgXgXgXgXgXgXgXgXr.r.N ! H C J H J D v D J T C m @ @ $ # 9  Xh t v.c.b.c.G.D.gXgXgXgXgXgXgXgX",
"gXgXgXgXgXgXgXgXgXgXgXgXr.d m J J J J R J F b J J J J b # $ @ # q %Xu y j.c.b.c.G.D.gXgXgXgXgXgXgXgX",
"gXgXgXgXgXgXgXgXgXgXgXgXg d F T J J J H J A v J J J J & $ $ $ * w  X0 7.j.c.b.c.M.#XgXgXgXgXgXgXgXgX",
"gXgXk X.X.z gXgXgXgXgXgXg d F Y J J J H C M m J J J H & # # # # q }.3 e.m.f.g.f.j.T.gXgXgXgXgXgXgXgX",
"gXX X.rX8XwX@.gXgXgXgXgXg d B J J J J J J m m J J J J & $ $ # # q }.4 u.i.h.f.f.j.K.gXgXgXgXgXgXgXgX",
"gXgXgX( 0X*.;.o.gXgXgXgXg d B J G J J J J n m J J J J & @ # $ $ q }.4 u.5 q.m.c.g.T.gXgXgXgXgXgXgXgX",
"gXgXgX< *.*.=.:.gXgXgXgXg d F J T J H J J m m J J C D & $ # # @ q }.4 u.t y N.f.g.K.gXgXgXgXgXgXgXgX",
"gXgXgX< 0X9X-.| gXgXgXgXg f D J C H J J T M m J J J J & @ $ $ + q }.4 u.y r v.m.j.K.gXgXgX  gXgXgXgX",
"gXgXgXgX .O.) < gXgXgXgXg f M J J J J J J m m H T J H & $ $ $ $ q }.4 u.y 0 l.c.j.@XgXgX2 1 gXgXgXgX",
"gXgXgXgXX ` ;.;.+.X.< gXg d M J J J H J J m m H H J J & $ $ * $ q }.4 u.y 0 z.c.k.#XgXgX' ' gXgXgXgX",
"gXgXgXgX+.7X8XrX8X8XO.: h s b J H J J J J m m H J J T v $ * * @ q }.4 e.u.6 l.h.M.#XgXS #.' , gXgXgX",
"gXgXgXO.7X6XqXO.-.;.-.' 1.V.n J H T J J J m n H J J J N * $ $ @ q .X3 7.x.6.l.m.G.D.gX] #.' gXgXgXgX",
"gXgXl 9X9X+.k gXgX_ $.$.W ).& J H T J H C m = G J C T n # # $ $ w %Xq t f.c.c.g.U.S.gXS S o gXgXgXgX",
"gXgXX.rX0Xl gXgXgXgXI $.L `.e A F G Y J C H b J J Y J N # # $ * @ A.y t c.j.m.b.P.<.] ' #.S gXgXgXgX",
"gXgXX.8X0Xk gXgXgXgXgXI G 3.V.^ /.F C Z J H n J J Z J F * # # # + y.s.8.x.c.j.v.$X! $.&.&.$.: gXgXgX",
"gXgX/ 7X7XO.gXgXgXgXgXo O - [.:XH.E P ! G F v F T T T T % # 9 ).s 5 N.9.z.v.g.Y.|.A V _ $.$., gXgXgX",
"gXk o./ eX8Xo.< gXgX| z gXgX7 T.4X^ ^ &X2.H - <.L R K P p 9 9 $X:Xp.s.~.x.c.j.$Xi gXgXI %.] gXgXgXgX",
"gX> gXgX{ ;.-.} , gX> X.l X.( >..Xa.[.pXOXU (.sX3.D R P %X#X8 {.4Xm.9.9.c.j.J.C.gXgX, J G gXgXgXgXgX",
"gXgXgXgXV $.-.%., 1 @.qXrXeXwX$.Q ^ a.=X;X.X&XaX%X~ H E K.>X:X$XI.i.9.s.x.A.C.gXgXgXA J O gXgXgXgXgX",
"gXgXgXgXgX} %.} gXgXyXeXtXtX:.%.[ A p r.#X3XsXsX%X(.2.(.A.@X#XL.a.8.^.A.e.gXgXgXgXgXA G gXgXgXgXgXgX",
"gXgXgXgXgXgXgXgXgXgXgXgXgXgXgXgXgXgXgXgXgXgXgXgXgXgXgXgXgXgXgXgXgXgXgXgXgXgXgXgXgXgXgXgXgXgXgXgXgXgX",
"gXgXgXgXgXgXgXgXgXgXgXgXgXgXgXgXgXgXgXgXgXgXgXgXgXgXgXgXgXgXgXgXgXgXgXgXgXgXgXgXgXgXgXgXgXgXgXgXgXgX",
"gXgXgXgXgXgXgXgXgXgXgXgXgXgXgXgXgXgXgXgXgXgXgXgXgXgXgXgXgXgXgXgXgXgXgXgXgXgXgXgXgXgXgXgXgXgXgXgXgXgX",
"gXgXgXgXgXgXgXgXgXgXgXgXgXgXgXgXgXgXgXgXgXgXgXgXgXgXgXgXgXgXgXgXgXgXgXgXgXgXgXgXgXgXgXgXgXgXgXgXgXgX",
"gXgXgXgXgXgXgXgXgXgXgXgXgXgXgXgXgXgXgXgXgXgXgXgXgXgXgXgXgXgXgXgXgXgXgXgXgXgXgXgXgXgXgXgXgXgXgXgXgXgX",
"gXgXgXgXgXgXgXgXgXgXgXgXgXgXgXgXgXgXgXgXgXgXgXgXgXgXgXgXgXgXgXgXgXgXgXgXgXgXgXgXgXgXgXgXgXgXgXgXgXgX"
};
