/* XPM */
static char *result[] = {
/* columns rows colors chars-per-pixel */
"50 50 230 2 ",
"   c #121C1F",
".  c #19271E",
"X  c #181D37",
"o  c #170F2A",
"O  c #3D0125",
"+  c #35012B",
"@  c #39002B",
"#  c #350027",
"$  c #2F0B39",
"%  c #320331",
"&  c #310D3B",
"*  c #2B143F",
"=  c #370E31",
"-  c #192628",
";  c #1B382B",
":  c #1A2B35",
">  c #193536",
",  c #253B36",
"<  c #2D3030",
"1  c #41011F",
"2  c #540B1E",
"3  c #6A0D1C",
"4  c #622418",
"5  c #420222",
"6  c #480928",
"7  c #580B25",
"8  c #5B142A",
"9  c #591426",
"0  c #451938",
"q  c #691826",
"w  c #761524",
"e  c #7B1525",
"r  c #75162A",
"t  c #620E22",
"y  c #4A243B",
"u  c #5B303E",
"i  c #692A3A",
"p  c #6B2634",
"a  c #792C36",
"s  c #7E3A34",
"d  c #7C323A",
"f  c #753835",
"g  c #6F2F2F",
"h  c #1A4434",
"j  c #1B553F",
"k  c #15402F",
"l  c #214536",
"z  c #23423B",
"x  c #23533C",
"c  c #754B3B",
"v  c #604A3B",
"b  c #2C1344",
"n  c #2B1A4A",
"m  c #291947",
"M  c #311442",
"N  c #341946",
"B  c #2B1E52",
"V  c #340D43",
"C  c #1A3B43",
"Z  c #1F2A5D",
"A  c #1E2342",
"S  c #29214E",
"D  c #272649",
"F  c #3A2B4E",
"G  c #263B48",
"H  c #242656",
"J  c #292353",
"K  c #242855",
"L  c #25275B",
"P  c #23295C",
"I  c #2A2A59",
"U  c #332453",
"Y  c #3A2D55",
"T  c #283A55",
"R  c #3D3055",
"E  c #3A324E",
"W  c #1F2961",
"Q  c #222762",
"!  c #212961",
"~  c #452746",
"^  c #562542",
"/  c #4C3955",
"(  c #503454",
")  c #642C44",
"_  c #783740",
"`  c #603C4C",
"'  c #1A5642",
"]  c #1E5757",
"[  c #264A44",
"{  c #265746",
"}  c #234552",
"|  c #2B4655",
" . c #294B57",
".. c #275957",
"X. c #1E624E",
"o. c #1C705B",
"O. c #23654E",
"+. c #246652",
"@. c #246B55",
"#. c #2A6B59",
"$. c #2A6955",
"%. c #2B5C6A",
"&. c #2B5767",
"*. c #345867",
"=. c #2D4863",
"-. c #1A7F65",
";. c #266A66",
":. c #267C65",
">. c #2C786A",
",. c #247F71",
"<. c #3E756E",
"1. c #4D5A57",
"2. c #4E4953",
"3. c #724649",
"4. c #6A4255",
"5. c #784954",
"6. c #674C48",
"7. c #6C6950",
"8. c #774B64",
"9. c #80141E",
"0. c #861B25",
"q. c #9C1833",
"w. c #A41639",
"e. c #852A2B",
"r. c #982528",
"t. c #8B3E2B",
"y. c #832C35",
"u. c #9C2733",
"i. c #8D393C",
"p. c #853835",
"a. c #923C3C",
"s. c #953C36",
"d. c #963426",
"f. c #A4292E",
"g. c #A62927",
"h. c #BE292D",
"j. c #A62930",
"k. c #BB3A35",
"l. c #B02E2E",
"z. c #CC2D1C",
"x. c #D52E16",
"c. c #D32E1D",
"v. c #CF331C",
"b. c #D2321C",
"n. c #D63618",
"m. c #C42C2D",
"M. c #C92B2A",
"N. c #D32D22",
"B. c #D62A28",
"V. c #CD3223",
"C. c #C8362A",
"Z. c #D13223",
"A. c #D93826",
"S. c #C22B34",
"D. c #C63133",
"F. c #894635",
"G. c #944333",
"H. c #9B533C",
"J. c #A74B38",
"K. c #B3463A",
"L. c #A85639",
"P. c #B4523B",
"I. c #B95938",
"U. c #B3412D",
"Y. c #D6401D",
"T. c #DC4327",
"R. c #DB492A",
"E. c #D5452B",
"W. c #D7542B",
"Q. c #CC4C34",
"!. c #CE5D3B",
"~. c #C3563F",
"^. c #D45E3C",
"/. c #D95E37",
"(. c #E55629",
"). c #E25935",
"_. c #E24D36",
"`. c #CC643B",
"'. c #D5653C",
"]. c #E6622B",
"[. c #EA6436",
"{. c #F36E36",
"}. c #F8793C",
"|. c #F06D35",
" X c #873945",
".X c #9C2A42",
"XX c #994745",
"oX c #865656",
"OX c #90504E",
"+X c #A64C48",
"@X c #A85548",
"#X c #B65947",
"$X c #AC5B52",
"%X c #B96047",
"&X c #BD6957",
"*X c #C75C43",
"=X c #CB6849",
"-X c #D66645",
";X c #DE7247",
":X c #CA6954",
">X c #CC7354",
",X c #D47352",
"<X c #D87558",
"1X c #C6714F",
"2X c #E76D4B",
"3X c #ED7443",
"4X c #EB7B4B",
"5X c #FC7E44",
"6X c #F47B4A",
"7X c #F67846",
"8X c #E77255",
"9X c #F16C40",
"0X c #138266",
"qX c #1C8465",
"wX c #1A876A",
"eX c #1C886B",
"rX c #15876A",
"tX c #0D8C6A",
"yX c #248366",
"uX c #23846B",
"iX c #27856C",
"pX c #34856C",
"aX c #388672",
"sX c #FE813E",
"dX c #FD8244",
"fX c #F4814B",
"gX c #FD814B",
"hX c #E88359",
"jX c #F58658",
"kX c None",
/* pixels */
"kXkXkXkXkXkXkXkXkXkXkXkXkXkXkXkXkXkXkXkXkXkXkXkXkXkXkXkXkXkXkXkXkXkXkXkXkXkXkXkXkXkXkXkXkXkXkXkXkXkX",
"kXkXkXkXkXkXkXkXkXkXkXkXkXkXkXkXkXkXkXkXkXkXkXkXkXkXkXkXkXkXkXkXkXkXkXkXkXkXkXkXkXkXkXkXkXkXkXkXkXkX",
"kXkXkXkXkXkXkXkXkXkXkXkXkXkXkXkXkXkXkXkXkXkXkXkXkXkXkXkXkXkXkXkXkXkXkXkXkXkXkXkXkXkXkXkXkXkXkXkXkXkX",
"kXkXkXkXkXkXkXkXkXkXkXkXkXkXkXkXkXkXkXkXkXkXkXkXkXkXkXkXkXkXkXkXkXkXkXkXkXkXkXkXkXkXkXkXkXkXkXkXkXkX",
"kXkXkXkXkXkXkXkXkXkXkXkXkXkXkXkXkXkXkXkXkXkXkXkXkXkXkXkXkXkXkXkXkXkXkXkXkXkXkXkXkXkXkXkXkXkXkXkXkXkX",
"kXkXkXkXkXkXkXkXkXkXkXkXkXkXkXkXkXkXkXkXkXkXkXkX- kXkXkXkXkXkXkXkXkXkXkXkXkXkXkXkXkXkXkXkXkXkXkXkXkX",
"kXkXkXkXkXkXkXkXkXkXkXkXkXkXkXkXkXkXkXkXkXkXkXj $.kXkXkXkXkXkX; kXkXkXkXkXkXkXkXkXkXkXkXkXkXkXkXkXkX",
"kXkXkXkXkXkXkXkXkXkXkXkXkXkXkXkXkXkXkXkXkXkXkX@.uX@.kXkXkX' o.yX#.kXkXkXkXkXkXkXkXkXkXkXkXkXkXkXkXkX",
"kXkXkXkXkXkXkXkXkXkXkXkXkXkXkXkXkXkXkXkXkXkXkX#.rXeX+.; @.eXeXeXuXh kXkXkXkXkXkXkXkXkXkXkXkXkXkXkXkX",
"kXkXkXkXkXkXkXkXkXkXkXkXkXkXkXkXkXkXkXkXkXkXkXO.qXuX@.X.uXuX>.>.] : kXkXkXkXkXkXkXkXkXkXkXkXkXkXkXkX",
"kXkXkXkXkXkXkXkXkXkXkXkXkXkXkXkXkXkXkXkXkXkXkX< 1.6.c 7.7...C -   kXkXkXkXkXkXkXkXkXkXkXkXkXkXkXkXkX",
"kXkXkXkXkXkXkXkXkXkXkXkXkXkXkXkXkXkXkXkX4 G.J.!.`.{.sX}.=Xd.G.F.6.2.G > kXkXkXkXkXkXkXkXkXkXkXkXkXkX",
"kXkXkXkXkXkXkXkXkXkXkXkXkXkXkXkXkXkXkXJ.;X7X[.{.}.dXsXsX9X(.5X5XQ.P.oX1.| x kXkXkXkXkXkXkXkXkXkXkXkX",
"kXkXkXkXkXkXkXkXkXkXkXkXkXkXkXkXkXf f XX7X].{.gXsXdXsXdX[.(.sX5X).g.E.I.v [ l kXkXkXkXkXkXkXkXkXkXkX",
"kXkXkXkXkXkXkXkXkXkXkXkXkXkXkXkXa _ ~ f ].}.,X#XdX5XdXgXR.).dXfXJ.7 r.V.W.F.. kXkXkXkXkXkXkXkXkXkXkX",
"kXkXkXkXkXkXkXkXkXkXkXkXkXkXkXkXXX~ B +XdXfX5.u 4XdXfX$X) =XsX6Xq + 5 g.v.W.H.kXkXkXkXkXkXkXkXkXkXkX",
"kXkXkXkXkXkXkXkXkXkXkXkXkXkXkX+Xg ^ OX8XdX1XY N -XdXOXI M J.dXgXs.# # t h.n./.f kXkXkXkXkXkXkXkXkXkX",
"kXkXkXkXkXkXkXkXkXkXkXkXkXkXJ.;X#X#XXX6XfX5.S M &X&XF L & G.dXsX-X9 + O r C.(.#XkXkXkXkXkXkXkXkXkXkX",
"kXkXkXkXkXkXkXkXkXkXkXkXkXkX-XdX6X XF ,X>XY n M / R P H % i.dXsXdX-Xs.8 7 0.v.'.F.kXkXkXkXkXkXkXkXkX",
"kXkXkXkXkXkXkXkXkXkXkXkXkXt.7XdX>XF H oX5.K m m Z P P H + d dXdXgXgX9XC.h.h.z.T.%XkXkXkXkXkXkXkXkXkX",
"kXkXkXkXkXkXkXkXkXkXkXkXkXJ.dXdX$XZ Z I L L b J P P P K $ 9 4XdX'.3X5Xn.x.Z.N.n.'.kXkXkXkXkXkXkXkXkX",
"kXkXkXkXkXkXkXkXkXkXkXkXkX^.dXfX` Z Z ! Q P b B P P P n + 8 ,X#X2 I.dXR.c.N.N.v./.F.kXkXkXkXkXkXkXkX",
"kXkXkXkXkXkXkXkXkXkXkXkX4 #XP.,XR Q P P L H b B K P Z n = O r 6 5 =X-Xg.B.B.c.N._.L.kXkXkXkXkXkXkXkX",
"kXkXkXkXkXkXkXkXkXkXkXkXt.J.y 8.I Z P P P H V H Z P Z N + @ @ + 7 <Xa w b.c.b.N.T.P.kXkXkXkXkXkXkXkX",
"kXkXkXkXkXkXkXkXkXkXkXkXp.d m P P P P W P J b L P P L M @ @ @ + 9 *X6 e v.Z.c.N.T.I.kXkXkXkXkXkXkXkX",
"kXkXkXkXkXkXkXkXkXkXkXkXs i S P P P P P P B b K P P L & @ @ + + a #X@ e Z.N.c.B.n.=XkXkXkXkXkXkXkXkX",
"kXkXkX' x ; kXkXkXkXkXkXs i J P P ! P P P n n L P P P & + @ @ + i.J.1 u.Z.x.x.N.n.`.kXkXkXkXkXkXkXkX",
"kXkX@.uX>.:.@.kXkXkXkXkXs i S P P P P Z P n n L P P P & @ + # + s.a 1 f.D.Z.x.N.b.`.kXkXkXkXkXkXkXkX",
"kXkX; +.wX0X0X..kXkXkXkXs i S P P L P Q P n n P P P L & @ @ + + i.y.O f.0.r.V.B.b.^.kXkXkXkXkXkXkXkX",
"kXkXkXk rX-.o.;.kXkXkXkXs i S P Q P P P P n n P P P L & @ + + + i.y.5 f.e 0.M.c.b.`.kXkXkXkXkXkXkXkX",
"kXkXkXk rXuX;...kXkXkXkXs i B P P P L Q L n n P P P I & + @ + @  Xd O u.r q V.c.b.*XkXkXkXkXkXkXkXkX",
"kXkXkXkX#.>...> kXkXkXkXs i B L P P P P P n n P P P L & @ + @ + i.y.5 j.r 7 M.N.n.^.kXkXkX: kXkXkXkX",
"kXkXkXkX. j o.#.$.{ kXkXp.p b P L P L P P n n K ! ! L & + @ O + i.p.5 j.e 7 M.z.n.`.kXkX| } kXkXkXkX",
"kXkXkXkX$.yXeXwXrXuX#.kXs p b W P L P P P n n K P P P * + @ @ % p +X5 j.j.3 M.v.A.`.kXG &.=.kXkXkXkX",
"kXkXkX@.qXuXyXqX0XuX;. ._ a.M P W P P P P m m P P P P N + O @ + 8 #X5 0.V.g.z.v.T.I.kX .=. .kXkXkXkX",
"kXkXj eXeXyX{ h ;  .%.*.` XX* K W P P P P n b P L Q Q N $ @ @ + 8 :X8 r b.V.b.x._.#XkXG T , kXkXkXkX",
"kXkXO.tXwX' kXkXkXkX| %.E  X0 U I Q Q ! P B b H L P P n + @ @ @ 5 K.0.e c.c.Z.x.).c G } } G kXkXkXkX",
"kXkXO.rXqXh kXkXkXkX: | I OXi._  XY P L L J b L P Z P n = @ @ @ @ e.k.q.M.N.Z.b.-X2.%.%.%.&.: kXkXkX",
"kXkX' eXuXO.kXkXkXkXkXX A y #X2XQ.^ T 4.Y Z * L Q Z P J % + O @Xe.9.D.w.m.N.N.R.*XY }  .%.*.- kXkXkX",
"kX; $.O.uXrX+.kXkX- { , kXkXf 8X).y.4.8X3.Z 0 5.R Z P K i 6 6 =X3XD.m.w.D.N.x.).f o kXT *.| kXkXkXkX",
"kX, z kX..,.>...kXkXl { z x l 6.-Xk.#XgX:X~ f hXoXP ! R <XP.2 P.{.C.h.w.M.v.E.L.kXkX: P T kXkXkXkXkX",
"kXkXkXkXC %.&.%.> kX{ :.yXrX:.*./ y.k.2X6X1X<XdX>X~ L ) '.6X-X2XR.h.w.m.Z.C.s.kXkXkXD K A kXkXkXkXkX",
"kXkXkXkXG *.*...kXz aXpXaXaX<.*.=.F ^ a.=XhXjXjX>X5.`  Xk.'.3X!.k.q..XK.f.kXkXkXkXkXD K kXkXkXkXkXkX",
"kXkXkXkXkXkXkXkXkXkXkXkXkXkXkXkXkXkXkXkXkXkXkXkXkXkXkXkXkXkXkXkXkXkXkXkXkXkXkXkXkXkXkXkXkXkXkXkXkXkX",
"kXkXkXkXkXkXkXkXkXkXkXkXkXkXkXkXkXkXkXkXkXkXkXkXkXkXkXkXkXkXkXkXkXkXkXkXkXkXkXkXkXkXkXkXkXkXkXkXkXkX",
"kXkXkXkXkXkXkXkXkXkXkXkXkXkXkXkXkXkXkXkXkXkXkXkXkXkXkXkXkXkXkXkXkXkXkXkXkXkXkXkXkXkXkXkXkXkXkXkXkXkX",
"kXkXkXkXkXkXkXkXkXkXkXkXkXkXkXkXkXkXkXkXkXkXkXkXkXkXkXkXkXkXkXkXkXkXkXkXkXkXkXkXkXkXkXkXkXkXkXkXkXkX",
"kXkXkXkXkXkXkXkXkXkXkXkXkXkXkXkXkXkXkXkXkXkXkXkXkXkXkXkXkXkXkXkXkXkXkXkXkXkXkXkXkXkXkXkXkXkXkXkXkXkX",
"kXkXkXkXkXkXkXkXkXkXkXkXkXkXkXkXkXkXkXkXkXkXkXkXkXkXkXkXkXkXkXkXkXkXkXkXkXkXkXkXkXkXkXkXkXkXkXkXkXkX",
"kXkXkXkXkXkXkXkXkXkXkXkXkXkXkXkXkXkXkXkXkXkXkXkXkXkXkXkXkXkXkXkXkXkXkXkXkXkXkXkXkXkXkXkXkXkXkXkXkXkX"
};
