/* XPM */
static char *result[] = {
/* columns rows colors chars-per-pixel */
"50 50 237 2 ",
"   c #11152A",
".  c #191B37",
"X  c #3C0125",
"o  c #36012C",
"O  c #39012C",
"+  c #380628",
"@  c #340734",
"#  c #3C1239",
"$  c #1C282C",
"%  c #1D3A2D",
"&  c #1A362A",
"*  c #1B2C33",
"=  c #1D2B3B",
"-  c #1D3434",
";  c #1D3539",
":  c #0F3639",
">  c #263538",
",  c #47021C",
"<  c #5B1419",
"1  c #660E1C",
"2  c #47231B",
"3  c #69291D",
"4  c #4C0D2B",
"5  c #460523",
"6  c #5C0B24",
"7  c #520B23",
"8  c #5B1728",
"9  c #441537",
"0  c #5D1E35",
"q  c #48102D",
"w  c #681E2C",
"e  c #691E2A",
"r  c #7C1724",
"t  c #631C34",
"y  c #442A20",
"u  c #47263C",
"i  c #562A39",
"p  c #513030",
"a  c #762729",
"s  c #6C2737",
"d  c #7D2E33",
"f  c #762A31",
"g  c #74383A",
"h  c #6F2F2B",
"j  c #1C4333",
"k  c #1C4C39",
"l  c #1C4439",
"z  c #1D513F",
"x  c #234D3D",
"c  c #2A503D",
"v  c #52453F",
"b  c #784335",
"n  c #1D1F45",
"m  c #2B1543",
"M  c #2C1A46",
"N  c #2C1E4E",
"B  c #251846",
"V  c #311947",
"C  c #2D1E50",
"Z  c #2E0E42",
"A  c #1C2246",
"S  c #1C3442",
"D  c #1E2A5C",
"F  c #1D275B",
"G  c #1E3153",
"H  c #2B214E",
"J  c #2A2946",
"K  c #34284D",
"L  c #263C47",
"P  c #2B2252",
"I  c #262956",
"U  c #2C2954",
"Y  c #25265B",
"T  c #29265A",
"R  c #23295C",
"E  c #252555",
"W  c #253D55",
"Q  c #3B3254",
"!  c #372459",
"~  c #262762",
"^  c #46284A",
"/  c #542B4A",
"(  c #47314D",
")  c #473C56",
"_  c #5A3C52",
"`  c #4E344F",
"'  c #763747",
"]  c #66344C",
"[  c #1E5C45",
"{  c #1C5443",
"}  c #1E494F",
"|  c #225D49",
" . c #275848",
".. c #284456",
"X. c #314C5E",
"o. c #2A595B",
"O. c #36585B",
"+. c #2E444C",
"@. c #1B7659",
"#. c #24634B",
"$. c #28634F",
"%. c #266857",
"&. c #27725C",
"*. c #316C58",
"=. c #264E64",
"-. c #2C5B6B",
";. c #295868",
":. c #325A67",
">. c #1D7A62",
",. c #1A6961",
"<. c #286865",
"1. c #277A67",
"2. c #377C69",
"3. c #2C7369",
"4. c #6A424C",
"5. c #78404C",
"6. c #774655",
"7. c #66485F",
"8. c #795261",
"9. c #407C6A",
"0. c #861A3D",
"q. c #901438",
"w. c #AB1D37",
"e. c #B11A36",
"r. c #8E2729",
"t. c #972728",
"y. c #873229",
"u. c #94342A",
"i. c #87363A",
"p. c #923439",
"a. c #953737",
"s. c #8F2E39",
"d. c #A82629",
"f. c #B92C25",
"g. c #B92534",
"h. c #A53738",
"j. c #B83B37",
"k. c #A83132",
"l. c #D32E1E",
"z. c #D72B19",
"x. c #CF321D",
"c. c #D3311D",
"v. c #D53A1D",
"b. c #D9341B",
"n. c #CA2F19",
"m. c #E03E1A",
"M. c #CC2F23",
"N. c #C42D2A",
"B. c #D32E22",
"V. c #D92B22",
"C. c #CE3224",
"Z. c #CB3727",
"A. c #D43223",
"S. c #DA3522",
"D. c #D73B24",
"F. c #874334",
"G. c #9B4436",
"H. c #A7462D",
"J. c #BE4B39",
"K. c #B64738",
"L. c #A6553A",
"P. c #B5533E",
"I. c #BC593D",
"U. c #B9593A",
"Y. c #A74434",
"T. c #E1511F",
"R. c #D84625",
"E. c #DA5228",
"W. c #C64633",
"Q. c #D34E39",
"!. c #C85E39",
"~. c #CB5739",
"^. c #DC5335",
"/. c #D85B3D",
"(. c #C54323",
"). c #E34B23",
"_. c #E4552A",
"`. c #E75C32",
"'. c #CA643C",
"]. c #D86636",
"[. c #EC622F",
"{. c #E86227",
"}. c #E86539",
"|. c #F36C3C",
" X c #F16831",
".X c #FD7E3D",
"XX c #F7723D",
"oX c #9D1141",
"OX c #8D2849",
"+X c #B63C43",
"@X c #8B544A",
"#X c #955956",
"$X c #845050",
"%X c #A84A45",
"&X c #B54944",
"*X c #A85843",
"=X c #B55845",
"-X c #A85C53",
";X c #B6644A",
":X c #AE6452",
">X c #C45A44",
",X c #C76549",
"<X c #D46A43",
"1X c #D76846",
"2X c #D5734D",
"3X c #DB704E",
"4X c #D57753",
"5X c #E86D4B",
"6X c #E77649",
"7X c #F97544",
"8X c #FE7E43",
"9X c #F47B4C",
"0X c #FC7D4A",
"qX c #F57945",
"wX c #E97C55",
"eX c #F37E52",
"rX c #EB6D50",
"tX c #CE7960",
"yX c #0A8D6B",
"uX c #1B8365",
"iX c #158A6B",
"pX c #1A896B",
"aX c #198669",
"sX c #168B70",
"dX c #228264",
"fX c #23846C",
"gX c #218869",
"hX c #38826B",
"jX c #268871",
"kX c #FD813D",
"lX c #FF8037",
"zX c #FD8243",
"xX c #F5824C",
"cX c #FC824A",
"vX c #F58146",
"bX c #EF804D",
"nX c None",
/* pixels */
"nXnXnXnXnXnXnXnXnXnXnXnXnXnXnXnXnXnXnXnXnXnXnXnXnXnXnXnXnXnXnXnXnXnXnXnXnXnXnXnXnXnXnXnXnXnXnXnXnXnX",
"nXnXnXnXnXnXnXnXnXnXnXnXnXnXnXnXnXnXnXnXnXnXnXnXnXnXnXnXnXnXnXnXnXnXnXnXnXnXnXnXnXnXnXnXnXnXnXnXnXnX",
"nXnXnXnXnXnXnXnXnXnXnXnXnXnXnXnXnXnXnXnXnXnXnXnXnXnXnXnXnXnXnXnXnXnXnXnXnXnXnXnXnXnXnXnXnXnXnXnXnXnX",
"nXnXnXnXnXnXnXnXnXnXnXnXnXnXnXnXnXnXnXnXnXnXnXnXnXnXnXnXnXnXnXnXnXnXnXnXnXnXnXnXnXnXnXnXnXnXnXnXnXnX",
"nXnXnXnXnXnXnXnXnXnXnXnXnXnXnXnXnXnXnXnXnXnXnXnXnXnXnXnXnXnXnXnXnXnXnXnXnXnXnXnXnXnXnXnXnXnXnXnXnXnX",
"nXnXnXnXnXnXnXnXnXnXnXnXnXnXnXnXnXnXnXnXnXnXnXnXnXnXnXnXnXnXnXnXnXnXnXnXnXnXnXnXnXnXnXnXnXnXnXnXnXnX",
"nXnXnXnXnXnXnXnXnXnXnXnXnXnXnXnXnXnXnXnXnXnXnXnXnXnXnXnXnXnXnXnXnXnXnXnXnXnXnXnXnXnXnXnXnXnXnXnXnXnX",
"nXnXnXnXnXnXnXnXnXnXnXnXnXnXnXnXnXnXnXnX% *.k nXnXnXnXnXnX| *. .nXnXnXnXnXnXnXnXnXnXnXnXnXnXnXnXnXnX",
"nXnXnXnXnXnXnXnXnXnXnXnXnXnXnXnXnXnXnXnX% dXdX%.[ nXnXnX%.pXiX2.> nXnXnXnXnXnXnXnXnXnXnXnXnXnXnXnXnX",
"nXnXnXnXnXnXnXnXnXnXnXnXnXnXnXnXnXnXnXnXnX%.aXpXiX#.nX| aXgXfX%.nXnXnXnXnXnXnXnXnXnXnXnXnXnXnXnXnXnX",
"nXnXnXnXnXnXnXnXnXnXnXnXnXnXnXnXnXnXnXnXnX#.yX>.3. .& dXyXfXo.; nXnXnXnXnXnXnXnXnXnXnXnXnXnXnXnXnXnX",
"nXnXnXnXnXnXnXnXnXnXnXnXnXnXnXnXnXnXnXnXnXnX%.&.X.+.O.2.3.} * $ nXnXnXnXnXnXnXnXnXnXnXnXnXnXnXnXnXnX",
"nXnXnXnXnXnXnXnXnXnXnXnXnXnXnXnXnXnXnXnXnX3 h @XL.,X,X=X' i p > L l { nXnXnXnXnXnXnXnXnXnXnXnXnXnXnX",
"nXnXnXnXnXnXnXnXnXnXnXnXnXnXnXnXnXnXnXG.>X].}.|.7XkXkXXXR.}.].G.3 y & > nXnXnXnXnXnXnXnXnXnXnXnXnXnX",
"nXnXnXnXnXnXnXnXnXnXnXnXnXnXnXnXnX3 '.0XXX[.XXzXzXkXkX7XE.qXcX}.c.(.G.y nXnXnXnXnXnXnXnXnXnXnXnXnXnX",
"nXnXnXnXnXnXnXnXnXnXnXnXnXnXnXnXh 1X0X X_..XzXzXkXkX8X|.T.8XkX7XS.l.R.!.F.nXnXnXnXnXnXnXnXnXnXnXnXnX",
"nXnXnXnXnXnXnXnXnXnXnXnXnXnXnXi u :X X[.8XkX.X8X8X8X0X[.E..XkXzXW.d.Z.b.!.nXnXnXnXnXnXnXnXnXnXnXnXnX",
"nXnXnXnXnXnXnXnXnXnXnXnXnXnXd i.V 5.]..X8X8XzXkXzXkXzX[.`.zXxX>X8 , t.M.R.=XnXnXnXnXnXnXnXnXnXnXnXnX",
"nXnXnXnXnXnXnXnXnXnXnXnXnXnX*Xi E ( 3XkXkX8X8XzX.X8XzX[.`.9XG.5 o o 6 M.V.^.L.nXnXnXnXnXnXnXnXnXnXnX",
"nXnXnXnXnXnXnXnXnXnXnXnXnXH.|.i./ ^ =XcX.XkXzXkX.XlXzX_.~.d + O o o 6 M.l.v.<XnXnXnXnXnXnXnXnXnXnXnX",
"nXnXnXnXnXnXnXnXnXnXnXnXnX].zX_.~.4X6XcXkXkXkXzXzX.XzXJ.s O O O o + r M.z.x.^.*XnXnXnXnXnXnXnXnXnXnX",
"nXnXnXnXnXnXnXnXnXnXnXnXa qX0X).XXzXkXzXzXzXkXzX.X8XkX~.h.8 + o o 5 r.B.V.l.B.!.nXnXnXnXnXnXnXnXnXnX",
"nXnXnXnXnXnXnXnXnXnXnXnXH..X|.T.lXkX8XzXzXzXzXzXkX8XzX_.qX6X%Xa a.=XZ.l.l.B.M.E.F.nXnXnXnXnXnXnXnXnX",
"nXnXnXnXnXnXnXnXnXnXnXnX'.zX_.}.zXcX0XlXkX5X1XvXkXwX=XQ.|.zXzXqX0X0X`.B.B.B.l.E.L.nXnXnXnXnXnXnXnXnX",
"nXnXnXnXnXnXnXnXnXnXnX3 6X.X).5X:XbXzXkX3Xs g vXzX-X/ K.{.kXzXzXzXzX_.c.c.l.l.D.!.nXnXnXnXnXnXnXnXnX",
"nXnXnXnXnXnXnXnXnXnXnXa >X<XE.-X^ ,XkXwX4.@ K tXbX` M 0.[.8XxXK.1X8X).z.B.c.l.A.!.nXnXnXnXnXnXnXnXnX",
"nXnXk { j nXnXnXnXnXnXy.u.OXI._ I #XxX#XU Z H #X#XI H 5 P.eXG.6 1X.XD.l.A.l.l.S.!.nXnXnXnXnXnXnXnXnX",
"nX .gXaX1.&.nXnXnXnXnXu.p.9 ] U R ) 8.K F # E U U ~ M + q a X t 9X6Xk.M.M.c.l.S.!.nXnXnXnXnXnXnXnXnX",
"nXnX[ dXuXaX%.nXnXnXnXu.p.V T R I I R R N m E R R ~ m X o o o t 9XG.1 n.B.c.B.S.!.nXnXnXnXnXnXnXnXnX",
"nXnXnX&.fX,.1.% nXnXnXu.p.M R R D R Y R N B R R R T m o o + + w eXf 6 M.B.c.l.A.!.nXnXnXnXnXnXnXnXnX",
"nXnXnX@.jX<.%.nXnXnXnXr.p.V R R D R R R H B R R D R m o O O + w eXy.6 N.M.B.C.b.!.nXnXnXnXnXnXnXnXnX",
"nXnXnX#.2.<.: nXnXnXnXu.p.V D R Y D R R H M Y R R R M O O o o w 9Xf 6 t.t.C.A.b.!.nXnXnX> nXnXnXnXnX",
"nXnXnXnXk %.%.$.| % nXu.p.m D R R R R ~ H M T D D Y M o O O @ t 9Xy.6 r.6 f.V.b.!.nXnXL X.nXnXnXnXnX",
"nXnXnX[ dXjXsXyXsX*.$ y.u.@ R D R R R R N m T R R R M o O O o 7 3Xa.7 k.1 f.V.b.!.nX- =.=.S nXnXnXnX",
"nXnX#.aXpXgX1.uXfX3.o.' %X# R R Y R R R N m E ~ R Y C o @ O o 5 ,XK.5 d.d.N.V.S.'.nXL =.;.> nXnXnXnX",
"nX& dXpXdX$.% - +.;.;.4.>X9 E I Y R R R P m E Y D ~ C @ o O o 5 >XQ.6 t.A.C.B.E.U.nX= W = nXnXnXnXnX",
"nXz iXiX#.nXnXnXnXL :.) %Xq 5.' U R Y R T Z K U F ~ P o o O O + t Z.q.r z.n.B.^.$XS ....S nXnXnXnXnX",
"nX{ pXyX{ nXnXnXnXnX..U 6.s ,XJ.! ~ 7.Q Y m _ #XU ~ H o o O + p.e w.w.t.c.l.l.]._ ;.-.-.;.= nXnXnXnX",
"nXj dXgX@.nXnXnXnXnX  n K g wXQ./ Q tX$XP @ #X4X( R ^ %Xi o 5 3X^.Z.w.g.z.M.v.;XJ W ..-.:.> nXnXnXnX",
"nX$.#.dXyX&.* nXnXc x nXnX2 '.5Xp.' xX2X( 9 2XcX6.F ' 5XY.5 7 1Xm.N.oXg.A.x.^.b   nXS -.X.nXnXnXnXnX",
"& x nX{ 1.1.;.= nX%  .j j l v ,XK.>X8XxX$Xs 9XzX:Xu k.`.9XP.P./.C.e.q.N.l.v.=XnXnX. G W = nXnXnXnXnX",
"nXnXnX* ;.<.-.L nX .1.uXuXdX<.Q ' &XrX9X3X=XzXzX9X&Xg.Z.5X7X|.R.g.oXg.C.Z.I.nXnXnXn ~ J nXnXnXnXnXnX",
"nXnXnXnX:.:.O.> nX9.hXhXhX2.:.X.K u i.G.,X1X<X<X>Xh.0.a.j.W.W.j.0.OX+Xj.y.nXnXnXnXJ H . nXnXnXnXnXnX",
"nXnXnXnXnXnXnXnXnXnXnXnXnXnXnXnXnXnXnXnXnXnXnXnXnXnXnXnXnXnXnXnXnXnXnXnXnXnXnXnXnXnXnXnXnXnXnXnXnXnX",
"nXnXnXnXnXnXnXnXnXnXnXnXnXnXnXnXnXnXnXnXnXnXnXnXnXnXnXnXnXnXnXnXnXnXnXnXnXnXnXnXnXnXnXnXnXnXnXnXnXnX",
"nXnXnXnXnXnXnXnXnXnXnXnXnXnXnXnXnXnXnXnXnXnXnXnXnXnXnXnXnXnXnXnXnXnXnXnXnXnXnXnXnXnXnXnXnXnXnXnXnXnX",
"nXnXnXnXnXnXnXnXnXnXnXnXnXnXnXnXnXnXnXnXnXnXnXnXnXnXnXnXnXnXnXnXnXnXnXnXnXnXnXnXnXnXnXnXnXnXnXnXnXnX",
"nXnXnXnXnXnXnXnXnXnXnXnXnXnXnXnXnXnXnXnXnXnXnXnXnXnXnXnXnXnXnXnXnXnXnXnXnXnXnXnXnXnXnXnXnXnXnXnXnXnX",
"nXnXnXnXnXnXnXnXnXnXnXnXnXnXnXnXnXnXnXnXnXnXnXnXnXnXnXnXnXnXnXnXnXnXnXnXnXnXnXnXnXnXnXnXnXnXnXnXnXnX",
"nXnXnXnXnXnXnXnXnXnXnXnXnXnXnXnXnXnXnXnXnXnXnXnXnXnXnXnXnXnXnXnXnXnXnXnXnXnXnXnXnXnXnXnXnXnXnXnXnXnX"
};
