/* XPM */
static char *_c5807e09cbd4fa68a416a485b5d3022nGhXRqK4QoBMGLNV[] = {
/* columns rows colors chars-per-pixel */
"50 50 238 2 ",
"   c None",
".  c #151A1A",
"X  c #0B121F",
"o  c #2D1B13",
"O  c #35271E",
"+  c #121B2A",
"@  c #1A1A2C",
"#  c #161B35",
"$  c #0E1821",
"%  c #3C0223",
"&  c #35012C",
"*  c #3B012B",
"=  c #380829",
"-  c #380632",
";  c #2C133F",
":  c #162925",
">  c #1A3C2E",
",  c #1A2A38",
"<  c #1A3B34",
"1  c #223C32",
"2  c #25373C",
"3  c #2B292B",
"4  c #560B1A",
"5  c #75101A",
"6  c #532017",
"7  c #6A231A",
"8  c #430324",
"9  c #4A0926",
"0  c #530D23",
"q  c #41102F",
"w  c #571429",
"e  c #411537",
"r  c #4D1636",
"t  c #661928",
"y  c #741B29",
"u  c #6C092B",
"i  c #4B2C34",
"p  c #772929",
"a  c #773829",
"s  c #752C36",
"d  c #7A3637",
"f  c #6C2E2A",
"g  c #1E4C3A",
"h  c #1C4537",
"j  c #1E503E",
"k  c #22493A",
"l  c #23503F",
"z  c #2B1442",
"x  c #291C4C",
"c  c #291B46",
"v  c #341845",
"b  c #2C1A51",
"n  c #1D2A5B",
"m  c #1A2242",
"M  c #272549",
"N  c #3A214B",
"B  c #273946",
"V  c #373A48",
"C  c #242655",
"Z  c #242A54",
"A  c #25265C",
"S  c #24295B",
"D  c #2B2657",
"F  c #332A53",
"G  c #372957",
"H  c #232760",
"J  c #303B60",
"K  c #411745",
"L  c #40284F",
"P  c #4D2B45",
"I  c #5F374A",
"U  c #483552",
"Y  c #573C53",
"T  c #4E2C47",
"R  c #6B2A44",
"E  c #6A384C",
"W  c #194C49",
"Q  c #1D554F",
"!  c #264548",
"~  c #255D4B",
"^  c #2C5D4D",
"/  c #275545",
"(  c #2A4858",
")  c #26585A",
"_  c #30494F",
"`  c #1C765D",
"'  c #1D6754",
"]  c #24614B",
"[  c #27684F",
"{  c #246C54",
"}  c #296953",
"|  c #2B645B",
" . c #286756",
".. c #23735B",
"X. c #29755C",
"o. c #30755F",
"O. c #324862",
"+. c #2A5869",
"@. c #325668",
"#. c #244F66",
"$. c #1B7768",
"%. c #246566",
"&. c #267B69",
"*. c #32736F",
"=. c #504B53",
"-. c #7A444D",
";. c #774953",
":. c #65534D",
">. c #416055",
",. c #A1361F",
"<. c #881D27",
"1. c #96153B",
"2. c #95133E",
"3. c #A01939",
"4. c #85292B",
"5. c #9C282A",
"6. c #893C29",
"7. c #873B27",
"8. c #9D2933",
"9. c #863938",
"0. c #973B37",
"q. c #8C2C2D",
"w. c #B5282C",
"e. c #A93729",
"r. c #BB3529",
"t. c #B82633",
"y. c #B43131",
"u. c #A92C30",
"i. c #D32D1D",
"p. c #D8291B",
"a. c #CA371D",
"s. c #D2311B",
"d. c #D33C1C",
"f. c #D7381B",
"g. c #C92E27",
"h. c #D22D23",
"j. c #CE312B",
"k. c #CD3824",
"l. c #D23122",
"z. c #D43B22",
"x. c #D83721",
"c. c #C42C38",
"v. c #C23A3B",
"b. c #8D4939",
"n. c #934D33",
"m. c #984938",
"M. c #914A32",
"N. c #A9473A",
"B. c #B94A39",
"V. c #A7563D",
"C. c #BA4E34",
"Z. c #B7603F",
"A. c #DA411C",
"S. c #D4411F",
"D. c #DC511D",
"F. c #E2521E",
"G. c #C74C2B",
"H. c #DA4423",
"J. c #DC4B27",
"K. c #D35129",
"L. c #C84532",
"P. c #C45A3B",
"I. c #DC5536",
"U. c #D14834",
"Y. c #E5542C",
"T. c #E55929",
"R. c #EA5E33",
"E. c #E45937",
"W. c #E24E2C",
"Q. c #DE6837",
"!. c #ED6534",
"~. c #EC6934",
"^. c #ED6639",
"/. c #E3643B",
"(. c #F26C3B",
"). c #F26738",
"_. c #F8753D",
"`. c #FF7F3E",
"'. c #F6743D",
"]. c #EC6C33",
"[. c #9C2440",
"{. c #A13040",
"}. c #894D4E",
"|. c #9B4A45",
" X c #854B53",
".X c #845657",
"XX c #91564A",
"oX c #A64B45",
"OX c #AB5845",
"+X c #B75646",
"@X c #B14843",
"#X c #B16242",
"$X c #BB6853",
"%X c #AA6551",
"&X c #996560",
"*X c #BA7064",
"=X c #C75B44",
"-X c #E55D43",
";X c #CC6B44",
":X c #CB6A4B",
">X c #C86546",
",X c #DB6C43",
"<X c #D46848",
"1X c #DB7149",
"2X c #CA7358",
"3X c #CD7552",
"4X c #E26945",
"5X c #F46D43",
"6X c #E27345",
"7X c #EB7649",
"8X c #EB7C4D",
"9X c #E77747",
"0X c #FA7741",
"qX c #F57C43",
"wX c #FE7E44",
"eX c #FD7E49",
"rX c #F47547",
"tX c #E67B50",
"yX c #E97A52",
"uX c #E07054",
"iX c #0E8B6D",
"pX c #1D8365",
"aX c #1D846C",
"sX c #128A69",
"dX c #1C8A6B",
"fX c #178767",
"gX c #198671",
"hX c #24836C",
"jX c #2B846A",
"kX c #22886A",
"lX c #288466",
"zX c #FE813D",
"xX c #FB813B",
"cX c #FE8142",
"vX c #F6834B",
"bX c #FC834B",
"nX c #F48245",
"mX c #F88655",
/* pixels */
"                                                                                                    ",
"                                                                                                    ",
"                                                                                                    ",
"                                                                                                    ",
"                                                                                                    ",
"                                      : 1                                                           ",
"                                      h X.] l >                                                     ",
"                                        X.dXlXpX{       h ] { /                                     ",
"                                        ] sXpXsXsXg   l &.sXaX|                                     ",
"                                          ` gX$.&.h   ..gX&.) !                                     ",
"                                            | ) ( , W aX..2 + + < h >                               ",
"                                            o i i :.>.*._ 3 2 V / ~ } ] 1                           ",
"                                        p ,.G.6X7X6X>XB.e.e.e.q.7 6 O : > .                         ",
"                                    b.>XJ.(.cXzX`.cXwX5XA.f.R.(.E.a.C.m.                            ",
"                                  #X6XJ.).wXwXcXcXzXzXwXR.d._.cXwXR.d.I.+X                          ",
"                                >XwXD.~.cXwXwXcXcXcXzXzX'.d.!.cXwXwXT.s.E.Z.                        ",
"                              V.nX!.F.wXcXzX`.zXcXcXwXzXwXH.!.zX`.cXqXA.s.^.#X                      ",
"                            M.9X0XJ.(.cXcX`.wXcXzXwXwXzXwXH.^.cXzXzXwXY.i.z.4Xn.                    ",
"                            oX<X^.W.wXcXzXcXwXzXzXwXwXxX`.H.!.vX9XxXwXR.i.h.J.<X                    ",
"                          f p 0.Y.!.cXcXcXcXcXzXzXbXwXxXwXA.^.=Xt V.vX^.l.i.s./.OX                  ",
"                          9.0 0.I.'.cXcXzXcXcXcXcXcX`.`.wXH.L.w & 0 1X_.z.p.i.S.,Xa                 ",
"                          d - R K.`.`.cXcXcXcXcXcXzXzXcXwXL.t & * 8 =XqXd.i.h.s.!.V.                ",
"                          0.& N C.wXwXcXcXcXzXcX`.zXbXcX7Xy * & * % N.0Xd.s.i.i.W.;X                ",
"                        a +Xq M  XbXzXcXzXcXcXcXcXeX`.vX|.* & * & 9 =X0Xx.i.s.h.f.6Xa               ",
"                        9.0.= C U :XzXwXzXcXcXwXwXcXcXOXq & * * & w ,X0Xz.h.l.h.f.rXM.              ",
"      ~ X.{ ^           6.;X|.E -.1XcXwX`.wXzXxX`.zXcX>X9.w 9 9 0 4.,X0Xd.i.l.h.s.^.n.              ",
"    : [ pXaXhXo.        7.xXbX/.^.cXwXcXzXcXcXcXcXcXwXzXeXU.=X<X,XeXbX_.f.i.h.h.s.^.n.              ",
"        ~ kX$.&.~       7.qXcXT.~.cXcXzXcXcXcXwXcXcXcXcX0XA.!.bXcXwXbX^.s.i.l.h.s.^.n.              ",
"        j sX$.%. .      6.qXcXR.~.6XqX`.wXwXbXnXzXzX`.cX(.d.).cXcX`.zXR.l.l.l.h.s.!.n.              ",
"        g dXgX) 2       6.9XP.E.Q.-.$XcX`.cX:Xb.tXcXcX:XC.S.0XwXcXwXzXB.5.j.g.h.s.!.n.      .       ",
"          /  .W < k     6.:Xt B.oXF .XvXcX3Xi v $XcX8XE 9 r.0XcX:XN.eX9.y w.5 r.a.!.n.    B B       ",
"          g ..lXhXlX} < a N.% E I C U tX8X-.; b  XmX%XN & t uX:Xw p yXt 0 8.4 r.l.^.n.  B @.!       ",
"        ^ jXiXdXdXiXhX%.i 0.* M C S F &X;.D z x U *XY A - & t 0 % w <Xt 8 8.5.g.s./.n.  ( #.(       ",
"      / jXsXfX} ^ ~ %.%.=.OXq x C H S G A S z c C G D A ; & & & & 9 =X4.8 <.j.h.d.,X    ( ( B       ",
"      } dXfX]       B @.=.OXs K  XL n H H S c v A C n n z & * & * 8 5.y.9 <.l.i.A.;XO : B M         ",
"      ..dX`           ! O.}.m.s 4XR n U Y S x v .XY A A e 9 * & s p <.c.u <.l.i.Y.OXB @.+.@.!       ",
"      { fXpX>         @ Z T +XP.5X9.D  X2XL b r 3XXXA G oXoX* & N.,Xr.c.1.w.h.i./.}.J @.+.+.(       ",
"      [ lXkXX.      : : X @ d 9XeXB.P $XbX Xc d bX:XF L G.7Xt % >X(.x.t.3.j.h.d.1XP # , ( +.(       ",
"    ^ / l &.dX| <   > } 1     a 6XE.0.yXcX2Xi OXeXyXI R U.wXP.0.7XY.h.3.t.i.i.E.n.    # O.O.,       ",
"          Q $.%.)     h { ] ..| :.OXv.-X`.vXV.6XcXxX>X{.t.(.cXeX5Xz.t.2.g.s.I.>X      M S m         ",
"          ! @.@.( $ / jXfXkXjX*.@.V R 4.@X<XtX7X7X(.I.[.1.k.K.I.G.y.2.u.r.B.V.      + Z C #         ",
"                                                                                                    ",
"                                                                                                    ",
"                                                                                                    ",
"                                                                                                    ",
"                                                                                                    ",
"                                                                                                    ",
"                                                                                                    ",
"                                                                                                    ",
"                                                                                                    "
};
