/* XPM */
static char *result[] = {
/* columns rows colors chars-per-pixel */
"50 50 205 2 ",
"   c #19160D",
".  c #1C1B1A",
"X  c #1E1B13",
"o  c #23120D",
"O  c #251B14",
"+  c #2A1D15",
"@  c #241D1A",
"#  c #2D1D19",
"$  c #211714",
"%  c #341E14",
"&  c #24221D",
"*  c #2D241D",
"=  c #352015",
"-  c #3C2216",
";  c #34231C",
":  c #3A251A",
">  c #3B281E",
",  c #30281F",
"<  c #211F21",
"1  c #252524",
"2  c #2B2523",
"3  c #2C2924",
"4  c #26262C",
"5  c #25292C",
"6  c #2D2C2B",
"7  c #272A22",
"8  c #342623",
"9  c #332A24",
"0  c #3A2B23",
"q  c #332E2B",
"w  c #3B2E2A",
"e  c #2F3027",
"r  c #363125",
"t  c #393126",
"y  c #34312D",
"u  c #3A312A",
"i  c #3E3A2B",
"p  c #343826",
"a  c #353432",
"s  c #393632",
"d  c #3C3934",
"f  c #3C3A38",
"g  c #373538",
"h  c #42261A",
"j  c #43291B",
"k  c #4B2E1D",
"l  c #66351B",
"z  c #432B22",
"x  c #4A2E21",
"c  c #423326",
"v  c #4C3224",
"b  c #43342D",
"n  c #4B3428",
"m  c #4B3A2B",
"M  c #433B2D",
"N  c #533526",
"B  c #5B3723",
"V  c #5D3A24",
"C  c #533629",
"Z  c #553A2B",
"A  c #5A3D2B",
"S  c #5C3728",
"D  c #453730",
"F  c #453934",
"G  c #4E3A31",
"H  c #553D32",
"J  c #5D3E32",
"K  c #633D25",
"L  c #623C29",
"P  c #683F2A",
"I  c #3F423A",
"U  c #5A422C",
"Y  c #4C4136",
"T  c #43403C",
"R  c #4B443C",
"E  c #424534",
"W  c #5A4234",
"Q  c #52453A",
"!  c #534B3D",
"~  c #5A453A",
"^  c #5F513E",
"/  c #63412C",
"(  c #6C442D",
")  c #76492A",
"_  c #6B4631",
"`  c #6D4A33",
"'  c #654A3B",
"]  c #6B4C3A",
"[  c #674632",
"{  c #744D34",
"}  c #7B4B32",
"|  c #764F38",
" . c #7B4E39",
".. c #7C5235",
"X. c #73513A",
"o. c #7C543B",
"O. c #715037",
"+. c #4B4642",
"@. c #4F4B44",
"#. c #554B43",
"$. c #5B4B43",
"%. c #5C5243",
"&. c #55514A",
"*. c #59544C",
"=. c #5E5A56",
"-. c #674F41",
";. c #625544",
":. c #6C5243",
">. c #6A5A45",
",. c #64564A",
"<. c #6C5B4D",
"1. c #695648",
"2. c #7A5541",
"3. c #7D5943",
"4. c #785C47",
"5. c #635B53",
"6. c #735F51",
"7. c #736046",
"8. c #73614A",
"9. c #7F6148",
"0. c #66625A",
"q. c #6A655E",
"w. c #6E695F",
"e. c #636454",
"r. c #736354",
"t. c #7E6253",
"y. c #7D715B",
"u. c #6E6961",
"i. c #706761",
"p. c #7E736B",
"a. c #727B72",
"s. c #844F2C",
"d. c #82522F",
"f. c #814C31",
"g. c #82563C",
"h. c #82593B",
"j. c #8C5C3D",
"k. c #875637",
"l. c #925C37",
"z. c #9C5E34",
"x. c #925D3A",
"c. c #95613D",
"v. c #9B643E",
"b. c #A2653C",
"n. c #A8673C",
"m. c #A5683F",
"M. c #A26235",
"N. c #845B42",
"B. c #8B5D43",
"V. c #865F49",
"C. c #8C644A",
"Z. c #896347",
"A. c #946445",
"S. c #9B6642",
"D. c #9E6A45",
"F. c #93654A",
"G. c #94694A",
"H. c #9D6B4B",
"J. c #9A785E",
"K. c #866555",
"L. c #A26741",
"P. c #A26943",
"I. c #A26B49",
"U. c #A86641",
"Y. c #AA714D",
"T. c #A37353",
"R. c #AC7D5E",
"E. c #A47B5E",
"W. c #B17B58",
"Q. c #817A6D",
"!. c #88776B",
"~. c #9F7962",
"^. c #997A64",
"/. c #837C74",
"(. c #8C8A79",
"). c #928575",
"_. c #BC8766",
"`. c #B88C71",
"'. c #9D9886",
"]. c #AD9B8D",
"[. c #A8978A",
"{. c #A49F95",
"}. c #AEA494",
"|. c #B6AA9D",
" X c #BAAF9D",
".X c #B9A398",
"XX c #BEB6AA",
"oX c #B7B0A5",
"OX c #C3B4A3",
"+X c #DBBCA9",
"@X c #CCC1AE",
"#X c #D3CABB",
"$X c #D6CAB4",
"%X c #DFD3B9",
"&X c #E1C0A9",
"*X c #EDCFBD",
"=X c #ECCDB5",
"-X c #E5D8BE",
";X c #E0D2BE",
":X c #DED4C2",
">X c #E4D9C3",
",X c #E9DCCA",
"<X c #E4D9C7",
"1X c #ECE1CF",
"2X c None",
/* pixels */
"2X2X2X2X2X2X2X2X2X2X2X2X2X2X2X2X2X2X2X2X2X2X2X2X2X2X2X2X2X2X2X2X2X2X2X2X2X2X2X2X2X2X2X2X2X2X2X2X2X2X",
"2X2X2X2X2X2X2X2X2X2X2X2X2X2X2X2X2X2X2X2X2X2X2X2X2X2X2X2X2X2X2X2X2X2X2X2X2X2X2X2X2X2X2X2X2X2X2X2X2X2X",
"2X2X2X2X2X2X2X2X2X2X2X2X2X2X2X2X2X2X2X2X2X2X2X2X2X2X2X2X2X2X2X2X2X2X2X2X2X2X2X2X2X2X2X2X2X2X2X2X2X2X",
"2X2X2X2X2X2X2X2X2X2X2X2X2X2X2X2X2X2X2X2X2X2X2X2X2X2X2X2X2X2X2X2X2X2X2X2X2X2X2X2X2X2X2X2X2X2X2X2X2X2X",
"2X2X2X2X2X2X2X2X2X2X2X2X2X2X2X2X2X2X2X2X2X2X2X2X2X2X2X2X2X2X2X2X2X2X2X2X2X2X2X2X2X2X2X2X2X2X2X2X2X2X",
"2X2X2X2X2X2X2X2X2X2X2X2X2X2X2X2X2X2X2X2X2X2X2X2X2X2X2X2X2X2X2X2X2X2X2X2X2X2X2X2X2X2X2X2X2X2X2X2X2X2X",
"2X2X2X2X2X2X2X2X2X2X2X2X2X2X2X2X2X2X2X2X2X2X2X2X2X2X2X2X2X2X2X2Xa 2X2X2X2X2X2X2X2X2X2X2X2X2X2X2X2X2X",
"2X2X2X2X2X2X2X& =.2X2X2X2X2X2X2X2X2X2X2X2X2X2X2X2X2X2X2X2X2X2X2X6 1 2X2X2X2X2X2X2X2X2X2X2X2X2X2X2X2X",
"2X2X2X2X2X2X2X@.}.2X2X2X2X2X2X2X2X2Xw w 9 8 9 u y 2X2X2X2X2X2X2Xd +.2X2X2X2X2X2X2X2X2X2X2X2X2X2X2X2X",
"2X2X2X2X2X2X2X0.XX3 2X2X2X2X2X* : Z | g.g.N.N.C.K.b 0 2X2X2X2X2X&.u.2X2X2X2X2X2X2X2X2X2X2X2X2X2X2X2X",
"2X2X2X2X2X2X2X5.#X|.i.=.=.u./.<.N C.P.L.L.P.v.S.R.~.H + r s d +.}.0.2X2X2X2X2X2X2X2X2X2X2X2X2X2X2X2X",
"2X2X2X2X2X2X2X+.@X,X,X:X:X>X1X.XG 3.A.P.U.P.D.l.L.I.E.' *.oXXX#X#X&.2X2X2X2X2X2X2X2X2X2X2X2X2X2X2X2X",
"2X2X2X2X2X2X2X6 {.$X>X>X>X-X>X}.H 3.l S.P.L.P.l.b.P.H.E.H ].,X;X}.d 2X2X2X2X2X2X2X2X2X2X2X2X2X2X2X2X",
"2X2X2X2X2X2X2X3 ! ). X@X;X;X>X).N N.} L.L.D.D.c.v.L.b.T.4.;.OX XQ.9 2X2X2X2X2X2X2X2X2X2X2X2X2X2X2X2X",
"2X2X2X2X2X2X2X2X& & d 5.!.[.}.! B A.I.P.H.P.D.v.S.b.n.P.J.b p.w.d 2X2X2X2X2X2X2X2X2X2X2X2X2X2X2X2X2X",
"2X2X2X2X2X2X2X2X1 @ $ 9 > > M 0 B.S.D.I.P.P.P.m.L.m.n.I.~.F 1 q 2X2X2X2X2X2X2X2X2X2X2X2X2X2X2X2X2X2X",
"2X2X2X2X2X2X2X2X2 ' v : v _ g.B.o.h v S ) o.B.S.b.S.h./ N ; 5 2X2X2X2X2X2X2X2X2X2X2X2X2X2X2X2X2X2X2X",
"2X2X2X2X2X2X2X2X3 ' F...h k A.I.B S  .P N x : x B.x > N  .B.c 2X2X2X2X2X2X2X2X2X2X2X2X2X2X2X2X2X2X2X",
"2X2X2X2X2X2X2X2Xr c d.c.V.v j.L.x x ..B.G.D.g.- | - h.G.2.N 8 2X2X2X2X2X2X2X2X2X2X2X2X2X2X2X2X2X2X2X",
"2X2X2X2X2X2X2X2X2X, U ) o. .j.P.| 0 1.Z Z L ( z V.h Z C ~ #.3 2X2X2X2X2X2X2X2X2X2X2X2X2X2X2X2X2X2X2X",
"2X2X2X2X2X2X2X2X2X2X& j ) } ) A.V.H +X&X.X!.8 H H.P 0 [.*XQ.2X2X2X2X2X2X2X2X2X2X2X2X2X2X2X2X2X2X2X2X",
"2X2X2X2X2X2X2X2X2X2X5 # ) } K } C.N !.=X=X[.9 H { P # !.].f 2X2X2X2X2X2X2X2X2X2X2X2X2X2X2X2X2X2X2X2X",
"2X2X2X2X2X2X2X2X2X2X2X8 m | [ / f.g.v Q ' 8 O w a d @ u c & 2X2X2X2X2X2X2X2X2X2X2X2X2X2X2X2X2X2X2X2X",
"2X2X2X2X2X2X2X2X2X2X2Xa . n A : ` L.c.h.g.o.% w ! +.0 Z.W 0 2X2X2X2X2X2X2X2X2X2X2X2X2X2X2X2X2X2X2X2X",
"2X2X2X2X2X2X2X2X2X2X2X& & ; : Z ] k.b.P.P.D.j.B : : { C.h 2X2X2X2X2X2X2X2X2X2X2X2X2X2X2X2X2X2X2X2X2X",
"2X2X2X2X2X2X2X2X2X2X0 k ..C.v O > S } j.A.H.H.S.x.v.H.' 8 2X2X2X2X2X2X2X2X2X2X2X2X2X2X2X2X2X2X2X2X2X",
"2X2X2X2X2X2X2X2X2X2X2 [ v.U.o.; / x - h k _ B.m.b.L.N.0 2X2X2X2X2X2X2X2X2X2X2X2X2X2X2X2X2X2X2X2X2X2X",
"2X2X2X2X2X2X2X2X2X2X5 v l.m.G.j 3.G.N. .L % h L v ] : w 2X2X2X2X2X2X2X2X2X2X2X2X2X2X2X2X2X2X2X2X2X2X",
"2X2X2X2X2X2X2X2X2X2X. v s.L.D.L K D.P.H.F.g.` % # O 8 c 2X2X2X2X2X2X2X2X2X2X2X2X2X2X2X2X2X2X2X2X2X2X",
"2X2X2X2X2X2X2X2X2Xq @ h ) S.m.j.h ..L.D.x.x.P.B.N.J <.D 2X2X2X2X2X2X2X2X2X2X2X2X2X2X2X2X2X2X2X2X2X2X",
"2X2X2X2X2X2X2X2X2Xq 0 = { j.H.j.8 % g.L.z.M.P.P.U.T.6.w 2X2X2X2X2X2X2X2X2X2X2X2X2X2X2X2X2X2X2X2X2X2X",
"2X2X2X2X2X2X2X2X2Xa F : A ] H : Q $.v H.S.P.P.U.I.R.~ 2X2X2X2X2X2X2X2X2X2X2X2X2X2X6 y d 2X2X2X2X2X2X",
"2X2X2X2X2X2X2X2X2Xy 3 O + * 0 -.<.F % g.D.L.Y.W._.J.* 2X2X2X2X2X2X2X2X2Xe 3 3 s F 0 u d 2X2X2X2X2X2X",
"2X2X2X2X2X2X2X2X2Xq * 3 2 R #.W : C J h { h.G.Y.`.>.@ 2X2X2X2X2X2X2X3 , R Q Q ;.<.Q R *.3 2X2X2X2X2X",
"2X2X2X2X2X2X2X2X2Xq 2 s . 9 ; j } D.H.Z ; R t ` :.3 . 2X2X2X3 0 9 u Y >.8.7.7.7.>.c #.q.y 2X2X2X2X2X",
"2X2X2X2X2X2X2X2X2Xy 2 3 & O X.F.P.D.H.` F '.%.& i E 7 . 3 u M Q G ,.r.8.7.7.7.7.>.M F w.s 2X2X2X2X2X",
"2X2X2X2X2X2X2X2X2Xa 2 3 2 = Z.L.L.P.P.N.3 (.e.1 p r   3 &.$.$.%.;.;.;.^ ^ ^ <.>.^ ! M &.s 2X2X2X2X2X",
"2X2X2X2X2X2X2X2X2X2X& T R = ( c.z.M.A.v X a.I <.p.! o 2 q q w y r r t t t i u u t 8 & 1 2X2X2X2X2X2X",
"2X2X2X2X2X2X2X2X2X2X0 & &.u j X...| v t ! Y %.^.r.z G 9 2X2X2X2X2X3 3 3 , 2X2X2X2X2X2X2X2X2X2X2X2X2X",
"2X2X2X2X2X2X2X2X2X2X, t , ; o x U 8 8 r.y.r.;.b j o.K.0 2X2X2X2X2X2X2X2X2X2X2X2X2X2X2X2X2X2X2X2X2X2X",
"2X2X2X2X2X2X2X2X2X2X8 ' V.O.Z ; @ & 3 q q 2 * Z N.F.4.0 9 2X2X2X2X2X2X2X2X2X2X2X2X2X2X2X2X2X2X2X2X2X",
"2X2X2X2X2X2X2X2X2Xa @ : j S -.F 6 2X2X2X2X2X0 W x h ; F 6 2X2X2X2X2X2X2X2X2X2X2X2X2X2X2X2X2X2X2X2X2X",
"2X2X2X2X2X2X2X2X2X1 g @.G b w 3 2X2X2X2X2X2X@ + 8 R f f a 6 2X2X2X2X2X2X2X2X2X2X2X2X2X2X2X2X2X2X2X2X",
"2X2X2X2X2X2X2X2X2X2X5 5 g 3 T T 4 2X2X2X2X2X2 y a 6 1 5 2X2X2X2X2X2X2X2X2X2X2X2X2X2X2X2X2X2X2X2X2X2X",
"2X2X2X2X2X2X2X2X2X2X2X2X2X6 6 1 2X2X2X2X2X2Xg 1 6 2X2X2X2X2X2X2X2X2X2X2X2X2X2X2X2X2X2X2X2X2X2X2X2X2X",
"2X2X2X2X2X2X2X2X2X2X2X2X2X2X2X2X2X2X2X2X2X2X2X2X2X2X2X2X2X2X2X2X2X2X2X2X2X2X2X2X2X2X2X2X2X2X2X2X2X2X",
"2X2X2X2X2X2X2X2X2X2X2X2X2X2X2X2X2X2X2X2X2X2X2X2X2X2X2X2X2X2X2X2X2X2X2X2X2X2X2X2X2X2X2X2X2X2X2X2X2X2X",
"2X2X2X2X2X2X2X2X2X2X2X2X2X2X2X2X2X2X2X2X2X2X2X2X2X2X2X2X2X2X2X2X2X2X2X2X2X2X2X2X2X2X2X2X2X2X2X2X2X2X",
"2X2X2X2X2X2X2X2X2X2X2X2X2X2X2X2X2X2X2X2X2X2X2X2X2X2X2X2X2X2X2X2X2X2X2X2X2X2X2X2X2X2X2X2X2X2X2X2X2X2X",
"2X2X2X2X2X2X2X2X2X2X2X2X2X2X2X2X2X2X2X2X2X2X2X2X2X2X2X2X2X2X2X2X2X2X2X2X2X2X2X2X2X2X2X2X2X2X2X2X2X2X"
};
