/* XPM */
static char *_8c8b4f375f04335d095780ba6bfbbab8wozLOO7dXIBuci0[] = {
/* columns rows colors chars-per-pixel */
"50 50 205 2 ",
"   c None",
".  c #1B140E",
"X  c #1D1912",
"o  c #191715",
"O  c #2A180D",
"+  c #261611",
"@  c #241B15",
"#  c #2B1C15",
"$  c #241D1B",
"%  c #2C1E19",
"&  c #331D14",
"*  c #3B1F17",
"=  c #1F201D",
"-  c #25231C",
";  c #2C231D",
":  c #2D291E",
">  c #342216",
",  c #3C2417",
"<  c #35241B",
"1  c #3B241C",
"2  c #3E291E",
"3  c #242321",
"4  c #2B2522",
"5  c #2D2A24",
"6  c #2B2B2B",
"7  c #2A2728",
"8  c #332721",
"9  c #332B24",
"0  c #3B2C24",
"q  c #322D2A",
"w  c #3A2E2A",
"e  c #363126",
"r  c #3F3426",
"t  c #34312D",
"y  c #3B332C",
"u  c #3D3A2E",
"i  c #343332",
"p  c #3B3532",
"a  c #3C3A33",
"s  c #3B393B",
"d  c #373833",
"f  c #41251A",
"g  c #422A1C",
"h  c #4A2D1D",
"j  c #482719",
"k  c #562F1C",
"l  c #5B361F",
"z  c #673A1F",
"x  c #442D23",
"c  c #4A2D20",
"v  c #453126",
"b  c #4B3225",
"n  c #42332B",
"m  c #4C352A",
"M  c #453A2E",
"N  c #4C3B2E",
"B  c #523525",
"V  c #5B3626",
"C  c #5D3A22",
"Z  c #52352A",
"A  c #533A2C",
"S  c #5C3C2C",
"D  c #553927",
"F  c #443635",
"G  c #443C35",
"H  c #4B3C32",
"J  c #433E3A",
"K  c #4D3731",
"L  c #523D33",
"P  c #593F32",
"I  c #663A21",
"U  c #4D432E",
"Y  c #444135",
"T  c #4B4236",
"R  c #4A433C",
"E  c #444039",
"W  c #534232",
"Q  c #5D4334",
"!  c #54433A",
"~  c #5B4639",
"^  c #544A3C",
"/  c #58493F",
"(  c #5C503C",
")  c #65432D",
"_  c #6C442C",
"`  c #684025",
"'  c #7E4F2E",
"]  c #754829",
"[  c #624432",
"{  c #6C4532",
"}  c #6C4831",
"|  c #6B4D3B",
" . c #664835",
".. c #724A34",
"X. c #7D4E32",
"o. c #724E3B",
"O. c #704731",
"+. c #6F503C",
"@. c #62523D",
"#. c #7B5236",
"$. c #73523D",
"%. c #7A523A",
"&. c #4B4543",
"*. c #4D4945",
"=. c #534C43",
"-. c #5D4F43",
";. c #524C48",
":. c #5C5244",
">. c #57544A",
",. c #5E5951",
"<. c #624F42",
"1. c #625243",
"2. c #6B5243",
"3. c #6A5A46",
"4. c #6B5B4B",
"5. c #66574A",
"6. c #755544",
"7. c #745E4B",
"8. c #7B5948",
"9. c #7A5642",
"0. c #635B52",
"q. c #695750",
"w. c #735E52",
"e. c #6E604C",
"r. c #73614D",
"t. c #6E6658",
"y. c #6E6B5D",
"u. c #716A56",
"i. c #76665B",
"p. c #6F6D69",
"a. c #786E65",
"s. c #797670",
"d. c #777469",
"f. c #804F2F",
"g. c #82553A",
"h. c #845A3C",
"j. c #8B5B3D",
"k. c #885636",
"l. c #995E3B",
"z. c #955D38",
"x. c #96603E",
"c. c #9B613F",
"v. c #A4673F",
"b. c #A3693E",
"n. c #AC683D",
"m. c #845C43",
"M. c #8B5D42",
"N. c #805740",
"B. c #8D6245",
"V. c #8D644A",
"C. c #85634E",
"Z. c #936445",
"A. c #9A6542",
"S. c #9D6945",
"D. c #936549",
"F. c #9C6A4A",
"G. c #9A6749",
"H. c #8C6953",
"J. c #8D6B58",
"K. c #906E57",
"L. c #9B765C",
"P. c #A36643",
"I. c #A36943",
"U. c #A26D4C",
"Y. c #A4704B",
"T. c #A77255",
"R. c #AB7555",
"E. c #857363",
"W. c #867A67",
"Q. c #9E7C64",
"!. c #9D7D6C",
"~. c #9B7661",
"^. c #847C72",
"/. c #917C70",
"(. c #91816D",
"). c #938B7F",
"_. c #AD8368",
"`. c #B9896B",
"'. c #A2897C",
"]. c #998E82",
"[. c #958D85",
"{. c #9D9387",
"}. c #9D9A90",
"|. c #A18E80",
" X c #A29D8F",
".X c #BD9C8A",
"XX c #A49A91",
"oX c #B19C91",
"OX c #A9A192",
"+X c #B9AA96",
"@X c #BCADA4",
"#X c #BDB6A5",
"$X c #CCAD9C",
"%X c #C6B8A6",
"&X c #D6CBBD",
"*X c #D8CAB7",
"=X c #DBD2BE",
"-X c #E4D9BF",
";X c #D7CCC0",
":X c #DBD5C3",
">X c #E4D7C3",
",X c #E5DBC5",
"<X c #EED3C0",
"1X c #FBDAC6",
"2X c #E6E0CA",
/* pixels */
"                                                                                                    ",
"                                                                                                    ",
"                                                                                                    ",
"                                                                                                    ",
"                                                                                                    ",
"                                                                          7 o                       ",
"                                                                            *.i                     ",
"                                                                            p.p.                    ",
"                            s                                             . [.XX4                   ",
"                          d $                 n 2 x m Z A N w q p t 5 t a 0.&XXX9                   ",
"                          d &.            9 Q H.V.D.G.F.F.H.6.y {. X{.OX#X>X,X{.9                   ",
"                          t s.5       t 5 ~ _.R.l.S.v.v.P.B...! =X2X,X,X,X>X*X^.5                   ",
"                          6 }.^.R R 0.0 W Q.T.P.z.b.b.I.l._ M.m %X,X-X>X=X%X].R                     ",
"                          3 d.:X&X;X@XL L.U.P.c.l.I.I.S.A.I j.B |.:X*X%X].0.8 4                     ",
"                            E #X=X>XW.| T.P.I.c.x.I.P.I.S.S.Z.C ! ).a.! w @ @ ;                     ",
"                            4 W.+X+X^ H.U.P.I.A.A.P.P.I.I.b.S.V.b 0 x m 0 > ! w                     ",
"                              6 >.y.v ~.U.I.I.b.P.I.I.A.m.] k  .V.B.%.x x h.m.0                     ",
"                                  3 - 8.k.Z.F.I.S.h.` h 2 B [ 2 j.n.I c C.B.O.<                     ",
"                                  t w b j f b 9.{ * V X.B.D.%., #.S.} %.g.%.m 9                     ",
"                                  q ~ V.D.j.l Z [ Z K.B.} Z n 1 B.S.g.f.] B ;                       ",
"                                    # c A +.S Z 7.< H A w..X+XZ D.k._ ' z + 6                       ",
"                                    t /.'.q.# { F.V K $X1X1X!.V Z._ ) #.) :                         ",
"                                    7 i.<XoX2 } O.b % 4.'.E.m %.g.A S | 2 p                         ",
"                                      4 -.F $ p F G $ x A S j.S.' g A 2 . 7                         ",
"                                      5 m 8.0 &.;.y < h.I.I.I.l.X.Q < > , @ d                       ",
"                                        1 m.g.f > l M.S.I.P.M.O.v + g V.B.m 3                       ",
"                                          V A.Z.B.S.I.S.j._ c 4 w & k.I.F.2.- s                     ",
"                                          < Q F.S.D.A.S > 2 S 6.m S v.P.j.Z @ q                     ",
"                                            ; B ..x c , ) D.V.S h Z.I.A.} f < 4                     ",
"                                            - ; # & h m.k.h.f + $.F.S.m.S & P 0                     ",
"                                            t i.S M.A.F.h.2 &.=., N.j.$.x g +.x                     ",
"                                            q J.Y.I.I.f.c % t w.L , C S & [ $.b                     ",
"                                              ~ _.R.F.j { m.B 0 4.L % @ + f | v                     ",
"                                              w !.`.o.f V.I.Z.Z , K J $ 8 & <.v                     ",
"                                              i 3.Q.0 o.I.v.F.A._ % @ : G ; H :                     ",
"                        5 t q q               : 9 t X [ I.I.I.I.D.8 X - - : 5 5 i                   ",
"                5 5 y G M 0 H T 9 9 9 q 6 6 : : Y a = > #.z.x.Z...@ 9 e 5 5 5 - d                   ",
"              3 ;.G ^ 4.3.3.4.r.4.5.:.M / ! ; X u R u . g ] #.| , r ^ T R =.Y ;                     ",
"              - ,.=.n 3.r.r.7.r.e.e.4.1.1.2 A W N (./.9 . h D > W W.E.u.t.:.: ;                     ",
"                >.0.0 1.3.7.3.@.( ^ U r ; O 6.H.B v w.i.t.R p 5.E.u.:.W 0 < H n 9                   ",
"                R 0.H -.-.^ T y e 9 : o q G < ~ 9.D ; ; p J J J t 5 @ x } m.2.8 $                   ",
"                q a 9 9 : : q q       6 i p G 8 > W w i             9 <. .h 1 p q q                 ",
"                  3                       3 i J 9 % 4               t : 0 H *.s 7 i                 ",
"                                            i 3 t 7                   J R 4 7 6                     ",
"                                                7 7                   7 6                           ",
"                                                                                                    ",
"                                                                                                    ",
"                                                                                                    ",
"                                                                                                    ",
"                                                                                                    "
};
