/* XPM */
static char *_bc2171103f24b13ac9ef14fe8761bf0Kitw9Nq8BLDFVSV3[] = {
/* columns rows colors chars-per-pixel */
"50 50 205 2 ",
"   c None",
".  c #19160D",
"X  c #1C1B1A",
"o  c #1E1B13",
"O  c #23120D",
"+  c #251B14",
"@  c #2A1D15",
"#  c #241D1A",
"$  c #2D1D19",
"%  c #211714",
"&  c #341E14",
"*  c #24221D",
"=  c #2D241D",
"-  c #352015",
";  c #3C2216",
":  c #34231C",
">  c #3A251A",
",  c #3B281E",
"<  c #30281F",
"1  c #211F21",
"2  c #252524",
"3  c #2B2523",
"4  c #2C2924",
"5  c #26262C",
"6  c #25292C",
"7  c #2D2C2B",
"8  c #272A22",
"9  c #342623",
"0  c #332A24",
"q  c #3A2B23",
"w  c #332E2B",
"e  c #3B2E2A",
"r  c #2F3027",
"t  c #363125",
"y  c #393126",
"u  c #34312D",
"i  c #3A312A",
"p  c #3E3A2B",
"a  c #343826",
"s  c #353432",
"d  c #393632",
"f  c #3C3934",
"g  c #3C3A38",
"h  c #373538",
"j  c #42261A",
"k  c #43291B",
"l  c #4B2E1D",
"z  c #66351B",
"x  c #432B22",
"c  c #4A2E21",
"v  c #423326",
"b  c #4C3224",
"n  c #43342D",
"m  c #4B3428",
"M  c #4B3A2B",
"N  c #433B2D",
"B  c #533526",
"V  c #5B3723",
"C  c #5D3A24",
"Z  c #533629",
"A  c #553A2B",
"S  c #5A3D2B",
"D  c #5C3728",
"F  c #453730",
"G  c #453934",
"H  c #4E3A31",
"J  c #553D32",
"K  c #5D3E32",
"L  c #633D25",
"P  c #623C29",
"I  c #683F2A",
"U  c #3F423A",
"Y  c #5A422C",
"T  c #4C4136",
"R  c #43403C",
"E  c #4B443C",
"W  c #424534",
"Q  c #5A4234",
"!  c #52453A",
"~  c #534B3D",
"^  c #5A453A",
"/  c #5F513E",
"(  c #63412C",
")  c #6C442D",
"_  c #76492A",
"`  c #6B4631",
"'  c #6D4A33",
"]  c #654A3B",
"[  c #6B4C3A",
"{  c #674632",
"}  c #744D34",
"|  c #7B4B32",
" . c #764F38",
".. c #7B4E39",
"X. c #7C5235",
"o. c #73513A",
"O. c #7C543B",
"+. c #715037",
"@. c #4B4642",
"#. c #4F4B44",
"$. c #554B43",
"%. c #5B4B43",
"&. c #5C5243",
"*. c #55514A",
"=. c #59544C",
"-. c #5E5A56",
";. c #674F41",
":. c #625544",
">. c #6C5243",
",. c #6A5A45",
"<. c #64564A",
"1. c #6C5B4D",
"2. c #695648",
"3. c #7A5541",
"4. c #7D5943",
"5. c #785C47",
"6. c #635B53",
"7. c #735F51",
"8. c #736046",
"9. c #73614A",
"0. c #7F6148",
"q. c #66625A",
"w. c #6A655E",
"e. c #6E695F",
"r. c #636454",
"t. c #736354",
"y. c #7E6253",
"u. c #7D715B",
"i. c #6E6961",
"p. c #706761",
"a. c #7E736B",
"s. c #727B72",
"d. c #844F2C",
"f. c #82522F",
"g. c #814C31",
"h. c #82563C",
"j. c #82593B",
"k. c #8C5C3D",
"l. c #875637",
"z. c #925C37",
"x. c #9C5E34",
"c. c #925D3A",
"v. c #95613D",
"b. c #9B643E",
"n. c #A2653C",
"m. c #A8673C",
"M. c #A5683F",
"N. c #A26235",
"B. c #845B42",
"V. c #8B5D43",
"C. c #865F49",
"Z. c #8C644A",
"A. c #896347",
"S. c #946445",
"D. c #9B6642",
"F. c #9E6A45",
"G. c #93654A",
"H. c #94694A",
"J. c #9D6B4B",
"K. c #9A785E",
"L. c #866555",
"P. c #A26741",
"I. c #A26943",
"U. c #A26B49",
"Y. c #A86641",
"T. c #AA714D",
"R. c #A37353",
"E. c #AC7D5E",
"W. c #A47B5E",
"Q. c #B17B58",
"!. c #817A6D",
"~. c #88776B",
"^. c #9F7962",
"/. c #997A64",
"(. c #837C74",
"). c #8C8A79",
"_. c #928575",
"`. c #BC8766",
"'. c #B88C71",
"]. c #9D9886",
"[. c #AD9B8D",
"{. c #A8978A",
"}. c #A49F95",
"|. c #AEA494",
" X c #B6AA9D",
".X c #BAAF9D",
"XX c #B9A398",
"oX c #BEB6AA",
"OX c #B7B0A5",
"+X c #C3B4A3",
"@X c #DBBCA9",
"#X c #CCC1AE",
"$X c #D3CABB",
"%X c #D6CAB4",
"&X c #DFD3B9",
"*X c #E1C0A9",
"=X c #EDCFBD",
"-X c #ECCDB5",
";X c #E5D8BE",
":X c #E0D2BE",
">X c #DED4C2",
",X c #E4D9C3",
"<X c #E9DCCA",
"1X c #E4D9C7",
"2X c #ECE1CF",
/* pixels */
"                                                                                                    ",
"                                                                                                    ",
"                                                                                                    ",
"                                                                                                    ",
"                                                                                                    ",
"                                                                                                    ",
"                                  s                                                                 ",
"                                2 4                                               -.*               ",
"                                @.f               w e 0 0 0 e e                   }.#.              ",
"                                w.=.          e n y.Z.B.B.h.h. .A > =           3 oXq.              ",
"                                q.}.@.d d 0 @ J ^.E.D.b.Y.Y.Y.F.Z.B 6.(.i.6.-.p. X$X6.              ",
"                                *.$X$XoXOX<.] W.U.P.z.D.I.Y.P.S.4.J  X2X,X>X>X<X<X#XE               ",
"                                f |.:X<X[.J K.J.I.b.z.I.I.Y.n.z 4.J |.,X;X;X,X,X%X{.7               ",
"                                0 !..X+X%.5.R.I.Y.b.v.I.I.I.I.| B.Z _.,X&X&X#X.X).~ 4               ",
"                                  f e.a.n ^.I.m.Y.D.b.I.F.F.I.U.S.V $.|.].(.6.G * *                 ",
"                                    7 2 G ^.I.m.M.P.M.I.I.I.I.D.S.V.x F q q 0 % # 1                 ",
"                                      6 9 B ( j.D.M.D.V.O._ D b k O.V.O.` b : b ] 4                 ",
"                                      e V...Z , b V.c j c B ) X.C B U.S.l k O.G.] 4                 ",
"                                      < B 3.H.j.;  .; h.F.H.V.X.b c I.l.b 0.c.f.v t                 ",
"                                      4 $.^ B S j A.k ) P Z A >.q o.I.k.O.X._ Y =                   ",
"                                        !.=X{.9 I J.J 9 a.XX*X@XJ B.S.| g._ k *                     ",
"                                        g [.~.: L ' J 9 {.=X-X~.B G.| P | ) $ 6                     ",
"                                        * v v * f d i + , ] ! m h.f.P { o.M 4                       ",
"                                        0 Q C.q @.#.w : O.l.j.b.P.' > S m X s                       ",
"                                          k Z.} > > V j.I.I.I.n.l.[ S > : * #                       ",
"                                          9 ] J.b.v.F.U.J.S.k.} S , O b Z.O.l q                     ",
"                                            q B.I.n.I.V.{ l j ; c ( : O.Y.b.{ 3                     ",
"                                            e > [ b L ; ; S } B.H.4.x S.Y.z.m 6                     ",
"                                            e 9 # $ - ' O.G.F.I.F.C P I.P.d.b X                     ",
"                                            n 1.S B.V.F.c.c.I.I.X.j c.M.D._ j + w                   ",
"                                            e y.R.Y.I.I.N.x.I.h.& : k.J.k.' : e w                   ",
"            f u w                             ! E.U.Y.I.I.D.J.b %.! > J ' S : G w                   ",
"            d i i G d 0 3 7                   = K.`.Q.T.Y.F.O.& G 1.:.e = @ + < u                   ",
"          4 =.E T 1.:.! ! ~ = 0               # 2.'.T.G.O.} j K B > ^ %.E 3 9 = w                   ",
"          w w.$.v ,.8.8.9.9.:.T i 9 0 0       X 9 >.' v E : A J.D.| l : 4 X d 3 w                   ",
"          s e.T M ,.5.8.8.9.9.t.2.H ! N i 9 X 8 W p * &.].F ' F.I.U.G.>.+ * 4 3 w                   ",
"          s *.p ~ &.:.1.:./ :.:.:.&.:.&.&.$.0 . r a * r.).9 C.F.M.Y.I.B.& = 7 3 u                   ",
"            2 * 0 y i i i y y t t t y w w w 3 O $.!.1.U s.o b v.N.x.b.) - E R *                     ",
"                          4 4 3 4           9 H x 7./.&.T ~ q b  .X. .k n $.= w                     ",
"                                            e L.3.j n :.t.u.t.0 q Y c O = < y 9                     ",
"                                          0 , 5.G.h.A = 3 w w 0 2 # : A +.0.] <                     ",
"                                          7 G : j b Q e           4 G ;.S l : # s                   ",
"                                        7 7 g f E 9 $ #             4 e v T @.h 2                   ",
"                                            6 2 7 u u 3           5 @.R 4 s 4 7                     ",
"                                                  7 2 s             2 w 4                           ",
"                                                                                                    ",
"                                                                                                    ",
"                                                                                                    ",
"                                                                                                    ",
"                                                                                                    "
};
