/* XPM */
static char *eb7aa945baf74d81cde6e86577d1bec0CqhUOAfaY0WCMY5j[] = {
/* columns rows colors chars-per-pixel */
"50 50 206 2 ",
"   c None",
".  c #1D1C1B",
"X  c #22150F",
"o  c #28160D",
"O  c #241A14",
"+  c #2D1D15",
"@  c #241E1A",
"#  c #2C1F19",
"$  c #211711",
"%  c #321E1B",
"&  c #2B231E",
"*  c #272419",
"=  c #342116",
"-  c #3C2216",
";  c #34241C",
":  c #3C251B",
">  c #3B291E",
",  c #1F2021",
"<  c #252322",
"1  c #2B2623",
"2  c #2C2A25",
"3  c #2D2C2B",
"4  c #332621",
"5  c #332B24",
"6  c #3C2C23",
"7  c #332E2A",
"8  c #392C28",
"9  c #392121",
"0  c #333125",
"q  c #3B3126",
"w  c #33302C",
"e  c #3C322B",
"r  c #3A3A2E",
"t  c #363333",
"y  c #3A3633",
"u  c #3D3934",
"i  c gray22",
"p  c #41271B",
"a  c #442C1E",
"s  c #442D22",
"d  c #4B2D21",
"f  c #433126",
"g  c #4C3223",
"h  c #43342B",
"j  c #4B342A",
"k  c #44382D",
"l  c #4B392E",
"z  c #453826",
"x  c #533424",
"c  c #53362C",
"v  c #533B2D",
"b  c #5B3B2B",
"n  c #5E3827",
"m  c #433B33",
"M  c #4C3B31",
"N  c #423D39",
"B  c #473430",
"V  c #513B30",
"C  c #5E3F31",
"Z  c #633B24",
"A  c #633D2A",
"S  c #613B30",
"D  c #3E412E",
"F  c #5C402E",
"G  c #4B4235",
"H  c #4B443E",
"J  c #464332",
"K  c #554335",
"L  c #5D4232",
"P  c #53453C",
"I  c #53493B",
"U  c #584B38",
"Y  c #64412D",
"T  c #6A452E",
"R  c #77472B",
"E  c #74492E",
"W  c #7D4D2D",
"Q  c #7C4825",
"!  c #654333",
"~  c #6A4632",
"^  c #6D4C35",
"/  c #6A4739",
"(  c #634D3B",
")  c #744E34",
"_  c #7B4E35",
"`  c #754E3A",
"'  c #64543E",
"]  c #6D513A",
"[  c #7D5336",
"{  c #75523B",
"}  c #7C543B",
"|  c #534A42",
" . c #5D4E42",
".. c #5A4A44",
"X. c #4F524A",
"o. c #5C5244",
"O. c #57534E",
"+. c #5A534D",
"@. c #5E5D55",
"#. c #494945",
"$. c #644C43",
"%. c #645543",
"&. c #6A5343",
"*. c #6E5E49",
"=. c #67584A",
"-. c #7F5542",
";. c #745E47",
":. c #735E4A",
">. c #775748",
",. c #625C55",
"<. c #695A52",
"1. c #5E6254",
"2. c #6C614D",
"3. c #72614B",
"4. c #74654B",
"5. c #6A6153",
"6. c #6B655D",
"7. c #606059",
"8. c #746351",
"9. c #746C5C",
"0. c #7C6B5C",
"q. c #7A6856",
"w. c #79725D",
"e. c #736B64",
"r. c #7E796D",
"t. c #7A7669",
"y. c #8F5829",
"u. c #94572E",
"i. c #814F38",
"p. c #825233",
"a. c #8E5937",
"s. c #82563B",
"d. c #85593C",
"f. c #8B5B3D",
"g. c #885737",
"h. c #9B5F3B",
"j. c #925D36",
"k. c #93613D",
"l. c #9B633E",
"z. c #9E6334",
"x. c #A5663D",
"c. c #A4693D",
"v. c #845B43",
"b. c #845F4B",
"n. c #875A42",
"m. c #8B6243",
"M. c #8B6449",
"N. c #8E6B4F",
"B. c #886549",
"V. c #956443",
"C. c #9B6642",
"Z. c #9E6945",
"A. c #93674A",
"S. c #95694C",
"D. c #9D6A4B",
"F. c #9B6948",
"G. c #8A6A58",
"H. c #946C52",
"J. c #9C6B51",
"K. c #99755D",
"L. c #A26742",
"P. c #A26943",
"I. c #A26B4A",
"U. c #AA734F",
"Y. c #A5704A",
"T. c #A16F51",
"R. c #AA7450",
"E. c #AE7D5C",
"W. c #837863",
"Q. c #9E7A61",
"!. c #897D72",
"~. c #917E71",
"^. c #A17B65",
"/. c #B07E62",
"(. c #9B8C6C",
"). c #8D857B",
"_. c #8B8675",
"`. c #938776",
"'. c #A18068",
"]. c #A18476",
"[. c #BB8F71",
"{. c #958F84",
"}. c #9B9688",
"|. c #A39E95",
" X c #B89A88",
".X c #ADA396",
"XX c #A7A095",
"oX c #B8AE9E",
"OX c #B8B1A8",
"+X c #D2B19D",
"@X c #C3B9AA",
"#X c #CAB8A8",
"$X c #D0B7A6",
"%X c #CCBEB1",
"&X c #D6C9B4",
"*X c #DDD1BE",
"=X c #ECCFBB",
"-X c #E4D4BD",
";X c #EADCBF",
":X c #E5D8B9",
">X c #DCCEC2",
",X c #DAD3C4",
"<X c #E5D5C2",
"1X c #EBDBC3",
"2X c #E7D7C8",
"3X c #F5DAC5",
/* pixels */
"                                                                                                    ",
"                                                                                                    ",
"                                                                                                    ",
"                                                                                                    ",
"                                                                                                    ",
"                                    2                                                               ",
"                                  3 <                                                               ",
"                                  t ,.              5 q h q 6 6 4 4 8               H |.@           ",
"                                  7 `.5         5 f G.K.S.V.V.V.V.v.v & i e       @ )..X2           ",
"                                  2 .X{.,.+.O.& k K./.I.h.x.x.x.P.k.` | OX.X_.r.`.@X<X}.2           ",
"                                  3 {.2X<X>X).M Q.T.D.h.l.P.P.P.k.g.) 5.2X1X;X;X1X1X*X!.1           ",
"                                  2 6.#X-X%XK N.Y.Z.Z.j.l.P.Z.D._ Z } =.,X<X:X:X-X&XoXH             ",
"                                    m }.oXt.L R.x.P.Z.j.c.P.P.I.C.f._ l @X*X&X@XXXr.H 5             ",
"                                    5 u 7.m B.R.L.Z.L.h.x.x.x.x.c.P.a.s e.~.8.P 7 . O               ",
"                                        2 $ :.H.D.P.P.L.P.I.Z.F.m.d.V.] s g a f % # 2               ",
"                                        w a a s n p.C.V.[ T x g p - a M.C.g.j & b v.M               ",
"                                        8 ^ A.v.S - ~ b : x T i.n.b.> s.P.A : } C.s.8               ",
"                                          = x >.G.b Y b F H.V.g.Y f - d.D.T { f.p.Y 2               ",
"                                          u ~.$.j - _ ` : M j $.0.:.x J.V.p.[ ^ L ;                 ",
"                                          w #X<X<.6 A.M.: 0.$X=X3XG.A H.R Q W g O 5                 ",
"                                          2 P 0.4 4 l l ; V  X+X].g n.v.Z Q ) h <                   ",
"                                            ; C 6 N X.#.7 & M j c -.f.A g ) F ;                     ",
"                                            > b./ 4 m 8 % / S.C.F.D.g.x l l O &                     ",
"                                            5 C J.! g b n.D.P.c.C.f.) b ; X # = &                   ",
"            3 2 1                             > v.I.P.P.I.Z.V.s.T x - : # x n.[ g 5                 ",
"          2 @.m m q 1                         e g v.V.k.m.b p - : x ` M.j W P.C.Y 4                 ",
"          N e.8 o.=.G 1 1                       O > j ; ; : Y d.k.I.I.Z.x W P.C.b 5                 ",
"        3 ,.o.> ' :.=.I H 2                   3 m 4 = p T f.a.P.P.x.P.D.x R I.C.~ 8                 ",
"        2 O.e U &.;.3.3.8.P &                 O P 8.d.C.P.x.u.L.I.Z.P.D.x E I.C._ s                 ",
"        t @ 7 P %.*.;.;.3.2.I 1 7           7 4 j '.I.Z.D.D.l.L.L.P.P.C.d s.I.C.p.g                 ",
"            7 2 8 G  .( %.*.3.I 5 1         2 6.6 G.E.U.I.I.D.D.L.x.I.[ + x ^ ` Y 6 < 3             ",
"                  1 2 q G U ' %. .P 5 2   t @ 8 ; &.[.E.U.P.x.x.L.P.m.x H | f 6 & < , i 3           ",
"                      2 & 1 q m I  . .m @ s v.T X e ^.H.{ Z E V.I.I.m.a B =.<.%.P N < i 3           ",
"                            1 5 & 5 h | 2 b I.[ # 7 e 4 e 9.o.g ^ ) { a : s : 4 ; @ 3 3             ",
"                                    4 1 @ ] j.Y @ r D * 1.}.t.5 0 k 4 6 B.C.f.s.} s N               ",
"                                        1 ( _ ^ & J | e +.|.H * 0 r 4 > N.P.P.P.I.Y 7               ",
"                                          ; ! &.; h `.W.h | q 9.w.w.' s S.P.c.c.V.L 7               ",
"                                            9 k ; p z 4.q.2.W.(.(.(.w.: } x.z.y.p.c 7               ",
"                                              2 ; v.! > f G o.5.2.%.I * o g ! ^ ^ >                 ",
"                                                6 A.J.v.L 6 @ w t < 4 k K v : ; 4 2                 ",
"                                                4 V v f 6 & w     7 4 l l l f # m                   ",
"                                                e m e e 7 7 1     2 | h k h q &                     ",
"                                              3 u e 5 y 7 3 <     2 i 1 y u y <                     ",
"                                                < < 1                     < 1 w                     ",
"                                                                                                    ",
"                                                                                                    ",
"                                                                                                    ",
"                                                                                                    ",
"                                                                                                    ",
"                                                                                                    "
};
