/* XPM */
static char *result[] = {
/* columns rows colors chars-per-pixel */
"50 50 205 2 ",
"   c #1B140E",
".  c #1D1912",
"X  c #191715",
"o  c #2A180D",
"O  c #261611",
"+  c #241B15",
"@  c #2B1C15",
"#  c #241D1B",
"$  c #2C1E19",
"%  c #331D14",
"&  c #3B1F17",
"*  c #1F201D",
"=  c #25231C",
"-  c #2C231D",
";  c #2D291E",
":  c #342216",
">  c #3C2417",
",  c #35241B",
"<  c #3B241C",
"1  c #3E291E",
"2  c #242321",
"3  c #2B2522",
"4  c #2D2A24",
"5  c #2B2B2B",
"6  c #2A2728",
"7  c #332721",
"8  c #332B24",
"9  c #3B2C24",
"0  c #322D2A",
"q  c #3A2E2A",
"w  c #363126",
"e  c #3F3426",
"r  c #34312D",
"t  c #3B332C",
"y  c #3D3A2E",
"u  c #343332",
"i  c #3B3532",
"p  c #3C3A33",
"a  c #3B393B",
"s  c #373833",
"d  c #41251A",
"f  c #422A1C",
"g  c #4A2D1D",
"h  c #482719",
"j  c #562F1C",
"k  c #5B361F",
"l  c #673A1F",
"z  c #442D23",
"x  c #4A2D20",
"c  c #453126",
"v  c #4B3225",
"b  c #42332B",
"n  c #4C352A",
"m  c #453A2E",
"M  c #4C3B2E",
"N  c #523525",
"B  c #5B3626",
"V  c #5D3A22",
"C  c #52352A",
"Z  c #533A2C",
"A  c #5C3C2C",
"S  c #553927",
"D  c #443635",
"F  c #443C35",
"G  c #4B3C32",
"H  c #433E3A",
"J  c #4D3731",
"K  c #523D33",
"L  c #593F32",
"P  c #663A21",
"I  c #4D432E",
"U  c #444135",
"Y  c #4B4236",
"T  c #4A433C",
"R  c #444039",
"E  c #534232",
"W  c #5D4334",
"Q  c #54433A",
"!  c #5B4639",
"~  c #544A3C",
"^  c #58493F",
"/  c #5C503C",
"(  c #65432D",
")  c #6C442C",
"_  c #684025",
"`  c #7E4F2E",
"'  c #754829",
"]  c #624432",
"[  c #6C4532",
"{  c #6C4831",
"}  c #6B4D3B",
"|  c #664835",
" . c #724A34",
".. c #7D4E32",
"X. c #724E3B",
"o. c #704731",
"O. c #6F503C",
"+. c #62523D",
"@. c #7B5236",
"#. c #73523D",
"$. c #7A523A",
"%. c #4B4543",
"&. c #4D4945",
"*. c #534C43",
"=. c #5D4F43",
"-. c #524C48",
";. c #5C5244",
":. c #57544A",
">. c #5E5951",
",. c #624F42",
"<. c #625243",
"1. c #6B5243",
"2. c #6A5A46",
"3. c #6B5B4B",
"4. c #66574A",
"5. c #755544",
"6. c #745E4B",
"7. c #7B5948",
"8. c #7A5642",
"9. c #635B52",
"0. c #695750",
"q. c #735E52",
"w. c #6E604C",
"e. c #73614D",
"r. c #6E6658",
"t. c #6E6B5D",
"y. c #716A56",
"u. c #76665B",
"i. c #6F6D69",
"p. c #786E65",
"a. c #797670",
"s. c #777469",
"d. c #804F2F",
"f. c #82553A",
"g. c #845A3C",
"h. c #8B5B3D",
"j. c #885636",
"k. c #995E3B",
"l. c #955D38",
"z. c #96603E",
"x. c #9B613F",
"c. c #A4673F",
"v. c #A3693E",
"b. c #AC683D",
"n. c #845C43",
"m. c #8B5D42",
"M. c #805740",
"N. c #8D6245",
"B. c #8D644A",
"V. c #85634E",
"C. c #936445",
"Z. c #9A6542",
"A. c #9D6945",
"S. c #936549",
"D. c #9C6A4A",
"F. c #9A6749",
"G. c #8C6953",
"H. c #8D6B58",
"J. c #906E57",
"K. c #9B765C",
"L. c #A36643",
"P. c #A36943",
"I. c #A26D4C",
"U. c #A4704B",
"Y. c #A77255",
"T. c #AB7555",
"R. c #857363",
"E. c #867A67",
"W. c #9E7C64",
"Q. c #9D7D6C",
"!. c #9B7661",
"~. c #847C72",
"^. c #917C70",
"/. c #91816D",
"(. c #938B7F",
"). c #AD8368",
"_. c #B9896B",
"`. c #A2897C",
"'. c #998E82",
"]. c #958D85",
"[. c #9D9387",
"{. c #9D9A90",
"}. c #A18E80",
"|. c #A29D8F",
" X c #BD9C8A",
".X c #A49A91",
"XX c #B19C91",
"oX c #A9A192",
"OX c #B9AA96",
"+X c #BCADA4",
"@X c #BDB6A5",
"#X c #CCAD9C",
"$X c #C6B8A6",
"%X c #D6CBBD",
"&X c #D8CAB7",
"*X c #DBD2BE",
"=X c #E4D9BF",
"-X c #D7CCC0",
";X c #DBD5C3",
":X c #E4D7C3",
">X c #E5DBC5",
",X c #EED3C0",
"<X c #FBDAC6",
"1X c #E6E0CA",
"2X c None",
/* pixels */
"2X2X2X2X2X2X2X2X2X2X2X2X2X2X2X2X2X2X2X2X2X2X2X2X2X2X2X2X2X2X2X2X2X2X2X2X2X2X2X2X2X2X2X2X2X2X2X2X2X2X",
"2X2X2X2X2X2X2X2X2X2X2X2X2X2X2X2X2X2X2X2X2X2X2X2X2X2X2X2X2X2X2X2X2X2X2X2X2X2X2X2X2X2X2X2X2X2X2X2X2X2X",
"2X2X2X2X2X2X2X2X2X2X2X2X2X2X2X2X2X2X2X2X2X2X2X2X2X2X2X2X2X2X2X2X2X2X2X2X2X2X2X2X2X2X2X2X2X2X2X2X2X2X",
"2X2X2X2X2X2X2X2X2X2X2X2X2X2X2X2X2X2X2X2X2X2X2X2X2X2X2X2X2X2X2X2X2X2X2X2X2X2X2X2X2X2X2X2X2X2X2X2X2X2X",
"2X2X2X2X2X2X2X2X2X2X2X2X2X2X2X2X2X2X2X2X2X2X2X2X2X2X2X2X2X2X2X2X2X2X2X2X2X2X2X2X2X2X2X2X2X2X2X2X2X2X",
"2X2X2X2X2X2X2X2X2X2X2XX 6 2X2X2X2X2X2X2X2X2X2X2X2X2X2X2X2X2X2X2X2X2X2X2X2X2X2X2X2X2X2X2X2X2X2X2X2X2X",
"2X2X2X2X2X2X2X2X2X2Xu &.2X2X2X2X2X2X2X2X2X2X2X2X2X2X2X2X2X2X2X2X2X2X2X2X2X2X2X2X2X2X2X2X2X2X2X2X2X2X",
"2X2X2X2X2X2X2X2X2X2Xi.i.2X2X2X2X2X2X2X2X2X2X2X2X2X2X2X2X2X2X2X2X2X2X2X2X2X2X2X2X2X2X2X2X2X2X2X2X2X2X",
"2X2X2X2X2X2X2X2X2X2 .X].  2X2X2X2X2X2X2X2X2X2X2X2X2X2X2X2X2X2X2X2X2X2Xa 2X2X2X2X2X2X2X2X2X2X2X2X2X2X",
"2X2X2X2X2X2X2X2X2X8 .X%X9.i u 4 r i 0 q M Z C n z 1 n 2X2X2X2X2X2X2X2X= u 2X2X2X2X2X2X2X2X2X2X2X2X2X",
"2X2X2X2X2X2X2X2X2Xq }.>X:X$XoX[.|.[.t 5.G.P.A.F.B.B.G.] q 2X2X2X2X2X2X&.s 2X2X2X2X2X2X2X2X2X2X2X2X2X",
"2X2X2X2X2X2X2X2X2X6 ~.&X:X>X>X>X>X*X^  .C.L.v.v.A.k.T.Q.! 4 r 2X2X2X5 a.0 2X2X2X2X2X2X2X2X2X2X2X2X2X",
"2X2X2X2X2X2X2X2X2X2XR '.$X;X=X=X>X$Xn m._ x.v.P.c.l.x.Y.!.E 9 9.T R ~.{.5 2X2X2X2X2X2X2X2X2X2X2X2X2X",
"2X2X2X2X2X2X2X2X2X2X3 7 4.[.@X&X;X}.N m._ A.A.P.L.k.Z.L.I.K.K +X%X*X;Xs.4 2X2X2X2X2X2X2X2X2X2X2X2X2X",
"2X2X2X2X2X2X2X2X2X2X- O # 9 Q p.(.Q B C.x.A.P.L.L.k.Z.P.L.Y.} a.1X*X@XR 2X2X2X2X2X2X2X2X2X2X2X2X2X2X",
"2X2X2X2X2X2X2X2X2X2Xq Q % q n z 7 v B.Z.v.A.P.L.L.Z.Z.L.L.I.G.~ OXOXa.3 2X2X2X2X2X2X2X2X2X2X2X2X2X2X",
"2X2X2X2X2X2X2X2X2X2X9 n.f.z z $.N.S.| j ' n.Z.P.P.A.c.L.P.I.!.c t.:.5 2X2X2X2X2X2X2X2X2X2X2X2X2X2X2X",
"2X2X2X2X2X2X2X2X2X2X,  .N.V.x P b.h.< ] N 1 g _ g.Z.L.F.C.j.7.= 2 2X2X2X2X2X2X2X2X2X2X2X2X2X2X2X2X2X",
"2X2X2X2X2X2X2X2X2X2X8 n X.f.@.) A.@.> $.F.m...B > [ 8.x f h v q 0 2X2X2X2X2X2X2X2X2X2X2X2X2X2X2X2X2X",
"2X2X2X2X2X2X2X2X2X2X2X- N ' d.$.Z.N.< D C o.m.J.C ] N B h.C.S.W 0 2X2X2X2X2X2X2X2X2X2X2X2X2X2X2X2X2X",
"2X2X2X2X2X2X2X2X2X2X2X5 @ l ` ) l.S.C OX Xq.M G 7 6.K L O.Z g $ 2X2X2X2X2X2X2X2X2X2X2X2X2X2X2X2X2X2X",
"2X2X2X2X2X2X2X2X2X2X2X2X; ( @.( ) C.B Q.<X<X#XJ B F.[ % 0.`.^.r 2X2X2X2X2X2X2X2X2X2X2X2X2X2X2X2X2X2X",
"2X2X2X2X2X2X2X2X2X2X2X2Xt 1 } L K $.$.n R.`.0.$ v o.o.< XX,Xu.6 2X2X2X2X2X2X2X2X2X2X2X2X2X2X2X2X2X2X",
"2X2X2X2X2X2X2X2X2X2X2X2X6   f Z d ` L.h.B K x $ D D i # D ,.3 2X2X2X2X2X2X2X2X2X2X2X2X2X2X2X2X2X2X2X",
"2X2X2X2X2X2X2X2X2X2X2Xu + > , , ] ..C.L.P.P.g., t -.%.d 7.C 8 2X2X2X2X2X2X2X2X2X2X2X2X2X2X2X2X2X2X2X",
"2X2X2X2X2X2X2X2X2X2X2X2 n N.B.f O z o.m.P.L.A.h.j < f @.n.7 2X2X2X2X2X2X2X2X2X2X2X2X2X2X2X2X2X2X2X2X",
"2X2X2X2X2X2X2X2X2X2Xa = 1.F.P.j.% q 7 x ) h.A.P.A.N.C.F.S 2X2X2X2X2X2X2X2X2X2X2X2X2X2X2X2X2X2X2X2X2X",
"2X2X2X2X2X2X2X2X2X2X0 + C g.L.v.B n 5.A 9 % A Z.F.A.F.W , 2X2X2X2X2X2X2X2X2X2X2X2X2X2X2X2X2X2X2X2X2X",
"2X2X2X2X2X2X2X2X2X2X4 , f { A.L.C.j A B.S.( > z z  .N - 2X2X2X2X2X2X2X2X2X2X2X2X2X2X2X2X2X2X2X2X2X2X",
"2X2X2X2X2X2X2X2X2X2X9 E % Z n.P.D.X.O > g.j.n.g % % $ 2 2X2X2X2X2X2X2X2X2X2X2X2X2X2X2X2X2X2X2X2X2X2X",
"2X2X2X2X2X2X2X2X2X2Xz O.g z #.m.M.< *.%.1 g.A.Z.m.B u.0 2X2X2X2X2X2X2X2X2X2X2X2X2X2X2X2X2X2X2X2X2X2X",
"2X2X2X2X2X2X2X2X2X2Xc #.] $ L B & K q.q @ z j.P.P.U.H.0 2X2X2X2X2X2X2X2X2X2X2X2X2X2X2X2X2X2X2X2X2X2X",
"2X2X2X2X2X2X2X2X2X2Xc } > @ + $ G 0.z v N.] h D.T.).! 2X2X2X2X2X2X2X2X2X2X2X2X2X2X2X2X2X2X2X2X2X2X2X",
"2X2X2X2X2X2X2X2X2X2Xc <.% 7 # H M > C C.L.S.d X._.Q.t 2X2X2X2X2X2X2X2X2X2X2X2X2X2X2X2X2X2X2X2X2X2X2X",
"2X2X2X2X2X2X2X2X2X2X; M - U ; + = ) x.U.c.P.#.9 Q.1.i 2X2X2X2X2X2X2X2X2X2X2X2X2X2X2X2X2X2X2X2X2X2X2X",
"2X2X2X2X2X2X2X2X2Xs 4 8 ; 2 = . w S.v.x.L.L.] + t 7 ; 2X2X2X2X2X2X2X0 r t 4 2X2X2X2X2X2X2X2X2X2X2X2X",
"2X2X2X2X2X2X2X2X2Xs = 4 4 4 w 4 +  .z.z.l.@., . p U ; - 5 5 r 7 7 8 Y I 1 y F w 4 4 2X2X2X2X2X2X2X2X",
"2X2X2X2X2X2X2X2X2X2X= U *.T I ~ z d O.@.' f X m T y   - Q =.m ;.4.3.e.e.2.2.w.~ U *.2 2X2X2X2X2X2X2X",
"2X2X2X2X2X2X2X2X2X2X- - ;.y.y.s.E.E , Z g . r E./.I E Z 1 <.<.3.w.w.e.e.e.e.4.b *.>.= 2X2X2X2X2X2X2X",
"2X2X2X2X2X2X2X2X2X8 y M , e I 2.y.R.4.p Y y.u.q.c C G.8.o - b I ~ / +.2.6.2.;.1 9.:.2X2X2X2X2X2X2X2X",
"2X2X2X2X2X2X2X2X2X# 7 1.N.| c + 4 w H H a p - $ S 8.! , F 0 X ; 8 w b Y ^ =.;.G 9.Y 2X2X2X2X2X2X2X2X",
"2X2X2X2X2X2X2X2X0 0 i 7 g ] ;.8 2X2X2X2X2X2Xi q W < 7 F p u 5 2X2X2Xr 0 ; ; 8 8 p r 2X2X2X2X2X2X2X2X",
"2X2X2X2X2X2X2X2Xu 6 a &.G 9 ; 0 2X2X2X2X2X2X2X3 + 8 H u 2 2X2X2X2X2X2X2X2X2X2X2X= 2X2X2X2X2X2X2X2X2X",
"2X2X2X2X2X2X2X2X2X2X5 5 2 %.H 2X2X2X2X2X2X2X2X2X6 r 2 u 2X2X2X2X2X2X2X2X2X2X2X2X2X2X2X2X2X2X2X2X2X2X",
"2X2X2X2X2X2X2X2X2X2X2X2X2X5 6 2X2X2X2X2X2X2X2X2X6 6 2X2X2X2X2X2X2X2X2X2X2X2X2X2X2X2X2X2X2X2X2X2X2X2X",
"2X2X2X2X2X2X2X2X2X2X2X2X2X2X2X2X2X2X2X2X2X2X2X2X2X2X2X2X2X2X2X2X2X2X2X2X2X2X2X2X2X2X2X2X2X2X2X2X2X2X",
"2X2X2X2X2X2X2X2X2X2X2X2X2X2X2X2X2X2X2X2X2X2X2X2X2X2X2X2X2X2X2X2X2X2X2X2X2X2X2X2X2X2X2X2X2X2X2X2X2X2X",
"2X2X2X2X2X2X2X2X2X2X2X2X2X2X2X2X2X2X2X2X2X2X2X2X2X2X2X2X2X2X2X2X2X2X2X2X2X2X2X2X2X2X2X2X2X2X2X2X2X2X",
"2X2X2X2X2X2X2X2X2X2X2X2X2X2X2X2X2X2X2X2X2X2X2X2X2X2X2X2X2X2X2X2X2X2X2X2X2X2X2X2X2X2X2X2X2X2X2X2X2X2X",
"2X2X2X2X2X2X2X2X2X2X2X2X2X2X2X2X2X2X2X2X2X2X2X2X2X2X2X2X2X2X2X2X2X2X2X2X2X2X2X2X2X2X2X2X2X2X2X2X2X2X"
};
