/* XPM */
static char *result[] = {
/* columns rows colors chars-per-pixel */
"50 50 211 2 ",
"   c #1B160D",
".  c #1D1713",
"X  c #1C1A19",
"o  c #1C1814",
"O  c #251B0F",
"+  c #251610",
"@  c #241A14",
"#  c #2A1C14",
"$  c #241E1B",
"%  c #2B1D1D",
"&  c #1E231B",
"*  c #23211D",
"=  c #2C241C",
"-  c #2E281F",
";  c #2D2116",
":  c #342217",
">  c #3B2216",
",  c #33241C",
"<  c #3D251C",
"1  c #3B2C1E",
"2  c #342B1E",
"3  c #231E25",
"4  c #242424",
"5  c #2B2622",
"6  c #2C2924",
"7  c #2B2B2A",
"8  c #262A2B",
"9  c #332622",
"0  c #332A24",
"q  c #3B2B23",
"w  c #322D2A",
"e  c #392D2A",
"r  c #3A2420",
"t  c #2E362B",
"y  c #343026",
"u  c #3D3127",
"i  c #33322E",
"p  c #3D342C",
"a  c #2A2D30",
"s  c #312F31",
"d  c #2F3031",
"f  c #353433",
"g  c #3B3632",
"h  c #3C3936",
"j  c #3D3C3A",
"k  c #373A30",
"l  c #442B1C",
"z  c #4A2C1E",
"x  c #402816",
"c  c #532E1B",
"v  c #5A3B1F",
"b  c #442D23",
"n  c #4B2E21",
"m  c #443123",
"M  c #4D3225",
"N  c #43332A",
"B  c #4C362A",
"V  c #44392D",
"C  c #4D3B2E",
"Z  c #553424",
"A  c #5B3925",
"S  c #533B2C",
"D  c #5C3B2B",
"F  c #563725",
"G  c #433B34",
"H  c #4B3A33",
"J  c #453F3B",
"K  c #4D3F38",
"L  c #523C31",
"P  c #5C3E33",
"I  c #503730",
"U  c #633F2A",
"Y  c #653B24",
"T  c #374035",
"R  c #5D422D",
"E  c #444235",
"W  c #44413D",
"Q  c #4C433E",
"!  c #494034",
"~  c #5D4335",
"^  c #53453B",
"/  c #5A443A",
"(  c #55493C",
")  c #5B4B3C",
"_  c #594836",
"`  c #65432C",
"'  c #6A422B",
"]  c #6A492C",
"[  c #7B4F2B",
"{  c #774723",
"}  c #7A502E",
"|  c #624333",
" . c #664A34",
".. c #6D4B35",
"X. c #6C4C3A",
"o. c #684436",
"O. c #754C34",
"+. c #7A4E31",
"@. c #734E3B",
"#. c #6C513D",
"$. c #7B5234",
"%. c #74513C",
"&. c #7B543C",
"*. c #785639",
"=. c #484444",
"-. c #534B44",
";. c #5C4C41",
":. c #544D48",
">. c #5B5144",
",. c #5A544B",
"<. c #545C49",
"1. c #5F5851",
"2. c #645544",
"3. c #6B5444",
"4. c #6B5944",
"5. c #65534C",
"6. c #645A4C",
"7. c #6D5D4C",
"8. c #695749",
"9. c #7E5A45",
"0. c #725D4A",
"q. c #7C5C4C",
"w. c #725644",
"e. c #645D55",
"r. c #615D58",
"t. c #6E604A",
"y. c #74604C",
"u. c #64615B",
"i. c #6A675C",
"p. c #71655A",
"a. c #7C6D5E",
"s. c #776755",
"d. c #73745F",
"f. c #756C62",
"g. c #7B746D",
"h. c #767864",
"j. c #88522C",
"k. c #8E4E3C",
"l. c #865433",
"z. c #8B5935",
"x. c #83553B",
"c. c #855A3B",
"v. c #8B5B3C",
"b. c #885935",
"n. c #9A5D33",
"m. c #955D3A",
"M. c #955A37",
"N. c #8D603F",
"B. c #9D643E",
"V. c #9F6A3C",
"C. c #A4663D",
"Z. c #A4693E",
"A. c #A86A38",
"S. c #845B42",
"D. c #8C5D43",
"F. c #945D45",
"G. c #896244",
"H. c #86634B",
"J. c #8E6449",
"K. c #8E694A",
"L. c #946445",
"P. c #9C6542",
"I. c #9D6944",
"U. c #96694A",
"Y. c #9C6B4A",
"T. c #96664B",
"R. c #8F6A51",
"E. c #97755D",
"W. c #9A755C",
"Q. c #A56740",
"!. c #A26943",
"~. c #A16B4A",
"^. c #A86747",
"/. c #A4714C",
"(. c #AA714E",
"). c #A4785A",
"_. c #B0795B",
"`. c #806F68",
"'. c #837361",
"]. c #857566",
"[. c #957866",
"{. c #817B74",
"}. c #AC825E",
"|. c #9B8A6E",
" X c #958479",
".X c #988775",
"XX c #8B8969",
"oX c #B7896D",
"OX c #BA8A74",
"+X c #998D84",
"@X c #9C9584",
"#X c #999A87",
"$X c #A99D8C",
"%X c #ACA296",
"&X c #B5A799",
"*X c #BBB49E",
"=X c #BFB8A9",
"-X c #C3BAA8",
";X c #DEBFAC",
":X c #C6BEB3",
">X c #CEC5B8",
",X c #D8CAB5",
"<X c #DED1B8",
"1X c #EDCDB6",
"2X c #E3D6BE",
"3X c #E9D7BF",
"4X c #DCD2C2",
"5X c #E5D9C5",
"6X c #E5DAC9",
"7X c #EBE1D3",
"8X c None",
/* pixels */
"8X8X8X8X8X8X8X8X8X8X8X8X8X8X8X8X8X8X8X8X8X8X8X8X8X8X8X8X8X8X8X8X8X8X8X8X8X8X8X8X8X8X8X8X8X8X8X8X8X8X",
"8X8X8X8X8X8X8X8X8X8X8X8X8X8X8X8X8X8X8X8X8X8X8X8X8X8X8X8X8X8X8X8X8X8X8X8X8X8X8X8X8X8X8X8X8X8X8X8X8X8X",
"8X8X8X8X8X8X8X8X8X8X8X8X8X8X8X8X8X8X8X8X8X8X8X8X8X8X8X8X8X8X8X8X8X8X8X8X8X8X8X8X8X8X8X8X8X8X8X8X8X8X",
"8X8X8X8X8X8X8X8X8X8X8X8X8X8X8X8X8X8X8X8X8X8X8X8X8X8X8X8X8X8X8X8X8X8X8X8X8X8X8X8X8X8X8X8X8X8X8X8X8X8X",
"8X8X8X8X8X8X8X8X8X8X8X8X8X8X8X8X8X8X8X8X8X8X8X8X8X8X8X8X8X8X8X8X8X8X8X8X8X8X8X8X8X8X8X8X8X8X8X8X8X8X",
"8X8X8X8X8X8X8X8X8X8X8X8X8X8X8X8X8X8X8X8X8X8X8X8X8X8X8X8X8X8X8X8X8X8X8X8X8X8X8X8X8X8X8X8X8X8X8X8X8X8X",
"8X8X8X8X8X8X8X8XX 8X8X8X8X8X8X8X8X8X8X8X8X8X8X8X8X8X8X8X8X8X8X8X4 8X8X8X8X8X8X8X8X8X8X8X8X8X8X8X8X8X",
"8X8X8X8X8X8X8Xi =.8X8X8X8X8X8X8X8X8X8X8X8X8X8X8X8X8X8X8X8X8X8X8X* 7 8X8X8X8X8X8X8X8X8X8X8X8X8X8X8X8X",
"8X8X8X8X8X8X8Xu.g.8X8X8X8X8X8X8X8Xw e 0 0 0 0 q e 8X8X8X8X8X8X8X=.W 8X8X8X8X8X8X8X8X8X8X8X8X8X8X8X8X",
"8X8X8X8X8X8X8X{.&X$ 8X8X8X8X8X5 < D &.x.S.S.S.R.s.N u 8X8X8X8X5 f.,.8X8X8X8X8X8X8X8X8X8X8X8X8X8X8X8X",
"8X8X8X8X8X8XX g.4X+X1.-.,.i.{.K D L.I.Z.Z.!.B.P.}.E.S # G g g e.-X:.8X8X8X8X8X8X8X8X8X8X8X8X8X8X8X8X",
"8X8X8X8X8X8X8Xr.>X6X6X4X4X6X7X+XB 9.L.Q.C.!.P.m.Q./.W.) p.:X>X6X-XG 8X8X8X8X8X8X8X8X8X8X8X8X8X8X8X8X",
"8X8X8X8X8X8X8XJ *X,X5X5X2X2X5X XL &.Y C.Q.!.!.M.Q.Q.~.W.B %X6X,X@X0 8X8X8X8X8X8X8X8X8X8X8X8X8X8X8X8X",
"8X8X8X8X8X8X8Xw r.@X-X,X2X2X5Xa.D &.l.Q.!.!.~.M.P.Q.!.(.w.5.*X&Xu.6 8X8X8X8X8X8X8X8X8X8X8X8X8X8X8X8X",
"8X8X8X8X8X8X8X8X* 5 Q p..X$X%XK ` L.!.I.~.I.~.B.P.Z.C.~.E.V h.:.7 8X8X8X8X8X8X8X8X8X8X8X8X8X8X8X8X8X",
"8X8X8X8X8X8X8X8X4 @ @ e 1 q H b L.L.I.!.!.!.Q.Q.I.Q.C.I.[.q 4 8X8X8X8X8X8X8X8X8X8X8X8X8X8X8X8X8X8X8X",
"8X8X8X8X8X8X8X8X0 | b 1 F ] $.D.O.x M A ' $.v.P.^.F.$.A z r a 8X8X8X8X8X8X8X8X8X8X8X8X8X8X8X8X8X8X8X",
"8X8X8X8X8X8X8X8X5 %.F.O.< M U.Z.c ` $.U Z n l n v.b l D x.D.q 8X8X8X8X8X8X8X8X8X8X8X8X8X8X8X8X8X8X8X",
"8X8X8X8X8X8X8X8Xw I k.m.q.b D.P.l Z &.D.U.Y.&.< %.r H.T.X.m 9 8X8X8X8X8X8X8X8X8X8X8X8X8X8X8X8X8X8X8X",
"8X8X8X8X8X8X8X8X8X9 | O.$.&.D.Y. .b 5.C F Y ` n H.x I M 0.( * 8X8X8X8X8X8X8X8X8X8X8X8X8X8X8X8X8X8X8X",
"8X8X8X8X8X8X8X8X8Xf 4 l { j.O.T.9./ 1X;X&X`.9 ~ Y.U b &X3Xp.8X8X8X8X8X8X8X8X8X8X8X8X8X8X8X8X8X8X8X8X",
"8X8X8X8X8X8X8X8X8X8X8 ; ] +.A +.L.Z [.1X1X[.% L ] A ; `. Xs 8X8X8X8X8X8X8X8X8X8X8X8X8X8X8X8X8X8X8X8X",
"8X8X8X8X8X8X8X8X8X8X8X= I %.U U j.x.n / -., @ f h E * B N 3 8X8X8X8X8X8X8X8X8X8X8X8X8X8X8X8X8X8X8X8X",
"8X8X8X8X8X8X8X8X8X8X8X6 + P U r ..I.P.x.x.9.: e =.W 1 J.P e 8X8X8X8X8X8X8X8X8X8X8X8X8X4 w 7 8X8X8X8X",
"8X8X8X8X8X8X8X8X8X8X, 2 =   q P O.v.P.Q.Z.I.D.D r b &.G.l 8X8X8X8X8X8X8X8X8X8X8X8X6 0 p :.:.w 8X8X8X",
"8X8X8X8X8X8X8X8X8X6 Z x.D.` @ > l A O.v.I.Y.Y.I.F.P.Y.| 9 8X8X8X8X8X8X8X8X8X8X8X6 J 6.( V g.h 8X8X8X",
"8X8X8X8X8X8X8X8X8X6 Z P.^.F.z S.' z > x n U v.I.C.C.&.0 8X8X8X8X8X8X8X8X8X8X0 0 V 2.y.) 1 ,.r.7 8X8X",
"8X8X8X8X8X8X8X8Xq m X.I.Y.' Z I.Y.Y.S.@.P x > A z | : w 8X8X8X8X8X8X8X8X8X8Xq 6.4.y.y.2.( V W 6 8X8X",
"8X8X8X8X8X8X8X8X, ` D.!.Y.n O.~.C.Z.!.~.L.x.X.> : # q $ 8X8X8X8X8X8X8X8X8X= ( y.y.y.t.2.( y * 8X8X8X",
"8X8X8X8X8X8X8X8Xb &.B.C.z.x F.^.C.Z.C.^.M.v.Y.G.D.P 7.% 8 8X8X8X8X8X8X8X- ^ y.7.w.4.>.V = 7 8X8X8X8X",
"8X8X8X8X8Xw 6 . N @.U.!.$.m U.Q.!.I.!.C.n.C.Q.!.!.).S.@ w 7 8X8X8X8X8X= V t.y.#.( V 6 6 8X8X8X8X8X8X",
"8X8X8X8X8Xw h $ ; : m U n n K.V.C.Q.I.I.P.I.Q.^.(.).I q f.G 7 8X8X6 0 -.;.6._ V 6 6 8X8X8X8X8X8X8X8X",
"8X8X8X8X8X8 & u ^ _ / K H r @.z.N.V.!.!.!.~.(._.oXE.2 5.K : = 0 = p -.>.( p 6 5 8X8X8X8X8X8X8X8X8X8X",
"8X8X8X8X8X8Xg # , H ;.5.5.< O.[ b.V.Z.!.D.c.L./.OX#.= q n S.S.9 p >.! 0 , 0 8X8X8X8X8X8X8X8X8X8X8X8X",
"8X8X8X8X8X8X: | X.Z n b @ , I  .*.N.b.] B ( m  .2.0   P T.~.I.M 0 w - 8X8X8X8X8X8X8X8X8X8X8X8X8X8X8X",
"8X8X8X8X8X8Xm J.I.!.!.U.~ + = 5 0 p y = d.$X,.* T T = ` P.b.v.%.@ f 8X8X8X8X8X8X8X8X8X8X8X8X8X8X8X8X",
"8X8X8X8X8X0 S L.!.C.C.Y.X.+ 0 0 y T t & <.#Xu.4 i 2 O R $.[ +.U w 8X8X8X8X8X8X8X8X8X8X8X8X8X8X8X8X8X",
"8X8X8X8X8X0 S l.n.Z.!.T.1 V ( ,.6.6.t.>.- h.E t.].( 0 %.O.$.' , 8X8X8X8X8X8X8X8X8X8X8X8X8X8X8X8X8X8X",
"8X8X8X8X8X6 V %.$.G.H.@.: 6.d.d.XX|.|.|.6.E >.[.t.# % o.%.S : 8X8X8X8X8X8X8X8X8X8X8X8X8X8X8X8X8X8X8X",
"8X8X8X8X8X8X0 u u u q @ @ 2 ! _ 4.s.].'.a.t.>.V u F @ 0 u - 8X8X8X8X8X8X8X8X8X8X8X8X8X8X8X8X8X8X8X8X",
"8X8X8X8X8X8X8X8X8X8X8Xw q S L q @ . $ 4 o ; m #.R. .9 8X8X8X8X8X8X8X8X8X8X8X8X8X8X8X8X8X8X8X8X8X8X8X",
"8X8X8X8X8X8X8X8X8X8X8X8Xq ~ S q 4 j a 8 $ = r S ..B 8X8X8X8X8X8X8X8X8X8X8X8X8X8X8X8X8X8X8X8X8X8X8X8X",
"8X8X8X8X8X8X8X8X8X8X8X8X$ ; p =.h j f X f g G p u 0 8X8X8X8X8X8X8X8X8X8X8X8X8X8X8X8X8X8X8X8X8X8X8X8X",
"8X8X8X8X8X8X8X8X8X8X8X8X= p G i 5 7 8Xf 5 5 f 7 J J 4 8X8X8X8X8X8X8X8X8X8X8X8X8X8X8X8X8X8X8X8X8X8X8X",
"8X8X8X8X8X8X8X8X8X8X8X8Xf 5 7 8X8X8X8X8X8X8X8Xa d 4 8X8X8X8X8X8X8X8X8X8X8X8X8X8X8X8X8X8X8X8X8X8X8X8X",
"8X8X8X8X8X8X8X8X8X8X8X8X8X8X8X8X8X8X8X8X8X8X8X8X8X8X8X8X8X8X8X8X8X8X8X8X8X8X8X8X8X8X8X8X8X8X8X8X8X8X",
"8X8X8X8X8X8X8X8X8X8X8X8X8X8X8X8X8X8X8X8X8X8X8X8X8X8X8X8X8X8X8X8X8X8X8X8X8X8X8X8X8X8X8X8X8X8X8X8X8X8X",
"8X8X8X8X8X8X8X8X8X8X8X8X8X8X8X8X8X8X8X8X8X8X8X8X8X8X8X8X8X8X8X8X8X8X8X8X8X8X8X8X8X8X8X8X8X8X8X8X8X8X",
"8X8X8X8X8X8X8X8X8X8X8X8X8X8X8X8X8X8X8X8X8X8X8X8X8X8X8X8X8X8X8X8X8X8X8X8X8X8X8X8X8X8X8X8X8X8X8X8X8X8X",
"8X8X8X8X8X8X8X8X8X8X8X8X8X8X8X8X8X8X8X8X8X8X8X8X8X8X8X8X8X8X8X8X8X8X8X8X8X8X8X8X8X8X8X8X8X8X8X8X8X8X"
};
