/* XPM */
static char *result[] = {
/* columns rows colors chars-per-pixel */
"50 50 206 2 ",
"   c #1D1C1B",
".  c #22150F",
"X  c #28160D",
"o  c #241A14",
"O  c #2D1D15",
"+  c #241E1A",
"@  c #2C1F19",
"#  c #211711",
"$  c #321E1B",
"%  c #2B231E",
"&  c #272419",
"*  c #342116",
"=  c #3C2216",
"-  c #34241C",
";  c #3C251B",
":  c #3B291E",
">  c #1F2021",
",  c #252322",
"<  c #2B2623",
"1  c #2C2A25",
"2  c #2D2C2B",
"3  c #332621",
"4  c #332B24",
"5  c #3C2C23",
"6  c #332E2A",
"7  c #392C28",
"8  c #392121",
"9  c #333125",
"0  c #3B3126",
"q  c #33302C",
"w  c #3C322B",
"e  c #3A3A2E",
"r  c #363333",
"t  c #3A3633",
"y  c #3D3934",
"u  c gray22",
"i  c #41271B",
"p  c #442C1E",
"a  c #442D22",
"s  c #4B2D21",
"d  c #433126",
"f  c #4C3223",
"g  c #43342B",
"h  c #4B342A",
"j  c #44382D",
"k  c #4B392E",
"l  c #453826",
"z  c #533424",
"x  c #53362C",
"c  c #533B2D",
"v  c #5B3B2B",
"b  c #5E3827",
"n  c #433B33",
"m  c #4C3B31",
"M  c #423D39",
"N  c #473430",
"B  c #513B30",
"V  c #5E3F31",
"C  c #633B24",
"Z  c #633D2A",
"A  c #613B30",
"S  c #3E412E",
"D  c #5C402E",
"F  c #4B4235",
"G  c #4B443E",
"H  c #464332",
"J  c #554335",
"K  c #5D4232",
"L  c #53453C",
"P  c #53493B",
"I  c #584B38",
"U  c #64412D",
"Y  c #6A452E",
"T  c #77472B",
"R  c #74492E",
"E  c #7D4D2D",
"W  c #7C4825",
"Q  c #654333",
"!  c #6A4632",
"~  c #6D4C35",
"^  c #6A4739",
"/  c #634D3B",
"(  c #744E34",
")  c #7B4E35",
"_  c #754E3A",
"`  c #64543E",
"'  c #6D513A",
"]  c #7D5336",
"[  c #75523B",
"{  c #7C543B",
"}  c #534A42",
"|  c #5D4E42",
" . c #5A4A44",
".. c #4F524A",
"X. c #5C5244",
"o. c #57534E",
"O. c #5A534D",
"+. c #5E5D55",
"@. c #494945",
"#. c #644C43",
"$. c #645543",
"%. c #6A5343",
"&. c #6E5E49",
"*. c #67584A",
"=. c #7F5542",
"-. c #745E47",
";. c #735E4A",
":. c #775748",
">. c #625C55",
",. c #695A52",
"<. c #5E6254",
"1. c #6C614D",
"2. c #72614B",
"3. c #74654B",
"4. c #6A6153",
"5. c #6B655D",
"6. c #606059",
"7. c #746351",
"8. c #746C5C",
"9. c #7C6B5C",
"0. c #7A6856",
"q. c #79725D",
"w. c #736B64",
"e. c #7E796D",
"r. c #7A7669",
"t. c #8F5829",
"y. c #94572E",
"u. c #814F38",
"i. c #825233",
"p. c #8E5937",
"a. c #82563B",
"s. c #85593C",
"d. c #8B5B3D",
"f. c #885737",
"g. c #9B5F3B",
"h. c #925D36",
"j. c #93613D",
"k. c #9B633E",
"l. c #9E6334",
"z. c #A5663D",
"x. c #A4693D",
"c. c #845B43",
"v. c #845F4B",
"b. c #875A42",
"n. c #8B6243",
"m. c #8B6449",
"M. c #8E6B4F",
"N. c #886549",
"B. c #956443",
"V. c #9B6642",
"C. c #9E6945",
"Z. c #93674A",
"A. c #95694C",
"S. c #9D6A4B",
"D. c #9B6948",
"F. c #8A6A58",
"G. c #946C52",
"H. c #9C6B51",
"J. c #99755D",
"K. c #A26742",
"L. c #A26943",
"P. c #A26B4A",
"I. c #AA734F",
"U. c #A5704A",
"Y. c #A16F51",
"T. c #AA7450",
"R. c #AE7D5C",
"E. c #837863",
"W. c #9E7A61",
"Q. c #897D72",
"!. c #917E71",
"~. c #A17B65",
"^. c #B07E62",
"/. c #9B8C6C",
"(. c #8D857B",
"). c #8B8675",
"_. c #938776",
"`. c #A18068",
"'. c #A18476",
"]. c #BB8F71",
"[. c #958F84",
"{. c #9B9688",
"}. c #A39E95",
"|. c #B89A88",
" X c #ADA396",
".X c #A7A095",
"XX c #B8AE9E",
"oX c #B8B1A8",
"OX c #D2B19D",
"+X c #C3B9AA",
"@X c #CAB8A8",
"#X c #D0B7A6",
"$X c #CCBEB1",
"%X c #D6C9B4",
"&X c #DDD1BE",
"*X c #ECCFBB",
"=X c #E4D4BD",
"-X c #EADCBF",
";X c #E5D8B9",
":X c #DCCEC2",
">X c #DAD3C4",
",X c #E5D5C2",
"<X c #EBDBC3",
"1X c #E7D7C8",
"2X c #F5DAC5",
"3X c None",
/* pixels */
"3X3X3X3X3X3X3X3X3X3X3X3X3X3X3X3X3X3X3X3X3X3X3X3X3X3X3X3X3X3X3X3X3X3X3X3X3X3X3X3X3X3X3X3X3X3X3X3X3X3X",
"3X3X3X3X3X3X3X3X3X3X3X3X3X3X3X3X3X3X3X3X3X3X3X3X3X3X3X3X3X3X3X3X3X3X3X3X3X3X3X3X3X3X3X3X3X3X3X3X3X3X",
"3X3X3X3X3X3X3X3X3X3X3X3X3X3X3X3X3X3X3X3X3X3X3X3X3X3X3X3X3X3X3X3X3X3X3X3X3X3X3X3X3X3X3X3X3X3X3X3X3X3X",
"3X3X3X3X3X3X3X3X3X3X3X3X3X3X3X3X3X3X3X3X3X3X3X3X3X3X3X3X3X3X3X3X3X3X3X3X3X3X3X3X3X3X3X3X3X3X3X3X3X3X",
"3X3X3X3X3X3X3X3X3X3X3X3X3X3X3X3X3X3X3X3X3X3X3X3X3X3X3X3X3X3X3X3X3X3X3X3X3X3X3X3X3X3X3X3X3X3X3X3X3X3X",
"3X3X3X3X3X3X3X3X3X3X3X3X3X3X3X3X3X3X3X3X3X3X3X3X3X3X3X3X3X3X3X1 3X3X3X3X3X3X3X3X3X3X3X3X3X3X3X3X3X3X",
"3X3X3X3X3X3X3X3X3X3X3X3X3X3X3X3X3X3X3X3X3X3X3X3X3X3X3X3X3X3X3X, 2 3X3X3X3X3X3X3X3X3X3X3X3X3X3X3X3X3X",
"3X3X3X3X3X+ }.G 3X3X3X3X3X3X3X7 3 3 5 a w g 0 4 3X3X3X3X3X3X3X+.r 3X3X3X3X3X3X3X3X3X3X3X3X3X3X3X3X3X",
"3X3X3X3X3X1 .X_.+ 3X3X3Xu u % c b.n.B.V.V.Z.J.F.g 4 3X3X3X3X4 (.6 3X3X3X3X3X3X3X3X3X3X3X3X3X3X3X3X3X",
"3X3X3X3X3X1 {.1X+X(.e.). XoX} _ j.x.x.x.x.g.L.^.W.j < o.O.>.[. X1 3X3X3X3X3X3X3X3X3X3X3X3X3X3X3X3X3X",
"3X3X3X3X3X< Q.&X<X<X<X-X<X1X,.( f.j.L.L.x.k.g.S.H.~.k (.:X=X1X[.2 3X3X3X3X3X3X3X3X3X3X3X3X3X3X3X3X3X",
"3X3X3X3X3X3XG XX%X=X;X;X,X>X*.{ C ) Y.C.L.k.h.L.V.P.A.L $X=X@X5.1 3X3X3X3X3X3X3X3X3X3X3X3X3X3X3X3X3X",
"3X3X3X3X3X3X1 G E..XoX%X&X+Xk _ d.V.P.K.L.x.h.V.C.z.T.V r.XX{.n 3X3X3X3X3X3X3X3X3X3X3X3X3X3X3X3X3X3X",
"3X3X3X3X3X3X3Xo   6 L 2.).w.a f.L.x.z.z.z.z.k.z.C.C.T.N.n >.n 4 3X3X3X3X3X3X3X3X3X3X3X3X3X3X3X3X3X3X",
"3X3X3X3X3X3X3X< @ $ d p s p ' B.s.n.Z.C.L.L.K.L.L.S.G.:.# 1 3X3X3X3X3X3X3X3X3X3X3X3X3X3X3X3X3X3X3X3X",
"3X3X3X3X3X3X3Xm c.x 3 h f.V.m.p ; p f z Y ] B.k.] b a p a q 3X3X3X3X3X3X3X3X3X3X3X3X3X3X3X3X3X3X3X3X",
"3X3X3X3X3X3X3X7 =.D.{ ; Z L.a.i v.b.a.Y c : D ! = A =.n.~ 7 3X3X3X3X3X3X3X3X3X3X3X3X3X3X3X3X3X3X3X3X",
"3X3X3X3X3X3X3X< Z i.d.[ ! S.s.$ f Z f.V.G.v v U v F.=.z O 3X3X3X3X3X3X3X3X3X3X3X3X3X3X3X3X3X3X3X3X3X",
"3X3X3X3X3X3X3X3X- K ~ ] i.V.G.z ,.9.#.h m ; _ ) $ h #.!.n 3X3X3X3X3X3X3X3X3X3X3X3X3X3X3X3X3X3X3X3X3X",
"3X3X3X3X3X3X3X3X4 o f W W T G.Z F.2X*X#X9.; m.B.p ,.<X@X6 3X3X3X3X3X3X3X3X3X3X3X3X3X3X3X3X3X3X3X3X3X",
"3X3X3X3X3X3X3X3X3X, h ( T C s.s.s '.OX|.B $ k k 4 4 F.} 1 3X3X3X3X3X3X3X3X3X3X3X3X3X3X3X3X3X3X3X3X3X",
"3X3X3X3X3X3X3X3X3X3X% D ( z Z d.c.x f m % 6 @.o.M 8 V - 3X3X3X3X3X3X3X3X3X3X3X3X3X3X3X3X3X3X3X3X3X3X",
"3X3X3X3X3X3X3X3X3X3X% o k k z f.H.D.V.A.^ $ 7 m 3 ^ N.3 3X3X3X3X3X3X3X3X3X3X3X3X3X3X3X3X3X3X3X3X3X3X",
"3X3X3X3X3X3X3X3X3X- & * # - Z ) d.V.z.K.D.b.A p Q H.v 6 3X3X3X3X3X3X3X3X3X3X3X3X3X3X3X3X3X3X3X3X3X3X",
"3X3X3X3X3X3X3X3X1 f { b.z @ ; ; z Y a.B.C.C.L.x.S.c.; 3X3X3X3X3X3X3X3X3X3X3X3X3X3X, 1 9 3X3X3X3X3X3X",
"3X3X3X3X3X3X3X3X3 Z V.L.) f m._ z ; = ; D d.j.B.c.f w 3X3X3X3X3X3X3X3X3X3X3X3X< w H y +.2 3X3X3X3X3X",
"3X3X3X3X3X3X3X3X4 Z V.K.i.z V.L.L.j.s.U ; : ; h 5 o 3X3X3X3X3X3X3X3X3X3X3X% 1 F *.X.0 w.M 3X3X3X3X3X",
"3X3X3X3X3X3X3X3X7 ! V.P.T z L.L.x.L.L.p.d.Y i * 3 n 6 3X3X3X3X3X3X3X3X3X1 L P *.2.` : O.>.1 3X3X3X3X",
"3X3X3X3X3X3X3X3Xd _ C.P.R z P.L.L.P.K.y.z.K.V.s.7.L o 3X3X3X3X3X3X3X3X% L 7.-.3.2.` I w o.< 3X3X3X3X",
"3X3X3X3X3X3X3X3Xf i.K.P.a.s V.z.L.L.V.k.S.S.L.C.~.k < 6 3X3X3X3X3Xq 1 P 2.2.:.2.-.$.L 0 & r 3X3X3X3X",
"3X3X3X3X3X3Xq , 5 Z _ ^ z O ] K.K.K.C.S.L.P.I.^.J.7 5.2 3X3X3X3X% 3 P 3.&.$.X.I F 6 < 6 3X3X3X3X3X3X",
"3X3X3X3X3X2 u > > - 8 a } G z B.L.K.z.x.K.I.R.].%.- 7 + t 3X1 4 L X.` ` I F 0 3 1 3X3X3X3X3X3X3X3X3X",
"3X3X3X3X3Xq u , M L %.,.*.N a n.C.P.B.R C ] G.W.w X Y c.p & n  .| P H 0 1 % 1 3X3X3X3X3X3X3X3X3X3X3X",
"3X3X3X3X3X3X2 2 + $ 8 8 s ; p [ ( ~ f X.8.e : e 9 % { P.D 1 G l 6 % 6 1 3X3X3X3X3X3X3X3X3X3X3X3X3X3X",
"3X3X3X3X3X3X3XM a { a.b.k.N.: 5 e 9 9 r.[.<.& S e o U h.' + < 4 3X3X3X3X3X3X3X3X3X3X3X3X3X3X3X3X3X3X",
"3X3X3X3X3X3X3Xq U P.L.L.L.M.: < e 9 & G }.o.e P H % ~ ] ^ < 3X3X3X3X3X3X3X3X3X3X3X3X3X3X3X3X3X3X3X3X",
"3X3X3X3X3X3X3X6 Q B.x.x.x.A.a ` q.q.8.0 } j E._.l < %.A ; 3X3X3X3X3X3X3X3X3X3X3X3X3X3X3X3X3X3X3X3X3X",
"3X3X3X3X3X3X3X6 m i.t.l.x.{ - 0./././.E.1.7.3.l i - j 8 3X3X3X3X3X3X3X3X3X3X3X3X3X3X3X3X3X3X3X3X3X3X",
"3X3X3X3X3X3X3X3X5 ^ ~ Q f X & P $.4.4.X.F d 5 Q c.- 1 3X3X3X3X3X3X3X3X3X3X3X3X3X3X3X3X3X3X3X3X3X3X3X",
"3X3X3X3X3X3X3X3X6 - - ; c J m 3 & r 2 & 5 K c.H.A.7 3X3X3X3X3X3X3X3X3X3X3X3X3X3X3X3X3X3X3X3X3X3X3X3X",
"3X3X3X3X3X3X3X3X3Xn @ d m k k 3 q 3X3Xq < 3 g x B 3 3X3X3X3X3X3X3X3X3X3X3X3X3X3X3X3X3X3X3X3X3X3X3X3X",
"3X3X3X3X3X3X3X3X3X3X, 0 g j y } 2 3X3X< 6 7 g w n r 3X3X3X3X3X3X3X3X3X3X3X3X3X3X3X3X3X3X3X3X3X3X3X3X",
"3X3X3X3X3X3X3X3X3X3X, t y t < u 1 3X3X< 6 6 y 1 r n 2 3X3X3X3X3X3X3X3X3X3X3X3X3X3X3X3X3X3X3X3X3X3X3X",
"3X3X3X3X3X3X3X3X3X3Xr , & 3X3X3X3X3X3X3X3X3X3X< , , 3X3X3X3X3X3X3X3X3X3X3X3X3X3X3X3X3X3X3X3X3X3X3X3X",
"3X3X3X3X3X3X3X3X3X3X3X3X3X3X3X3X3X3X3X3X3X3X3X3X3X3X3X3X3X3X3X3X3X3X3X3X3X3X3X3X3X3X3X3X3X3X3X3X3X3X",
"3X3X3X3X3X3X3X3X3X3X3X3X3X3X3X3X3X3X3X3X3X3X3X3X3X3X3X3X3X3X3X3X3X3X3X3X3X3X3X3X3X3X3X3X3X3X3X3X3X3X",
"3X3X3X3X3X3X3X3X3X3X3X3X3X3X3X3X3X3X3X3X3X3X3X3X3X3X3X3X3X3X3X3X3X3X3X3X3X3X3X3X3X3X3X3X3X3X3X3X3X3X",
"3X3X3X3X3X3X3X3X3X3X3X3X3X3X3X3X3X3X3X3X3X3X3X3X3X3X3X3X3X3X3X3X3X3X3X3X3X3X3X3X3X3X3X3X3X3X3X3X3X3X",
"3X3X3X3X3X3X3X3X3X3X3X3X3X3X3X3X3X3X3X3X3X3X3X3X3X3X3X3X3X3X3X3X3X3X3X3X3X3X3X3X3X3X3X3X3X3X3X3X3X3X",
"3X3X3X3X3X3X3X3X3X3X3X3X3X3X3X3X3X3X3X3X3X3X3X3X3X3X3X3X3X3X3X3X3X3X3X3X3X3X3X3X3X3X3X3X3X3X3X3X3X3X"
};
