/* XPM */
static char *_4056853b0324540b78617a4636fe385FpiM6VmWO3OIfYAH[] = {
/* columns rows colors chars-per-pixel */
"50 50 211 2 ",
"   c None",
".  c #1B160D",
"X  c #1D1713",
"o  c #1C1A19",
"O  c #1C1814",
"+  c #251B0F",
"@  c #251610",
"#  c #241A14",
"$  c #2A1C14",
"%  c #241E1B",
"&  c #2B1D1D",
"*  c #1E231B",
"=  c #23211D",
"-  c #2C241C",
";  c #2E281F",
":  c #2D2116",
">  c #342217",
",  c #3B2216",
"<  c #33241C",
"1  c #3D251C",
"2  c #3B2C1E",
"3  c #342B1E",
"4  c #231E25",
"5  c #242424",
"6  c #2B2622",
"7  c #2C2924",
"8  c #2B2B2A",
"9  c #262A2B",
"0  c #332622",
"q  c #332A24",
"w  c #3B2B23",
"e  c #322D2A",
"r  c #392D2A",
"t  c #3A2420",
"y  c #2E362B",
"u  c #343026",
"i  c #3D3127",
"p  c #33322E",
"a  c #3D342C",
"s  c #2A2D30",
"d  c #312F31",
"f  c #2F3031",
"g  c #353433",
"h  c #3B3632",
"j  c #3C3936",
"k  c #3D3C3A",
"l  c #373A30",
"z  c #442B1C",
"x  c #4A2C1E",
"c  c #402816",
"v  c #532E1B",
"b  c #5A3B1F",
"n  c #442D23",
"m  c #4B2E21",
"M  c #443123",
"N  c #4D3225",
"B  c #43332A",
"V  c #4C362A",
"C  c #44392D",
"Z  c #4D3B2E",
"A  c #553424",
"S  c #5B3925",
"D  c #533B2C",
"F  c #5C3B2B",
"G  c #563725",
"H  c #433B34",
"J  c #4B3A33",
"K  c #453F3B",
"L  c #4D3F38",
"P  c #523C31",
"I  c #5C3E33",
"U  c #503730",
"Y  c #633F2A",
"T  c #653B24",
"R  c #374035",
"E  c #5D422D",
"W  c #444235",
"Q  c #44413D",
"!  c #4C433E",
"~  c #494034",
"^  c #5D4335",
"/  c #53453B",
"(  c #5A443A",
")  c #55493C",
"_  c #5B4B3C",
"`  c #594836",
"'  c #65432C",
"]  c #6A422B",
"[  c #6A492C",
"{  c #7B4F2B",
"}  c #774723",
"|  c #7A502E",
" . c #624333",
".. c #664A34",
"X. c #6D4B35",
"o. c #6C4C3A",
"O. c #684436",
"+. c #754C34",
"@. c #7A4E31",
"#. c #734E3B",
"$. c #6C513D",
"%. c #7B5234",
"&. c #74513C",
"*. c #7B543C",
"=. c #785639",
"-. c #484444",
";. c #534B44",
":. c #5C4C41",
">. c #544D48",
",. c #5B5144",
"<. c #5A544B",
"1. c #545C49",
"2. c #5F5851",
"3. c #645544",
"4. c #6B5444",
"5. c #6B5944",
"6. c #65534C",
"7. c #645A4C",
"8. c #6D5D4C",
"9. c #695749",
"0. c #7E5A45",
"q. c #725D4A",
"w. c #7C5C4C",
"e. c #725644",
"r. c #645D55",
"t. c #615D58",
"y. c #6E604A",
"u. c #74604C",
"i. c #64615B",
"p. c #6A675C",
"a. c #71655A",
"s. c #7C6D5E",
"d. c #776755",
"f. c #73745F",
"g. c #756C62",
"h. c #7B746D",
"j. c #767864",
"k. c #88522C",
"l. c #8E4E3C",
"z. c #865433",
"x. c #8B5935",
"c. c #83553B",
"v. c #855A3B",
"b. c #8B5B3C",
"n. c #885935",
"m. c #9A5D33",
"M. c #955D3A",
"N. c #955A37",
"B. c #8D603F",
"V. c #9D643E",
"C. c #9F6A3C",
"Z. c #A4663D",
"A. c #A4693E",
"S. c #A86A38",
"D. c #845B42",
"F. c #8C5D43",
"G. c #945D45",
"H. c #896244",
"J. c #86634B",
"K. c #8E6449",
"L. c #8E694A",
"P. c #946445",
"I. c #9C6542",
"U. c #9D6944",
"Y. c #96694A",
"T. c #9C6B4A",
"R. c #96664B",
"E. c #8F6A51",
"W. c #97755D",
"Q. c #9A755C",
"!. c #A56740",
"~. c #A26943",
"^. c #A16B4A",
"/. c #A86747",
"(. c #A4714C",
"). c #AA714E",
"_. c #A4785A",
"`. c #B0795B",
"'. c #806F68",
"]. c #837361",
"[. c #857566",
"{. c #957866",
"}. c #817B74",
"|. c #AC825E",
" X c #9B8A6E",
".X c #958479",
"XX c #988775",
"oX c #8B8969",
"OX c #B7896D",
"+X c #BA8A74",
"@X c #998D84",
"#X c #9C9584",
"$X c #999A87",
"%X c #A99D8C",
"&X c #ACA296",
"*X c #B5A799",
"=X c #BBB49E",
"-X c #BFB8A9",
";X c #C3BAA8",
":X c #DEBFAC",
">X c #C6BEB3",
",X c #CEC5B8",
"<X c #D8CAB5",
"1X c #DED1B8",
"2X c #EDCDB6",
"3X c #E3D6BE",
"4X c #E9D7BF",
"5X c #DCD2C2",
"6X c #E5D9C5",
"7X c #E5DAC9",
"8X c #EBE1D3",
/* pixels */
"                                                                                                    ",
"                                                                                                    ",
"                                                                                                    ",
"                                                                                                    ",
"                                                                                                    ",
"                                                                                                    ",
"                                  5                                               o                 ",
"                                8 =                                               -.p               ",
"                                Q -.              r r q q q q r q                 h.i.              ",
"                                <.g.6         r B d.E.D.D.v.c.=.E 1 6           % *X}.              ",
"                                >.-Xr.h h H $ D W.|.U.V.!.A.!.~.P.F / }.p.<.;.<.@X5Xh.o             ",
"                                H ;X6X,X>Xa.^ _.(.~.M.I.~.!.!.P.0.V @X8X7X5X5X7X7X<Xt.              ",
"                                e #X<X6X*XV Q.^.!.Z.N.~.~.!.Z.T *.P .X6X3X3X6X6X1X*XK               ",
"                                7 i.*X=X6.e._.!.!.V.M.~.~.~.~.z.*.F s.6X3X1X<X;X#Xr.e               ",
"                                  7 <.g.C W.^.Z.A.I.I.^.U.U.~.~.P.T L &X%X.Xa.! 6 =                 ",
"                                      5 w {.U.A.~.U.!.!.~.~.U.U.I.P.n H n w q # # 5                 ",
"                                      s t x S %.P./.I.b.%.] S N z +.B.=.X.G < m ..q                 ",
"                                      w F.c.Y z z b.N 1 m A ] %.' v ~.Y.N 1 +.P.&.6                 ",
"                                      0 n o.K.J.1 &.1 *.U.Y.H.=.A z I.F.n w.M.n.P e                 ",
"                                      = ) 8.N U 1 J.m Y T A Z 6.w o.T.F.*.%.@.^ 6                   ",
"                                        a.4X*Xr Y T.^ < '.*X:X<X^ 0.R.@.{ } z = g                   ",
"                                        d .X'.> S [ P : .X2X2X{.A P.@.S @.[ : 5                     ",
"                                        4 B V = W k g # < ( ( N c.k.Y ] &.D ;                       ",
"        9 e 5                           r I H.2 K -.r > *.v.n.I.U.+.1 F D # 7                       ",
"      e >.>.a r 7                         1 F.*.n 1 F D.U.A.A.U.b.+.I w . - 3 <                     ",
"      h h.C ) 7.H 7                       q  .T.I.I.T.^.T.P.b.+.F z > @ Y F.c.A 7                   ",
"    9 t.<.2 _ y.3.C q q                     q *.Z.V.U.b.] m 1 , x ] D.m l./.V.G 7                   ",
"    7 Q a ) 5.u.u.5.9.r                     e >  .x S , 1 F #.D.Y.T.T.A ] T.Y.#.B w                 ",
"      = u ) 3.q.q.u.u.) ;                   # r # > , o.c.P.^.~.A.A.~.+.x Y.~.b. .<                 ",
"        7 - C ,.3.5.q.u./ ;               6 < q. .F.B.T.b.N.!.Z.A.~./.G.c x.S.I.&.M                 ",
"            7 7 H ) 3.8.8.C -           e q @ w._.~.~.~.Z.m.Z.~.~.~.!.Y.M %.~.Y.#.B X 7 7           ",
"                6 q C ) 3.:.;.q q     9 H g.r D _.^.!.!.~.U.U.U.!.Z.C.L.n N F N > : % j e           ",
"                    6 7 a ) ,.,.a - u ; - P 6.q W.OX`.).~.~.~.~.U.M.x.=., J J ( ` / a * 9           ",
"                        q ; q H ,.a < D.D.m q - 4.+X(.P.c.F.~.!.U.n.| X.1 6.6.:.J < $ a             ",
"                              ; e q N U.^.R.^ . 6 3...M ) V ' v.v.=...Z < @ n m A o. .<             ",
"                                g # #.b.n.I.' - W R = <.$Xf.- u a w ; - @ ^ Y.U.~.^.K.M             ",
"                                  q E @.{ %.E + 3 p 5 i.$X1.* y l u q q @ X.T.Z.Z.~.P.D r           ",
"                                    < ] %.+.&.q ) [.y.W j.7 3.8.7.7.<.;.H z Y.~.A.m.c.D r           ",
"                                      > I #.O.& $ q.{.3.~ 7.XX X XoXj.p.2.> #.K.H.%.&.B 7           ",
"                                        ; i q # V w a ,.d.s.].].d.5.` Z q # @ w i a n 7             ",
"                                              0 O.E.$.M - O 5 = X # w P D w e                       ",
"                                                V X.D w : % 9 8 k 6 q P ^ w                         ",
"                                                q i B H h p o g k j ! B < $                         ",
"                                              5 Q K 9 g 6 7 g   9 5 p H a -                         ",
"                                                5 f 9                 8 6 p                         ",
"                                                                                                    ",
"                                                                                                    ",
"                                                                                                    ",
"                                                                                                    ",
"                                                                                                    "
};
