/* XPM */
static char *_2db088925b7490283995e10d95f8740JG8OekubecMBofju[] = {
/* columns rows colors chars-per-pixel */
"50 50 177 2 ",
"   c None",
".  c #2E381E",
"X  c #35371F",
"o  c #323B1C",
"O  c #2F3725",
"+  c #2E3923",
"@  c #2D392A",
"#  c #323624",
"$  c #333924",
"%  c #3D3B20",
"&  c #33352A",
"*  c #38372A",
"=  c #35392B",
"-  c #393A2E",
";  c #3A3B31",
":  c #45371E",
">  c #49351F",
",  c #44391B",
"<  c #473621",
"1  c #4A3523",
"2  c #433821",
"3  c #463528",
"4  c #493529",
"5  c #3A4616",
"6  c #394B17",
"7  c #35471B",
"8  c #3B451C",
"9  c #374A1D",
"0  c #3B491D",
"q  c #364523",
"w  c #3C4522",
"e  c #3B4920",
"r  c #354629",
"t  c #3E462B",
"y  c #354634",
"u  c #4D421D",
"i  c #414F1B",
"p  c #415A17",
"a  c #44561B",
"s  c #4B531B",
"d  c #464227",
"f  c #454F21",
"g  c #4E472E",
"h  c #404928",
"j  c #4B482C",
"k  c #41432B",
"l  c #445322",
"z  c #495324",
"x  c #5B5423",
"c  c #454A3D",
"v  c #484A3D",
"b  c #474839",
"n  c #514432",
"m  c #4E5537",
"M  c #4F5538",
"N  c #4F583A",
"B  c #615134",
"V  c #5C5F4F",
"C  c #5C5E51",
"Z  c #B33F38",
"A  c #9E452D",
"S  c #9C4533",
"D  c #974833",
"F  c #96473A",
"G  c #9C433A",
"H  c #B3422B",
"J  c #A24233",
"K  c #AF4334",
"L  c #B24234",
"P  c #B04139",
"I  c #76893E",
"U  c #7D953C",
"Y  c #7E983C",
"T  c #788747",
"R  c #758945",
"E  c #798847",
"W  c #7A8749",
"Q  c #7E9345",
"!  c #7F9843",
"~  c #749649",
"^  c #789548",
"/  c #81953E",
"(  c #8A9E3C",
")  c #85A23C",
"_  c #89A33D",
"`  c #819444",
"'  c #869E44",
"]  c #8A9F43",
"[  c #829449",
"{  c #8B9F4C",
"}  c #9B9F47",
"|  c #9C9E4E",
" . c #8C9C51",
".. c #8B9E5B",
"X. c #969F55",
"o. c #86A142",
"O. c #8AA243",
"+. c #89A14B",
"@. c #96A047",
"#. c #94AE46",
"$. c #97A34C",
"%. c #99A048",
"&. c #94AD4C",
"*. c #9BAC4C",
"=. c #9CBB46",
"-. c #9AB74B",
";. c #9DBA4C",
":. c #8EA050",
">. c #8FAB5D",
",. c #94AC52",
"<. c #9EAF55",
"1. c #94A65D",
"2. c #94A85C",
"3. c #9CB652",
"4. c #9DBA52",
"5. c #A2BE46",
"6. c #A0BD4A",
"7. c #A0BB4F",
"8. c #A0BC4D",
"9. c #A0BC4F",
"0. c #A2BC4E",
"q. c #A0BC4C",
"w. c #A2AE57",
"e. c #A4AA5A",
"r. c #A2B551",
"t. c #A1BC50",
"y. c #A1BB52",
"u. c #ABBB55",
"i. c #A7B65E",
"p. c #ACBD5B",
"a. c #B3BD54",
"s. c #95A763",
"d. c #97A960",
"f. c #A0A961",
"g. c #B9BC61",
"h. c #BEB876",
"j. c #B5B078",
"k. c #BFBB7C",
"l. c #B9B8B1",
"z. c #C1BE80",
"x. c #CBBB82",
"c. c #CAB688",
"v. c #C6B889",
"b. c #C9B786",
"n. c #D0BC80",
"m. c #D2BD88",
"M. c #DDBB94",
"N. c #DEB99A",
"B. c #E0BC8F",
"V. c #DAC590",
"C. c #D2C991",
"Z. c #E0C697",
"A. c #E5C79C",
"S. c #E3C99C",
"D. c #EDD393",
"F. c #F2D69B",
"G. c #F0D99A",
"H. c #F2D695",
"J. c #E7C8A1",
"K. c #FDD5A5",
"L. c #FED8A4",
"P. c #FFD6AB",
"I. c #FED9A9",
"U. c #F5D2AA",
"Y. c #DCDED0",
"T. c #DFE1D2",
"R. c #E4EBCC",
"E. c #E7ECD3",
"W. c #EAEAE6",
"Q. c #ECECE4",
"!. c #E5EAE8",
"~. c #EBEBEA",
"^. c #F3F6E2",
"/. c #F1F5E6",
"(. c #F2F5E6",
"). c #F3F6E9",
"_. c #FDFEFE",
/* pixels */
"                                                                                                    ",
"                                                                                                    ",
"                                                                                                    ",
"                                                                                                    ",
"                                                                                                    ",
"                                                                                                    ",
"                                                                                                    ",
"                                                                                                    ",
"                                                                                                    ",
"                                                                                                    ",
"                              # # # # # # # # $ = = = $ # # # # # # # + + @ &                       ",
"                              w w w e 0 0 0 0 e e 0 0 0 0 8 q q q q 7 8 q O &                       ",
"                          $ 5 +.&.&.,.,.,.,.,.,.,.&.&.,.,.` Q Q Q Q Q ` E 8 # # &                   ",
"                          $ 0 &.t.4.;.;.;.;.;.0.6.6.0.4.3.O.o.O.O.O.] o.[ 8 # 2 1                   ",
"                          & w &.7.O.o.o.o.o.O.4.t.0.;._ _ o.' o.o.' o.) ` 5 : F G 1 &               ",
"                          = w { &.o.o.o.o._ o.,.,.4.;._ o.2.1.[ ` 1.1.o.^ 7 > P Z 1 #               ",
"                          = $ q l &.;.;.;.;.&.l l &.4.o.2.E.T.M m T.E.>.~ 7 1 K L 4 &               ",
"                          = o 5 a #.0.0.0.6.&.a a &.;.) 2.(.~.v v W.).d.Q q 1 D A < #               ",
"                          = 8  .,.;.0.0.0.6.;.,.,.=.=._ 2.(.~.c c W.^.>.~ 8 X % , $ =               ",
"                          = 8 &.t.6.0.0.t.0.6.0.0.6.=.o.1.^.Q.C V Q.(...R u : $ & = -               ",
"                          = 8 #.0.7.0.0.0.t.0.=.6.t.;.O.s.(._.~.~._.!.N u S J 1 =                   ",
"                          = w &.t.t.0.0.6.0.t.t.0.t.;.+.s.R.^.(.).(.Y.b : K L 1 $                   ",
"                          = w ,.t.6.0.t.6.5.y.y.0.0.4.+.O.1.2.2.2.,...r < H L 1 *                   ",
"                          $ w  .&.#.&.,.#.#.,.4.=.=.-.O.) ' ' ' ' o.Y q 3 J S % o                   ",
"                          = $ w w w 8 6 9 w z &.=.O.o.o.o.o.o.o.o.{ Q 5 & 3 : o $                   ",
"                          - & # # - b $ + w s &.;.O.O.O.O.] ' _ ( [ T 7 # & $ $ =                   ",
"                                    l.c q  .*.;.4.;.;.;.-.o.' o.Q i 7 o =                           ",
"                                      y e w.a.u.p.p.p.p.p.$.:.+.^ q $ = =                           ",
"                                      & g V.F.H.F.F.F.F.D.n.h.@.` q =                               ",
"                                      # j S.P.I.P.P.P.I.K.M.x.%.` q =                               ",
"                                      + j S.P.L.I.I.L.L.K.M.v.$.Q r =                               ",
"                                      & g A.I.P.P.L.L.L.K.N.c.} / l h                               ",
"                                      & n A.I.P.I.I.I.I.P.M.x.| ] ,.+.e $ $ =                       ",
"                                      & j C.G.K.K.K.U.J.Z.x.k.X.o.;.,.a 8 $ #                       ",
"                                  ; = . 6 <.g.m.M.B.b.B x e.i.+.) o.O.&.{ w #                       ",
"                                  = $ 7 p &.u.z.c.x.j.d 5 &.-.o.) Q [ #.+.w #                       ",
"                                  & w { &.y.y.u.u.u.f.k q ! O.+.[ f w 8 8 $ #                       ",
"                                  # 0 #.5.r.r.*.&.&.{ w q R Y / W w # & & & &                       ",
"                                  # w &.;.O.' l w 0 8 $ $ q 8 8 q $ X                               ",
"                                  & t +.&.Y I 8 # = $ $ = = # # + + $                               ",
"                                      w w 8 8 $ =                                                   ",
"                                      = & = = = ;                                                   ",
"                                                                                                    ",
"                                                                                                    ",
"                                                                                                    ",
"                                                                                                    ",
"                                                                                                    ",
"                                                                                                    ",
"                                                                                                    ",
"                                                                                                    "
};
