/* XPM */
static char *result[] = {
/* columns rows colors chars-per-pixel */
"50 50 166 2 ",
"   c #2D3C1E",
".  c #313917",
"X  c #32371D",
"o  c #323A1D",
"O  c #3E3B1D",
"+  c #2F3622",
"@  c #2C3924",
"#  c #323624",
"$  c #393524",
"%  c #333924",
"&  c #33362A",
"*  c #35392A",
"=  c #383C2A",
"-  c #3B352D",
";  c #3C3E37",
":  c #46351D",
">  c #49361E",
",  c #43391D",
"<  c #463623",
"1  c #493622",
"2  c #443924",
"3  c #443729",
"4  c #4C3529",
"5  c #3C4317",
"6  c #3C4816",
"7  c #37451E",
"8  c #3B451C",
"9  c #364B1F",
"0  c #3C481E",
"q  c #3C4523",
"w  c #364922",
"e  c #3C4922",
"r  c #3A432A",
"t  c #3D5025",
"y  c #47431E",
"u  c #4D4319",
"i  c #43531C",
"p  c #4A551A",
"a  c #424523",
"s  c #4A4724",
"d  c #494927",
"f  c #454329",
"g  c #49482E",
"h  c #445323",
"j  c #4A5123",
"k  c #434632",
"l  c #4D4732",
"z  c #484A37",
"x  c #464D3B",
"c  c #48493C",
"v  c #42433A",
"b  c #4E5634",
"n  c #4F5A33",
"m  c #535533",
"M  c #484942",
"N  c #5D5E52",
"B  c #B73F2E",
"V  c #9B4535",
"C  c #994A31",
"Z  c #9C4439",
"A  c #A1422F",
"S  c #B1422F",
"D  c #A34035",
"F  c #AD423D",
"G  c #AD4433",
"H  c #B24234",
"J  c #9A4441",
"K  c #7D953E",
"L  c #7A8742",
"P  c #7A874D",
"I  c #758A49",
"U  c #79894D",
"Y  c #7E9544",
"T  c #7E9848",
"R  c #889F3E",
"E  c #86A13C",
"W  c #89A23C",
"Q  c #8BA83E",
"!  c #819444",
"~  c #859C43",
"^  c #899E43",
"/  c #83924D",
"(  c #8B9E4B",
")  c #859D4B",
"_  c #959F4F",
"`  c #8B9E52",
"'  c #8C9C5A",
"]  c #9A9F51",
"[  c #999D58",
"{  c #86A142",
"}  c #8AA243",
"|  c #85A049",
" . c #8AA24A",
".. c #95A046",
"X. c #98A044",
"o. c #95AF47",
"O. c #99AF45",
"+. c #92A249",
"@. c #9AA34D",
"#. c #94AD4C",
"$. c #99AA4B",
"%. c #9DBB45",
"&. c #91B04B",
"*. c #99B64B",
"=. c #9EBA4C",
"-. c #8CAC56",
";. c #92A456",
":. c #9EA152",
">. c #94AC52",
",. c #95A65C",
"<. c #98A75F",
"1. c #95A95B",
"2. c #96B652",
"3. c #9EB655",
"4. c #9DB952",
"5. c #9DB15F",
"6. c #9FBB58",
"7. c #A0BD46",
"8. c #A1BC4C",
"9. c #A2AD51",
"0. c #A2BB52",
"q. c #A7B95A",
"w. c #ABBA5B",
"e. c #ABBA54",
"r. c #B4B751",
"t. c #B7BC5D",
"y. c #BABB59",
"u. c #8C9D66",
"i. c #97A763",
"p. c #9CA460",
"a. c #BDB973",
"s. c #BBBB7F",
"d. c #C3BD77",
"f. c #C6BA7F",
"g. c #CCB985",
"h. c #CAB789",
"j. c #C6B989",
"k. c #CDBC89",
"l. c #D2BC84",
"z. c #D1B68D",
"x. c #D1BF89",
"c. c #DDBB93",
"v. c #D6C790",
"b. c #E5C897",
"n. c #E5C79F",
"m. c #E8C79F",
"M. c #E6C99A",
"N. c #ECD493",
"B. c #EBD895",
"V. c #EED39A",
"C. c #F4D499",
"Z. c #FCD5A5",
"A. c #FED8A4",
"S. c #FED6AA",
"D. c #FED9A9",
"F. c #D9DED3",
"G. c #DDE2CE",
"H. c #DEE2D0",
"J. c #E4EBD4",
"K. c #E9ECDE",
"L. c #E9EAE5",
"P. c #EBEBEA",
"I. c #F2F5E3",
"U. c #F2F5E8",
"Y. c #FFFEFE",
"T. c None",
/* pixels */
"T.T.T.T.T.T.T.T.T.T.T.T.T.T.T.T.T.T.T.T.T.T.T.T.T.T.T.T.T.T.T.T.T.T.T.T.T.T.T.T.T.T.T.T.T.T.T.T.T.T.",
"T.T.T.T.T.T.T.T.T.T.T.T.T.T.T.T.T.T.T.T.T.T.T.T.T.T.T.T.T.T.T.T.T.T.T.T.T.T.T.T.T.T.T.T.T.T.T.T.T.T.",
"T.T.T.T.T.T.T.T.T.T.T.T.T.T.T.T.T.T.T.T.T.T.T.T.T.T.T.T.T.T.T.T.T.T.T.T.T.T.T.T.T.T.T.T.T.T.T.T.T.T.",
"T.T.T.T.T.T.T.T.T.T.T.T.T.T.T.T.T.T.T.T.T.T.T.T.T.T.T.T.T.T.T.T.T.T.T.T.T.T.T.T.T.T.T.T.T.T.T.T.T.T.",
"T.T.T.T.T.T.T.T.T.T.T.T.T.T.T.T.T.T.T.T.T.T.T.T.T.T.T.T.T.T.T.T.T.T.T.T.T.T.T.T.T.T.T.T.T.T.T.T.T.T.",
"T.T.T.T.T.T.T.T.T.T.T.T.T.T.T.T.T.T.T.T.T.T.T.T.T.T.T.T.T.T.T.T.T.T.T.T.T.T.T.T.T.T.T.T.T.T.T.T.T.T.",
"T.T.T.T.T.T.T.T.T.T.T.T.T.T.T.T.T.T.T.T.T.T.T.T.T.T.T.T.T.T.T.T.T.T.T.T.T.T.T.T.T.T.T.T.T.T.T.T.T.T.",
"T.T.T.T.T.T.T.T.T.T.T.T.T.T.T.T.T.T.T.T.T.T.T.T.T.T.T.T.T.T.T.T.T.T.T.T.T.T.T.T.T.T.T.T.T.T.T.T.T.T.",
"T.T.T.T.T.T.T.T.T.T.T.T.T.T.T.T.T.T.T.T.T.T.T.T.T.T.T.T.T.T.T.T.T.T.T.T.T.T.T.T.T.T.T.T.T.T.T.T.T.T.",
"T.T.T.T.T.T.T.T.T.T.T.T.T.* * = = * * * = = v T.T.T.T.T.T.T.T.T.T.T.T.T.T.T.T.T.T.T.T.T.T.T.T.T.T.T.",
"T.T.T.T.T.T.T.T.T.T.T.T.T.#   8 8 q q q q q k T.T.T.T.T.T.T.T.T.T.T.T.T.T.T.T.T.T.T.T.T.T.T.T.T.T.T.",
"T.T.T.T.T.T.T.T.T.T.T.@   X 7 I ! / U Y R K I t r = * # # + # % # # # # o T.T.T.T.T.T.T.T.T.T.T.T.T.",
"T.T.T.T.T.T.T.T.T.T.T.3 , o 8 ! W { ( E W W ! 6 0 e 0 e 0 e e 0 0 0 w e e T.T.T.T.T.T.T.T.T.T.T.T.T.",
"T.T.T.T.T.T.T.T.T.& 4 J V > 7 Y R R ~ { E ~  .1.>.#.&.&.#.#.>.#.&.>.1.#. .f # T.T.T.T.T.T.T.T.T.T.T.",
"T.T.T.T.T.T.T.T.T.% 1 F H > q ! ^ } } { { } } 3.=.8.8.8.8.=.=.4.%.=.0.7.#.a % T.T.T.T.T.T.T.T.T.T.T.",
"T.T.T.T.T.T.T.T.T.% > H S 1 r Y { R R ^ ^ ^ } W Q 4.4.4.=.Q W { }  . .7.&.e % T.T.T.T.T.T.T.T.T.T.T.",
"T.T.T.T.T.T.T.T.T.% $ B V 3 * R } 1.1.! ! 1.,.} W 3.0.#.#.} W } } } } #. .r * T.T.T.T.T.T.T.T.T.T.T.",
"T.T.T.T.T.T.T.T.T.$ # , O o % ! ,.J.H.b n H.J.,.} %.#.h h >.%.4.3.%.#.h r % o T.T.T.T.T.T.T.T.T.T.T.",
"T.T.T.T.T.T.T.T.T.- * # o : u I u.U.P.M x L.U.,.} %.>.i h >.7.0.0.%.#.j q % o T.T.T.T.T.T.T.T.T.T.T.",
"T.T.T.T.T.T.T.T.T.T.T.o : A C y b K.L.c z L.I.,.} =.=.#.&.4.8.=.8.=.=.*.( q % T.T.T.T.T.T.T.T.T.T.T.",
"T.T.T.T.T.T.T.T.T.T.T.o 1 B S : z L.P.N N P.I.i.{ =.8.7.7.8.7.7.7.7.7.7.>.8 % T.T.T.T.T.T.T.T.T.T.T.",
"T.T.T.T.T.T.T.T.T.T.T.$ 4 H H : M L.Y.L.P.Y.U.i.} 6.4.7.8.8.0.8.8.8.8.8.>.a * T.T.T.T.T.T.T.T.T.T.T.",
"T.T.T.T.T.T.T.T.T.T.T.@ 3 Z Z , x F.I.I.I.I.J.,.} 6.6.7.=.0.6.8.0.0.8.8.$.q * T.T.T.T.T.T.T.T.T.T.T.",
"T.T.T.T.T.T.T.T.T.T.T.$ o , 2 % q ' >.i.i.1.;.} W *.7.7.8.8.7.8.8.7.8.0.>.0 % T.T.T.T.T.T.T.T.T.T.T.",
"T.T.T.T.T.T.T.T.T.T.T.% & # # # 7 Y R R ^ ~ R R { *.7.%.%.#.$.#.#.#.#.>.` 6 * T.T.T.T.T.T.T.T.T.T.T.",
"T.T.T.T.T.T.T.T.T.T.T.T.T.T.T.@ 7 Y { W E ) ^ ! E } +.4.>.j q w w q w e 8 % * T.T.T.T.T.T.T.T.T.T.T.",
"T.T.T.T.T.T.T.T.T.T.T.T.T.T.T.% q I T E W ;.[ 9.$.,.p.w.5.b k   @ % # X o # % T.T.T.T.T.T.T.T.T.T.T.",
"T.T.T.T.T.T.T.T.T.T.T.T.T.T.T.T.T.r e Y  .s.h.N.V.V.C.N.B.M.z.s % T.T.T.T.T.T.T.T.T.T.T.T.T.T.T.T.T.",
"T.T.T.T.T.T.T.T.T.T.T.T.T.T.T.T.T.% 7 Y X.j.c.Z.D.C.A.D.D.D.m.l # T.T.T.T.T.T.T.T.T.T.T.T.T.T.T.T.T.",
"T.T.T.T.T.T.T.T.T.T.T.T.T.& & * % . 7 ! ] h.c.Z.S.A.A.S.D.S.n.l & T.T.T.T.T.T.T.T.T.T.T.T.T.T.T.T.T.",
"T.T.T.T.T.T.T.T.T.T.T.T.T.# o y q 7 j / ] g.c.Z.S.D.S.D.C.A.b.s + T.T.T.T.T.T.T.T.T.T.T.T.T.T.T.T.T.",
"T.T.T.T.T.T.T.T.T.T.T.T.T.% 6 ' >.#.1.^ ^ f.c.S.A.A.S.D.D.D.M.g # T.T.T.T.T.T.T.T.T.T.T.T.T.T.T.T.T.",
"T.T.T.T.T.T.T.T.T.T.T.T.T.% 8 ' #.=.*.W X.a.k.V.C.Z.Z.Z.Z.C.v.l # T.T.T.T.T.T.T.T.T.T.T.T.T.T.T.T.T.",
"T.T.T.T.T.T.T.T.T.T.T.T.T.& . 8 j ! } ^ ( @.:.r.y.v.c.c.v.t.$.a # T.T.T.T.T.T.T.T.T.T.T.T.T.T.T.T.T.",
"T.T.T.T.T.T.T.T.T.T.T.T.T.& o o $ K Y ) ) {  .%.0.d.f.l.s.e.$.f & T.T.T.T.T.T.T.T.T.T.T.T.T.T.T.T.T.",
"T.T.T.T.T.T.T.T.T.T.T.T.T.T.T.% % 5 i Y { 2.4.4.0.e.e.q.q.4.>.w & T.T.T.T.T.T.T.T.T.T.T.T.T.T.T.T.T.",
"T.T.T.T.T.T.T.T.T.T.T.T.T.T.T.& # X 8 K } 3.8.>.,.>.#.%.8.8.#.9 # T.T.T.T.T.T.T.T.T.T.T.T.T.T.T.T.T.",
"T.T.T.T.T.T.T.T.T.T.T.T.T.T.T.T.T.# q Y  .8.O.p 8 8 i ! +.0.O.6 # T.T.T.T.T.T.T.T.T.T.T.T.T.T.T.T.T.",
"T.T.T.T.T.T.T.T.T.T.T.T.T.T.T.T.T.& r ! } $. .q o # q K | -. .a & T.T.T.T.T.T.T.T.T.T.T.T.T.T.T.T.T.",
"T.T.T.T.T.T.T.T.T.T.T.T.T.T.T.T.T.  q ! ! i 0 T.T.* q Y T h e T.T.T.T.T.T.T.T.T.T.T.T.T.T.T.T.T.T.T.",
"T.T.T.T.T.T.T.T.T.T.T.T.T.T.T.T.T.o 8 P P 7 = T.T.% 8 P P 7 # T.T.T.T.T.T.T.T.T.T.T.T.T.T.T.T.T.T.T.",
"T.T.T.T.T.T.T.T.T.T.T.T.T.T.T.T.T.& o 8 y T.T.T.T.% o 8 q T.T.T.T.T.T.T.T.T.T.T.T.T.T.T.T.T.T.T.T.T.",
"T.T.T.T.T.T.T.T.T.T.T.T.T.T.T.T.T.* * % = T.T.T.T.; * % = T.T.T.T.T.T.T.T.T.T.T.T.T.T.T.T.T.T.T.T.T.",
"T.T.T.T.T.T.T.T.T.T.T.T.T.T.T.T.T.T.T.T.T.T.T.T.T.T.T.T.T.T.T.T.T.T.T.T.T.T.T.T.T.T.T.T.T.T.T.T.T.T.",
"T.T.T.T.T.T.T.T.T.T.T.T.T.T.T.T.T.T.T.T.T.T.T.T.T.T.T.T.T.T.T.T.T.T.T.T.T.T.T.T.T.T.T.T.T.T.T.T.T.T.",
"T.T.T.T.T.T.T.T.T.T.T.T.T.T.T.T.T.T.T.T.T.T.T.T.T.T.T.T.T.T.T.T.T.T.T.T.T.T.T.T.T.T.T.T.T.T.T.T.T.T.",
"T.T.T.T.T.T.T.T.T.T.T.T.T.T.T.T.T.T.T.T.T.T.T.T.T.T.T.T.T.T.T.T.T.T.T.T.T.T.T.T.T.T.T.T.T.T.T.T.T.T.",
"T.T.T.T.T.T.T.T.T.T.T.T.T.T.T.T.T.T.T.T.T.T.T.T.T.T.T.T.T.T.T.T.T.T.T.T.T.T.T.T.T.T.T.T.T.T.T.T.T.T.",
"T.T.T.T.T.T.T.T.T.T.T.T.T.T.T.T.T.T.T.T.T.T.T.T.T.T.T.T.T.T.T.T.T.T.T.T.T.T.T.T.T.T.T.T.T.T.T.T.T.T.",
"T.T.T.T.T.T.T.T.T.T.T.T.T.T.T.T.T.T.T.T.T.T.T.T.T.T.T.T.T.T.T.T.T.T.T.T.T.T.T.T.T.T.T.T.T.T.T.T.T.T."
};
