/* XPM */
static char *f39be16722cf440dc16845d59cbaf474GPiMFw4dAYkWWN9m[] = {
/* columns rows colors chars-per-pixel */
"50 50 170 2 ",
"   c None",
".  c #2C3A1F",
"X  c #34371E",
"o  c #33391E",
"O  c #2F3724",
"+  c #2C3A25",
"@  c #2F3728",
"#  c #2E3C2B",
"$  c #323723",
"%  c #383325",
"&  c #343924",
"*  c #3E3B25",
"=  c #33362A",
"-  c #34392A",
";  c #3A3C2F",
":  c #383A33",
">  c #4B341D",
",  c #44381F",
"<  c #48381A",
"1  c #43371D",
"2  c #443624",
"3  c #4B3622",
"4  c #423822",
"5  c #443829",
"6  c #36461F",
"7  c #3B451C",
"8  c #3C481D",
"9  c #3F521E",
"0  c #364623",
"q  c #3B4524",
"w  c #3C4822",
"e  c #304029",
"r  c #3C442C",
"t  c #3F5025",
"y  c #49431B",
"u  c #44551C",
"i  c #404723",
"p  c #454E22",
"a  c #414529",
"s  c #4F472B",
"d  c #4C482D",
"f  c #4C4225",
"g  c #50462D",
"h  c #504F2C",
"j  c #435420",
"k  c #48512E",
"l  c #535129",
"z  c #454A32",
"x  c #474B3B",
"c  c #4B4A33",
"v  c #4C563A",
"b  c #505837",
"n  c #605136",
"m  c #5C5F4E",
"M  c #B73E2E",
"N  c #B63E38",
"B  c #B43F35",
"V  c #9A4634",
"C  c #9A4538",
"Z  c #A14329",
"A  c #B5402F",
"S  c #A34032",
"D  c #AF4231",
"F  c #B24232",
"G  c #7D953D",
"H  c #7E9A3F",
"J  c #748A44",
"K  c #7A874A",
"L  c #758948",
"P  c #7E9443",
"I  c #7E9648",
"U  c #7E9B43",
"Y  c #83953E",
"T  c #839C3F",
"R  c #8C9F3C",
"E  c #84A137",
"W  c #8BA336",
"Q  c #86A23B",
"!  c #89A33D",
"~  c #9EBC3E",
"^  c #839443",
"/  c #859E46",
"(  c #889E46",
")  c #829449",
"_  c #879E4B",
"`  c #899E4A",
"'  c #8E954E",
"]  c #999F4F",
"[  c #949F4B",
"{  c #8B9E53",
"}  c #8A9C5E",
"|  c #86A143",
" . c #8AA243",
".. c #8AA24B",
"X. c #8DA843",
"o. c #95AE43",
"O. c #93A14B",
"+. c #9AA24B",
"@. c #94AD4B",
"#. c #99AB4E",
"$. c #95B041",
"%. c #9AB746",
"&. c #9EBB44",
"*. c #94B048",
"=. c #9CB74D",
"-. c #9EBA4C",
";. c #8FAA5D",
":. c #8DAC53",
">. c #95A151",
",. c #95AC52",
"<. c #9BAC52",
"1. c #93A65C",
"2. c #95AA5A",
"3. c #9CB353",
"4. c #9DB951",
"5. c #A1BD45",
"6. c #A0BD49",
"7. c #A0BC4F",
"8. c #A0BD4D",
"9. c #A1BC4C",
"0. c #A8A95F",
"q. c #A0BB51",
"w. c #A1BC52",
"e. c #AEBB5B",
"r. c #B2BA5E",
"t. c #8D9F60",
"y. c #95A662",
"u. c #94AA60",
"i. c #96A861",
"p. c #B2BC62",
"a. c #ADA279",
"s. c #BEB57E",
"d. c #C0B862",
"f. c #CCB87E",
"g. c #ADC053",
"h. c #BEBE82",
"j. c #A5A99A",
"k. c #CDAE89",
"l. c #CCB886",
"z. c #CBB789",
"x. c #CFBB88",
"c. c #C3BB85",
"v. c #DFBB8D",
"b. c #D4BC8E",
"n. c #DDBB95",
"m. c #D6C88D",
"M. c #D5C792",
"N. c #E3C99A",
"B. c #E4C49B",
"V. c #EDDA95",
"C. c #EAD49A",
"Z. c #F2D69C",
"A. c #F3D899",
"S. c #EBC6A1",
"D. c #F9CFA8",
"F. c #FCD5A5",
"G. c #FED8A4",
"H. c #FDD5AA",
"J. c #FDD8AB",
"K. c #DCDFCD",
"L. c #DBE1CA",
"P. c #DCE1D2",
"I. c #E4ECCB",
"U. c #E3ECD5",
"Y. c #E8E9E5",
"T. c #EBEBE9",
"R. c #F2F5E6",
"E. c #F2F5EA",
"W. c #F2F4E9",
"Q. c #FEFEFF",
/* pixels */
"                                                                                                    ",
"                                                                                                    ",
"                                                                                                    ",
"                                                                                                    ",
"                                                                                                    ",
"                                                                                                    ",
"                                                                                                    ",
"                                                                                                    ",
"                                                                                                    ",
"                            $ $ X o $ = = & & & & & = = $ $ $ $ $ $ $ & = =                         ",
"                            q q q 8 8 8 8 8 8 8 w w q q q q q q q q 7 7 & =                         ",
"                        - r ..@.,.@.@.@.@.@.,.2.2.,.@.@.Y P P P P P ) J 0 . + &                     ",
"                        : q o.5.-.4.-.-.-.-.7.7.7.7.-.=. .|  .! ! | | P q & 4 3                     ",
"                        & 8 @.-.X.| !  .....-.5.&.&.!  ._ _ | ! Q Q R Y 7 , C C 5 =                 ",
"                        & w { ,.! Q  . . ...,.,.-.&.W | 1.y.) ^ 1.1.| ^ q 3 N B 5 =                 ",
"                        & & 7 u @.-.4.&.~ @.u j 2.-.! 1.I.L.v v P.U.;.P 0 , A M 4 $                 ",
"                        & o 7 u ,.7.6.6.5.@.j j ,.-.Q 2.R.T.x x T.E.u.G 6 1 Z S 4 @                 ",
"                        = w { @.&.&.&.7.7.4.@.@.&.&.| u.E.Y.z z Y.R.2.G q = 4 4 X o                 ",
"                        - q ,.w.7.q.w.q.7.6.6.6.7.-...i.E.T.m m T.W.t.J f 2 + + & &                 ",
"                        & 8 @.7.q.6.7.-.&.&.&.6.q.4. .2.R.Q.T.T.Q.Y.b y V V 4 #                     ",
"                        & 8 o.6.7.&.&.6.6.-.6.&.6.-. .1.I.R.E.E.R.K.c > D F 3 =                     ",
"                        = 8 @.6.w.w.6.7.w.w.q.w.7.-. . .1.2.u.u.u.} q 2 F F 3 =                     ",
"                        & w { ,.@.,.,.@.,.,.-.7.4.3...| _ T ( ( | P q * V C * +                     ",
"                        & & q q 8 8 8 8 q u $.&.X...Q E | ! ( | | P q & < > & =                     ",
"                        - = = = = r & = q u $.~ X...! Q | _ | ( I J q $ o & & =                     ",
"                                  j.z 7 { ,.5.5.&.-.4.3. .(  .^ p 7 o &                             ",
"                                    e 8 3.p.r.p.e.g.e.e.+.O.W G 7 = & &                             ",
"                                    = d m.Z.A.Z.Z.V.V.C.x.s.O.G 0 #                                 ",
"                                    & s N.J.G.G.J.G.G.H.n.z.] P 0 -                                 ",
"                                    O s N.J.G.H.H.G.G.F.v.f.+.^ q % & & & =                         ",
"                                    + d N.J.G.J.J.H.J.H.v.l.>.^ u y 8 8 o =                         ",
"                                    $ g N.J.G.G.G.H.J.H.v.l.>.| :.@.<.{ 8 =                         ",
"                                    $ s M.A.F.F.F.D.S.B.x.s.[  .=.=.,.{ 7 $                         ",
"                                    = a 0.d.b.n.v.k.n l ' O._ _ | U u 7 o $                         ",
"                                    . w <.e.h.c.s.a.k 9 H Q Q ( P L 0 O = =                         ",
"                                    $ 8 @.7.w.<.l h { *.%.%.W ) p * o &                             ",
"                                    = i ..@.@._ 7 w #.6.7.3.^ K w X o &                             ",
"                                        8 8 r r & w ,.7.X.) t r                                     ",
"                                        & o $ $ $ 7 ..@.Y J 0 =                                     ",
"                                            & X = & w 8 q r                                         ",
"                                            ; = = = = = - ;                                         ",
"                                                                                                    ",
"                                                                                                    ",
"                                                                                                    ",
"                                                                                                    ",
"                                                                                                    ",
"                                                                                                    ",
"                                                                                                    ",
"                                                                                                    ",
"                                                                                                    "
};
