/* XPM */
static char *result[] = {
/* columns rows colors chars-per-pixel */
"50 50 165 2 ",
"   c #2C3A1F",
".  c #34371E",
"X  c #33391E",
"o  c #2F3724",
"O  c #2C3A25",
"+  c #2F3728",
"@  c #2E3C2B",
"#  c #323723",
"$  c #383325",
"%  c #343924",
"&  c #3E3B25",
"*  c #33362A",
"=  c #34392A",
"-  c #3A3C2F",
";  c #343732",
":  c #3C3D33",
">  c #4B341D",
",  c #44381F",
"<  c #48381A",
"1  c #43371D",
"2  c #443624",
"3  c #4B3622",
"4  c #423822",
"5  c #443829",
"6  c #36461F",
"7  c #3B451C",
"8  c #3C481D",
"9  c #3F521E",
"0  c #364623",
"q  c #3B4524",
"w  c #3C4822",
"e  c #304029",
"r  c #3C442C",
"t  c #3F5025",
"y  c #49431B",
"u  c #44551C",
"i  c #404723",
"p  c #454E22",
"a  c #414529",
"s  c #4F472B",
"d  c #4C482D",
"f  c #4C4225",
"g  c #50462D",
"h  c #504F2C",
"j  c #435420",
"k  c #48512E",
"l  c #535129",
"z  c #454A32",
"x  c #474B3B",
"c  c #4B4A33",
"v  c #4C563A",
"b  c #505837",
"n  c #605136",
"m  c #5C5F4E",
"M  c #B73E2E",
"N  c #B63E38",
"B  c #B43F35",
"V  c #9A4634",
"C  c #9A4538",
"Z  c #A14329",
"A  c #B5402F",
"S  c #A34032",
"D  c #AF4231",
"F  c #B24232",
"G  c #7D953D",
"H  c #7E9A3F",
"J  c #748A44",
"K  c #7A874A",
"L  c #758948",
"P  c #7E9443",
"I  c #7E9648",
"U  c #7E9B43",
"Y  c #83953E",
"T  c #839C3F",
"R  c #8C9F3C",
"E  c #84A137",
"W  c #8BA336",
"Q  c #86A23B",
"!  c #89A33D",
"~  c #9EBC3E",
"^  c #839443",
"/  c #859E46",
"(  c #889E46",
")  c #829449",
"_  c #8E954E",
"`  c #879E4B",
"'  c #899E4A",
"]  c #949F4B",
"[  c #999F4F",
"{  c #8B9E53",
"}  c #8A9C5E",
"|  c #86A143",
" . c #8AA243",
".. c #8DA843",
"X. c #8AA24B",
"o. c #95AE43",
"O. c #93A14B",
"+. c #9AA24B",
"@. c #94AD4B",
"#. c #99AB4E",
"$. c #95B041",
"%. c #9AB746",
"&. c #9EBB44",
"*. c #94B048",
"=. c #9CB74D",
"-. c #9EBA4C",
";. c #8FAA5D",
":. c #8DAC53",
">. c #95A151",
",. c #95AC52",
"<. c #9BAC52",
"1. c #93A65C",
"2. c #95AA5A",
"3. c #9CB353",
"4. c #9DB951",
"5. c #A1BD45",
"6. c #A0BC4C",
"7. c #A8A95F",
"8. c #A1BC52",
"9. c #AEBB5B",
"0. c #B2BA5E",
"q. c #8D9F60",
"w. c #95A662",
"e. c #95A961",
"r. c #B2BC62",
"t. c #ADA279",
"y. c #BEB57E",
"u. c #C0B862",
"i. c #CCB87E",
"p. c #ADC053",
"a. c #BEBE82",
"s. c #A5A99A",
"d. c #CDAE89",
"f. c #CCB886",
"g. c #CBB789",
"h. c #CFBB88",
"j. c #C3BB85",
"k. c #DFBB8D",
"l. c #D4BC8E",
"z. c #DDBB95",
"x. c #D6C88D",
"c. c #D5C792",
"v. c #E3C99A",
"b. c #E4C49B",
"n. c #EDDA95",
"m. c #EAD49A",
"M. c #F2D69C",
"N. c #F3D899",
"B. c #EBC6A1",
"V. c #F9CFA8",
"C. c #FCD5A5",
"Z. c #FED8A4",
"A. c #FDD5AA",
"S. c #FDD8AB",
"D. c #DCDFCD",
"F. c #DBE1CA",
"G. c #DCE1D2",
"H. c #E4ECCB",
"J. c #E3ECD5",
"K. c #E8E9E5",
"L. c #EBEBE9",
"P. c #F2F5E6",
"I. c #F2F5E9",
"U. c #FEFEFF",
"Y. c None",
/* pixels */
"Y.Y.Y.Y.Y.Y.Y.Y.Y.Y.Y.Y.Y.Y.Y.Y.Y.Y.Y.Y.Y.Y.Y.Y.Y.Y.Y.Y.Y.Y.Y.Y.Y.Y.Y.Y.Y.Y.Y.Y.Y.Y.Y.Y.Y.Y.Y.Y.Y.Y.",
"Y.Y.Y.Y.Y.Y.Y.Y.Y.Y.Y.Y.Y.Y.Y.Y.Y.Y.Y.Y.Y.Y.Y.Y.Y.Y.Y.Y.Y.Y.Y.Y.Y.Y.Y.Y.Y.Y.Y.Y.Y.Y.Y.Y.Y.Y.Y.Y.Y.Y.",
"Y.Y.Y.Y.Y.Y.Y.Y.Y.Y.Y.Y.Y.Y.Y.Y.Y.Y.Y.Y.Y.Y.Y.Y.Y.Y.Y.Y.Y.Y.Y.Y.Y.Y.Y.Y.Y.Y.Y.Y.Y.Y.Y.Y.Y.Y.Y.Y.Y.Y.",
"Y.Y.Y.Y.Y.Y.Y.Y.Y.Y.Y.Y.Y.Y.Y.Y.Y.Y.Y.Y.Y.Y.Y.Y.Y.Y.Y.Y.Y.Y.Y.Y.Y.Y.Y.Y.Y.Y.Y.Y.Y.Y.Y.Y.Y.Y.Y.Y.Y.Y.",
"Y.Y.Y.Y.Y.Y.Y.Y.Y.Y.Y.Y.Y.Y.Y.Y.Y.Y.Y.Y.Y.Y.Y.Y.Y.Y.Y.Y.Y.Y.Y.Y.Y.Y.Y.Y.Y.Y.Y.Y.Y.Y.Y.Y.Y.Y.Y.Y.Y.Y.",
"Y.Y.Y.Y.Y.Y.Y.Y.Y.Y.Y.Y.Y.Y.Y.Y.Y.Y.Y.Y.Y.Y.Y.Y.Y.Y.Y.Y.Y.Y.Y.Y.Y.Y.Y.Y.Y.Y.Y.Y.Y.Y.Y.Y.Y.Y.Y.Y.Y.Y.",
"Y.Y.Y.Y.Y.Y.Y.Y.Y.Y.Y.Y.Y.Y.Y.Y.Y.Y.Y.Y.Y.Y.Y.Y.Y.Y.Y.Y.Y.Y.Y.Y.Y.Y.Y.Y.Y.Y.Y.Y.Y.Y.Y.Y.Y.Y.Y.Y.Y.Y.",
"Y.Y.Y.Y.Y.Y.Y.Y.Y.Y.Y.Y.Y.Y.Y.Y.Y.Y.Y.Y.Y.Y.Y.Y.Y.Y.Y.Y.Y.Y.Y.Y.Y.Y.Y.Y.Y.Y.Y.Y.Y.Y.Y.Y.Y.Y.Y.Y.Y.Y.",
"Y.Y.Y.Y.Y.Y.Y.Y.Y.Y.Y.Y.Y.Y.Y.Y.Y.Y.Y.Y.Y.Y.Y.Y.Y.Y.Y.Y.Y.Y.Y.Y.Y.Y.Y.Y.Y.Y.Y.Y.Y.Y.Y.Y.Y.Y.Y.Y.Y.Y.",
"Y.Y.Y.Y.Y.Y.Y.Y.Y.Y.Y.Y.# * $ # X # # $ # # # = % # % # % = # # X # # . Y.Y.Y.Y.Y.Y.Y.Y.Y.Y.Y.Y.Y.Y.",
"Y.Y.Y.Y.Y.Y.Y.Y.Y.Y.Y.Y.# # 7 7 0 q 0 0 q 0 q w 8 w 8 8 8 8 w 8 8 w q r Y.Y.Y.Y.Y.Y.Y.Y.Y.Y.Y.Y.Y.Y.",
"Y.Y.Y.Y.Y.Y.Y.Y.Y.Y.X O   0 J ) I P P P P Y @.@.,.2.,.,.@.@.@.*.*.,.*.X.r ; Y.Y.Y.Y.Y.Y.Y.Y.Y.Y.Y.Y.",
"Y.Y.Y.Y.Y.Y.Y.Y.Y.Y.3 5 % i I ( ( | ! ( | | -.-.6.6.6.-.-.-.-.-.4.-.&.o.q ; Y.Y.Y.Y.Y.Y.Y.Y.Y.Y.Y.Y.",
"Y.Y.Y.Y.Y.Y.Y.Y.# 5 C C 1 7 Y R R E Q | ` X. .! &.&.5.-.X.X...! X...-.*.y % Y.Y.Y.Y.Y.Y.Y.Y.Y.Y.Y.Y.",
"Y.Y.Y.Y.Y.Y.Y.Y.# 4 F N 3 q ^ / 1.1.^ ) w.1. .W &.-.,.,.X.|  .! ! ! ,.{ w % Y.Y.Y.Y.Y.Y.Y.Y.Y.Y.Y.Y.",
"Y.Y.Y.Y.Y.Y.Y.Y.# 4 M A 1 0 G 1.J.G.v v F.H.1. .-.2.u u @.~ &.4.-.@.u 8 % = Y.Y.Y.Y.Y.Y.Y.Y.Y.Y.Y.Y.",
"Y.Y.Y.Y.Y.Y.Y.Y.* 4 S Z , 6 G 1.I.L.x x L.P.2.! -.,.j j @.5.6.5.6.,.u 7 X % Y.Y.Y.Y.Y.Y.Y.Y.Y.Y.Y.Y.",
"Y.Y.Y.Y.Y.Y.Y.Y.. . , . * q P 2.P.K.z z K.I.1. .&.&.*.@.8.6.8.&.5.&.*.{ w * Y.Y.Y.Y.Y.Y.Y.Y.Y.Y.Y.Y.",
"Y.Y.Y.Y.Y.Y.Y.Y.% & O O 2 f J w.I.L.m m L.I.w.X.-.-.6.5.-.p.4.8.6.6.6.,.i = Y.Y.Y.Y.Y.Y.Y.Y.Y.Y.Y.Y.",
"Y.Y.Y.Y.Y.Y.Y.Y.Y.Y.@ , V C < b K.U.L.L.U.P.2.! =.8.6.&.~ &.-.8.6.8.6.*.w % Y.Y.Y.Y.Y.Y.Y.Y.Y.Y.Y.Y.",
"Y.Y.Y.Y.Y.Y.Y.Y.Y.Y.= 3 A D > c D.P.P.I.P.H.1.| -.6.5.6.6.6.6.&.5.-.p...y % Y.Y.Y.Y.Y.Y.Y.Y.Y.Y.Y.Y.",
"Y.Y.Y.Y.Y.Y.Y.Y.Y.Y.* 3 D F 2 0 } w.e.e.2.1. . .4.6.6.4.6.6.6.6.8.4.5.*.w = Y.Y.Y.Y.Y.Y.Y.Y.Y.Y.Y.Y.",
"Y.Y.Y.Y.Y.Y.Y.Y.Y.Y.O 4 C C & q I / / / ( ' ( X.4.4.6.6.,.,.:.*.,.@.,.{ w = Y.Y.Y.Y.Y.Y.Y.Y.Y.Y.Y.Y.",
"Y.Y.Y.Y.Y.Y.Y.Y.Y.Y.# % > < $ q G | | ( ! | E Q X.X.&.$.j 0 8 w 8 8 q w X % Y.Y.Y.Y.Y.Y.Y.Y.Y.Y.Y.Y.",
"Y.Y.Y.Y.Y.Y.Y.Y.Y.Y.* % % . # q J P / ( ' | ! ! X...~ $.u 0 * % r % * % * = Y.Y.Y.Y.Y.Y.Y.Y.Y.Y.Y.Y.",
"Y.Y.Y.Y.Y.Y.Y.Y.Y.Y.Y.Y.Y.Y.% % q p Y ! ( | 4.4.-.%.5.-.<.{ 7 z s.Y.Y.Y.Y.Y.Y.Y.Y.Y.Y.Y.Y.Y.Y.Y.Y.Y.",
"Y.Y.Y.Y.Y.Y.Y.Y.Y.Y.Y.Y.Y.Y.% % # 7 Y W O.+.9.9.p.9.r.r.0.3.8 e Y.Y.Y.Y.Y.Y.Y.Y.Y.Y.Y.Y.Y.Y.Y.Y.Y.Y.",
"Y.Y.Y.Y.Y.Y.Y.Y.Y.Y.Y.Y.Y.Y.Y.Y.@ 0 G O.y.h.m.n.n.M.M.M.M.x.d # Y.Y.Y.Y.Y.Y.Y.Y.Y.Y.Y.Y.Y.Y.Y.Y.Y.Y.",
"Y.Y.Y.Y.Y.Y.Y.Y.Y.Y.Y.Y.Y.Y.Y.Y.= 0 I [ g.z.V.Z.Z.S.Z.Z.S.v.s % Y.Y.Y.Y.Y.Y.Y.Y.Y.Y.Y.Y.Y.Y.Y.Y.Y.Y.",
"Y.Y.Y.Y.Y.Y.Y.Y.Y.Y.Y.Y.% % % % $ q Y ] i.k.V.C.Z.S.C.C.S.v.g O Y.Y.Y.Y.Y.Y.Y.Y.Y.Y.Y.Y.Y.Y.Y.Y.Y.Y.",
"Y.Y.Y.Y.Y.Y.Y.Y.Y.Y.Y.Y.# % 7 7 y u ^ [ f.k.A.S.S.S.S.Z.S.v.d O Y.Y.Y.Y.Y.Y.Y.Y.Y.Y.Y.Y.Y.Y.Y.Y.Y.Y.",
"Y.Y.Y.Y.Y.Y.Y.Y.Y.Y.Y.Y.# 7 { ,.@.:.| >.g.k.A.S.C.S.Z.Z.S.v.g O Y.Y.Y.Y.Y.Y.Y.Y.Y.Y.Y.Y.Y.Y.Y.Y.Y.Y.",
"Y.Y.Y.Y.Y.Y.Y.Y.Y.Y.Y.Y.# 8 X.,.-.=.| ] y.g.b.B.V.C.C.C.N.c.g # Y.Y.Y.Y.Y.Y.Y.Y.Y.Y.Y.Y.Y.Y.Y.Y.Y.Y.",
"Y.Y.Y.Y.Y.Y.Y.Y.Y.Y.Y.Y.# X w j U  .X.` X._ l n d.k.l.l.r.7.a # Y.Y.Y.Y.Y.Y.Y.Y.Y.Y.Y.Y.Y.Y.Y.Y.Y.Y.",
"Y.Y.Y.Y.Y.Y.Y.Y.Y.Y.Y.Y.* # O 0 L P | E ! U 9 k t.y.j.a.9.@.w   Y.Y.Y.Y.Y.Y.Y.Y.Y.Y.Y.Y.Y.Y.Y.Y.Y.Y.",
"Y.Y.Y.Y.Y.Y.Y.Y.Y.Y.Y.Y.Y.Y.# % q p ) W &.%.@.' k l 7.8.p.#.8 # Y.Y.Y.Y.Y.Y.Y.Y.Y.Y.Y.Y.Y.Y.Y.Y.Y.Y.",
"Y.Y.Y.Y.Y.Y.Y.Y.Y.Y.Y.Y.Y.Y.# # $ w K ^ 3.6.6.#.y 6 X.@.@.X.i % Y.Y.Y.Y.Y.Y.Y.Y.Y.Y.Y.Y.Y.Y.Y.Y.Y.Y.",
"Y.Y.Y.Y.Y.Y.Y.Y.Y.Y.Y.Y.Y.Y.Y.Y.Y.Y.r t ) ..6.<.w # q r w 8 Y.Y.Y.Y.Y.Y.Y.Y.Y.Y.Y.Y.Y.Y.Y.Y.Y.Y.Y.Y.",
"Y.Y.Y.Y.Y.Y.Y.Y.Y.Y.Y.Y.Y.Y.Y.Y.Y.Y.= 0 J T @. .7 # # # X % Y.Y.Y.Y.Y.Y.Y.Y.Y.Y.Y.Y.Y.Y.Y.Y.Y.Y.Y.Y.",
"Y.Y.Y.Y.Y.Y.Y.Y.Y.Y.Y.Y.Y.Y.Y.Y.Y.Y.Y.Y.r q 8 i # # X # Y.Y.Y.Y.Y.Y.Y.Y.Y.Y.Y.Y.Y.Y.Y.Y.Y.Y.Y.Y.Y.Y.",
"Y.Y.Y.Y.Y.Y.Y.Y.Y.Y.Y.Y.Y.Y.Y.Y.Y.Y.Y.Y.: - * * = - * - Y.Y.Y.Y.Y.Y.Y.Y.Y.Y.Y.Y.Y.Y.Y.Y.Y.Y.Y.Y.Y.Y.",
"Y.Y.Y.Y.Y.Y.Y.Y.Y.Y.Y.Y.Y.Y.Y.Y.Y.Y.Y.Y.Y.Y.Y.Y.Y.Y.Y.Y.Y.Y.Y.Y.Y.Y.Y.Y.Y.Y.Y.Y.Y.Y.Y.Y.Y.Y.Y.Y.Y.Y.",
"Y.Y.Y.Y.Y.Y.Y.Y.Y.Y.Y.Y.Y.Y.Y.Y.Y.Y.Y.Y.Y.Y.Y.Y.Y.Y.Y.Y.Y.Y.Y.Y.Y.Y.Y.Y.Y.Y.Y.Y.Y.Y.Y.Y.Y.Y.Y.Y.Y.Y.",
"Y.Y.Y.Y.Y.Y.Y.Y.Y.Y.Y.Y.Y.Y.Y.Y.Y.Y.Y.Y.Y.Y.Y.Y.Y.Y.Y.Y.Y.Y.Y.Y.Y.Y.Y.Y.Y.Y.Y.Y.Y.Y.Y.Y.Y.Y.Y.Y.Y.Y.",
"Y.Y.Y.Y.Y.Y.Y.Y.Y.Y.Y.Y.Y.Y.Y.Y.Y.Y.Y.Y.Y.Y.Y.Y.Y.Y.Y.Y.Y.Y.Y.Y.Y.Y.Y.Y.Y.Y.Y.Y.Y.Y.Y.Y.Y.Y.Y.Y.Y.Y.",
"Y.Y.Y.Y.Y.Y.Y.Y.Y.Y.Y.Y.Y.Y.Y.Y.Y.Y.Y.Y.Y.Y.Y.Y.Y.Y.Y.Y.Y.Y.Y.Y.Y.Y.Y.Y.Y.Y.Y.Y.Y.Y.Y.Y.Y.Y.Y.Y.Y.Y.",
"Y.Y.Y.Y.Y.Y.Y.Y.Y.Y.Y.Y.Y.Y.Y.Y.Y.Y.Y.Y.Y.Y.Y.Y.Y.Y.Y.Y.Y.Y.Y.Y.Y.Y.Y.Y.Y.Y.Y.Y.Y.Y.Y.Y.Y.Y.Y.Y.Y.Y.",
"Y.Y.Y.Y.Y.Y.Y.Y.Y.Y.Y.Y.Y.Y.Y.Y.Y.Y.Y.Y.Y.Y.Y.Y.Y.Y.Y.Y.Y.Y.Y.Y.Y.Y.Y.Y.Y.Y.Y.Y.Y.Y.Y.Y.Y.Y.Y.Y.Y.Y.",
"Y.Y.Y.Y.Y.Y.Y.Y.Y.Y.Y.Y.Y.Y.Y.Y.Y.Y.Y.Y.Y.Y.Y.Y.Y.Y.Y.Y.Y.Y.Y.Y.Y.Y.Y.Y.Y.Y.Y.Y.Y.Y.Y.Y.Y.Y.Y.Y.Y.Y.",
"Y.Y.Y.Y.Y.Y.Y.Y.Y.Y.Y.Y.Y.Y.Y.Y.Y.Y.Y.Y.Y.Y.Y.Y.Y.Y.Y.Y.Y.Y.Y.Y.Y.Y.Y.Y.Y.Y.Y.Y.Y.Y.Y.Y.Y.Y.Y.Y.Y.Y."
};
