/* XPM */
static char *ebf944d1be844d72da384c017762b45fyVsuiAGxdsJEMlLQ[] = {
/* columns rows colors chars-per-pixel */
"50 50 162 2 ",
"   c None",
".  c #2C391F",
"X  c #32371E",
"o  c #33391E",
"O  c #2F3723",
"+  c #2D3923",
"@  c #2C3A28",
"#  c #333624",
"$  c #333924",
"%  c #333629",
"&  c #34382A",
"*  c #393A2D",
"=  c #323832",
"-  c #353733",
";  c #46371F",
":  c #49351E",
">  c #45391D",
",  c #48381B",
"<  c #453623",
"1  c #493623",
"2  c #463820",
"3  c #483825",
"4  c #3A4717",
"5  c #35471D",
"6  c #3A451D",
"7  c #3C491C",
"8  c #3C4523",
"9  c #3B4822",
"0  c #3D4329",
"q  c #364525",
"w  c #3F4436",
"e  c #4D421B",
"r  c #434F1F",
"t  c #41461C",
"y  c #415017",
"u  c #45551C",
"i  c #444524",
"p  c #454F22",
"a  c #44472D",
"s  c #4C472F",
"d  c #4A492F",
"f  c #455223",
"g  c #485129",
"h  c #50542B",
"j  c #4B4732",
"k  c #464B35",
"l  c #484C36",
"z  c #46493B",
"x  c #484C3E",
"c  c #4E5533",
"v  c #5E5737",
"b  c #515835",
"n  c #605230",
"m  c #4A4C42",
"M  c #5C5F4F",
"N  c #5C5D54",
"B  c #B43F38",
"V  c #9D4533",
"C  c #9E423A",
"Z  c #B3422F",
"A  c #AE4432",
"S  c #A04333",
"D  c #B34230",
"F  c #758B3D",
"G  c #7E943D",
"H  c #7B8743",
"J  c #768B41",
"K  c #798A45",
"L  c #78874C",
"P  c #77884C",
"I  c #7A884A",
"U  c #7E9443",
"Y  c #7F9448",
"T  c #81973D",
"R  c #879F3D",
"E  c #87A13C",
"W  c #8AA33D",
"Q  c #9FBE3F",
"!  c #819344",
"~  c #869E43",
"^  c #889D45",
"/  c #839349",
"(  c #879F48",
")  c #8B9E4B",
"_  c #989F4E",
"`  c #8C9E52",
"'  c #8C9C5A",
"]  c #969D51",
"[  c #9B9E53",
"{  c #86A143",
"}  c #8AA243",
"|  c #8AA24C",
" . c #95AF46",
".. c #93A34F",
"X. c #95AD4C",
"o. c #98AF4E",
"O. c #9EBD46",
"+. c #9CB64E",
"@. c #9EBA4C",
"#. c #8BA153",
"$. c #95AC52",
"%. c #94A75D",
"&. c #95A95B",
"*. c #9CAA58",
"=. c #92B153",
"-. c #9DB652",
";. c #9EBA52",
":. c #9EBB58",
">. c #A1BE45",
",. c #A0B64F",
"<. c #A1BD4E",
"1. c #A1BC4B",
"2. c #A0AE5E",
"3. c #A1BC51",
"4. c #A0BB53",
"5. c #A9BB53",
"6. c #ABBE5B",
"7. c #B0BC5C",
"8. c #8E9E60",
"9. c #94A663",
"0. c #97A862",
"q. c #9BAA61",
"w. c #AEBC60",
"e. c #B8BA67",
"r. c #B8AD7D",
"t. c #C0B678",
"y. c #C2BF7C",
"u. c #CAAF85",
"i. c #CAB984",
"p. c #D1BA87",
"a. c #DCBD8F",
"s. c #D4BE8B",
"d. c #D5B790",
"f. c #D9C78D",
"g. c #DCC492",
"h. c #EBC897",
"j. c #E9C69A",
"k. c #E5C898",
"l. c #EBC99B",
"z. c #E3C398",
"x. c #EED19E",
"c. c #F2D597",
"v. c #F4D59D",
"b. c #F0D999",
"n. c #FBD5A5",
"m. c #FCD9A6",
"M. c #FED6AA",
"N. c #FFD8A9",
"B. c #C7C8C3",
"V. c #C9C9C7",
"C. c #CECFCB",
"Z. c #DDDFCF",
"A. c #DDE1CE",
"S. c #DBE1D3",
"D. c #E4EACF",
"F. c #E4ECD1",
"G. c #EAEBE5",
"H. c #EAEBE9",
"J. c #F2F5E5",
"K. c #F4F5EB",
"L. c #F1F5E8",
"P. c #FEFEFD",
/* pixels */
"                                                                                                    ",
"                                                                                                    ",
"                                                                                                    ",
"                                                                                                    ",
"                                                                                                    ",
"                                                                                                    ",
"                                                                                                    ",
"                                                    C.C.V.B.                                        ",
"                            % % % $ $ % % $ % $ $ 0 l m m x w $ $ % % % $ %                         ",
"                            9 9 9 7 7 7 7 7 9 9 9 7 7 9 8 6 8 6 6 8 6 6 o #                         ",
"                        % 9 }  .X.$.$.X. .X.X.$.$.$.$.$.T G U U U ! / P 9 O + O                     ",
"                        O 7  .<.;.;.;.@.@.@.<.<.3.3.;.-.W E { ~ { W E Y 9 # ; ,                     ",
"                        $ 7 $.;.W E W W { } @.1.1.@.} W ~ ~ { { ~ R W ! q < C S 3 @                 ",
"                        % 9 ' $.W W W } { } $.$.@.@.W { %.9.! ! %.&.{ ! 8 1 B D : $                 ",
"                        $ o 0 f $.-.+.-.@.X.u u  .@.} 9.F.S.c c A.F.&.U 5 ; A A 2 o                 ",
"                        $ o 8 u  .1.<.4.>. .f f $.@.W %.J.H.k k H.K.0.G 6 ; V V < O                 ",
"                        $ 6 ` X.@.O.O.;.@.@.$.X.@.-.W $.J.G.k z G.K.0.! 6 X ; < # $                 ",
"                        % 7 $.3.@.@.;.:.;.@.<.1.Q @.{ &.L.H.M N G.J.8.H e < # % % $                 ",
"                        & 9  .>.O.@.@.@.O.O.4.4.1.@.W &.J.P.G.H.P.G.b e V V 2 +                     ",
"                        - 8 $.1.<.4.4.4.1.1.4.4.3.@.{ &.D.L.J.J.L.Z.k : Z A 1 +                     ",
"                        & 7  .>.1.<.4.1.>.>.1.@.<.@.{ } %.0.&.%.%.' 8 1 D A 2 +                     ",
"                        $ 9 ) X.X.X.X. .X. .1.1.;.-.| ~ ~ R E ~ ~ U 8 < V V > O                     ",
"                        & & 7 9 8 9 9 9 9 u $.4.} { { E E E ~ ( } U 6 o < < $ %                     ",
"                        $ % X % % $ # $ 8 u X.@.W { { { E ~ ( ~ G F 6 o % % # %                     ",
"                                    # 9 `  .@.@.@.+.@.+.{ ~ { U r 6 o #                             ",
"                                    O 9 2.6.6.7.6.w.6.6.....( U 8 # $ &                             ",
"                                    # s f.b.c.c.c.c.v.x.p.t._ ! 6 $                                 ",
"                                    # s k.N.N.N.n.n.N.n.a.i.[ ! 6 $                                 ",
"                                    . d k.N.M.N.m.N.N.n.a.i.[ / 6 . % % % %                         ",
"                                    . s j.N.N.N.m.n.h.z.u.r.] ! u 7 7 6 $ %                         ",
"                                    O j j.N.N.N.N.l.v a i g U W $.X.$.` 6 #                         ",
"                                    + j g.v.n.n.l.d.h 9 7 f G E -.,.o.` 4 #                         ",
"                                    X 8 q.e.s.u.n c | $.$.$.W E { ^ f 9 $ %                         ",
"                                    $ 7 X.5.y.r.i 5 X.@.;.+.W ^ / L 8 # % %                         ",
"                                    % 7  .<.5.*.9 6 ! W W W } / y 6 $ %                             ",
"                                    = 0 )  .@.X.8 8 H U G G ! I 6 X % %                             ",
"                                        t u =.=.9 X 8 9 6 6 6 0                                     ",
"                                        * 9 #.| f 8 % % % $ # %                                     ",
"                                            a p K J 8 %                                             ",
"                                            * 8 K F 6 %                                             ",
"                                                0 8 $ %                                             ",
"                                                * & & *                                             ",
"                                                                                                    ",
"                                                                                                    ",
"                                                                                                    ",
"                                                                                                    ",
"                                                                                                    ",
"                                                                                                    ",
"                                                                                                    ",
"                                                                                                    "
};
