/* XPM */
static char *e02d8ef364b0495889f0fceb197ce5834FRu0X52MnriHwzb[] = {
/* columns rows colors chars-per-pixel */
"50 50 171 2 ",
"   c None",
".  c #2D3C1E",
"X  c #313917",
"o  c #32371D",
"O  c #323A1D",
"+  c #3E3B1D",
"@  c #2F3622",
"#  c #2C3924",
"$  c #323624",
"%  c #393524",
"&  c #333924",
"*  c #33362A",
"=  c #35392A",
"-  c #383C2A",
";  c #3B352D",
":  c #3C3E37",
">  c #46351D",
",  c #49361E",
"<  c #43391D",
"1  c #463623",
"2  c #493622",
"3  c #443924",
"4  c #443729",
"5  c #4C3529",
"6  c #3C4317",
"7  c #3C4816",
"8  c #37451E",
"9  c #3B451C",
"0  c #364B1F",
"q  c #3C481E",
"w  c #3C4523",
"e  c #364922",
"r  c #3C4922",
"t  c #3A432A",
"y  c #3D5025",
"u  c #47431E",
"i  c #4D4319",
"p  c #43531C",
"a  c #4A551A",
"s  c #424523",
"d  c #4A4724",
"f  c #494927",
"g  c #454329",
"h  c #49482E",
"j  c #445323",
"k  c #4A5123",
"l  c #434632",
"z  c #4D4732",
"x  c #484A37",
"c  c #464D3B",
"v  c #48493C",
"b  c #42433A",
"n  c #4E5634",
"m  c #4F5A33",
"M  c #535533",
"N  c #484942",
"B  c #5D5E52",
"V  c #B73F2E",
"C  c #9B4535",
"Z  c #994A31",
"A  c #9C4439",
"S  c #A1422F",
"D  c #B1422F",
"F  c #A34035",
"G  c #AD4338",
"H  c #B24234",
"J  c #9A4441",
"K  c #7D953E",
"L  c #7A8742",
"P  c #7A874D",
"I  c #758A49",
"U  c #79894D",
"Y  c #7E9544",
"T  c #7E9848",
"R  c #889F3E",
"E  c #86A13C",
"W  c #89A23C",
"Q  c #8BA83E",
"!  c #819444",
"~  c #859C43",
"^  c #899E43",
"/  c #83924D",
"(  c #8B9E4B",
")  c #859D4B",
"_  c #959F4F",
"`  c #8B9E52",
"'  c #8C9C5A",
"]  c #9A9F51",
"[  c #999D58",
"{  c #86A142",
"}  c #8AA243",
"|  c #85A049",
" . c #8AA24A",
".. c #95A046",
"X. c #98A044",
"o. c #95AF47",
"O. c #99AF45",
"+. c #92A249",
"@. c #9AA34D",
"#. c #94AD4C",
"$. c #99AA4B",
"%. c #9DBB45",
"&. c #91B04B",
"*. c #99B64B",
"=. c #9EBA4C",
"-. c #8CAC56",
";. c #92A456",
":. c #9EA152",
">. c #94AC52",
",. c #95A65C",
"<. c #98A75F",
"1. c #95A95B",
"2. c #96B652",
"3. c #9EB655",
"4. c #9EB755",
"5. c #9EB951",
"6. c #9CBA52",
"7. c #9DB15F",
"8. c #9FBB58",
"9. c #A0BE46",
"0. c #A1BD47",
"q. c #A1BD4D",
"w. c #A1BC4C",
"e. c #A2AD51",
"r. c #A2BB52",
"t. c #A7B95A",
"y. c #ABBA5B",
"u. c #ABBA54",
"i. c #B4B751",
"p. c #B7BC5D",
"a. c #BABB59",
"s. c #8C9D66",
"d. c #97A763",
"f. c #9CA460",
"g. c #BBBB7F",
"h. c #BDB973",
"j. c #C3BD77",
"k. c #C6BA7F",
"l. c #CCB985",
"z. c #CAB789",
"x. c #C6B989",
"c. c #CDBC89",
"v. c #D2BC84",
"b. c #D1B68D",
"n. c #D1BF89",
"m. c #DDBB93",
"M. c #D6C790",
"N. c #E5C897",
"B. c #E5C79F",
"V. c #E8C79F",
"C. c #E6C99A",
"Z. c #ECD493",
"A. c #EBD895",
"S. c #EED39A",
"D. c #F4D499",
"F. c #FCD5A5",
"G. c #FED8A4",
"H. c #FED6AA",
"J. c #FED9A9",
"K. c #D9DED3",
"L. c #DDE2CE",
"P. c #DEE2D0",
"I. c #E4EBD4",
"U. c #E9ECDE",
"Y. c #E9EAE6",
"T. c #E9EAE3",
"R. c #EBEBEA",
"E. c #F2F5E3",
"W. c #F2F5E8",
"Q. c #F1F5E9",
"!. c #FFFEFE",
/* pixels */
"                                                                                                    ",
"                                                                                                    ",
"                                                                                                    ",
"                                                                                                    ",
"                                                                                                    ",
"                                                                                                    ",
"                                                                                                    ",
"                                                                                                    ",
"                                                                                                    ",
"                                                      b = = = = = = = = =                           ",
"                                                      l w 9 w w w w 9 . $                           ",
"                          o $ $ $ $ $ $ $ $ $ = - t r U ! K ! / ! Y I 8 O # #                       ",
"                          r q w r q q r q q q q q q p ! W W { | { W ! 9 o < 3                       ",
"                      $ t ( #.1.#.o.#.>.>.#.#.#.#.>.1.| E E { { { E Y 8 , C J 5 *                   ",
"                      $ r o.9.5.=.%.=.=.=.q.q.q.q.=.3.} { { { { { { ! w , G G 2 =                   ",
"                      $ w #.%. .| } } E Q =.=.6.5.Q W { ^ ^ ^ R R { Y t 2 D H , &                   ",
"                      = w ` #.} { } { W } #.#.5.5.{ { ,.,.! ! ,.1.} ! t 4 C F > O                   ",
"                      O & t j #.%.3.4.%.#.j j #.%.{ 1.I.L.n n P.I.,.! w . + , $ %                   ",
"                      O & w j #.9.r.r.9.>.p p #.=.{ ,.W.Y.v N Y.W.s.I i > & $ * ;                   ",
"                      = r ( #.=.w.q.q.q.=.#.#.=.5.{ ,.E.T.x v Y.U.m u Z S 2 O                       ",
"                      = q #.w.%.9.9.%.%.w.w.w.w.=.{ d.E.R.B B R.T.c > H V , O                       ",
"                      = r >.q.q.q.q.q.q.q.q.w.r.5.} d.W.!.R.R.!.Y.c > H H 5 %                       ",
"                      = w >.q.q.r.r.r.r.r.w.%.r.3.} ,.I.E.E.E.E.K.c > A A 4 #                       ",
"                      & q >.q.w.w.w.q.w.q.%.%.w.=.W } ;.1.,.<.1.' w $ 3 < & %                       ",
"                      & 7 ` >.#.#.#.>.$.#.%.%.%.*.{ { E ~ ^ ^ W Y w $ $ $ $ $                       ",
"                      = & w r r w w e s k >.=.+.} R ^ ^ ( W E { Y 9 $                               ",
"                      $ o O o $ $ # . l M 7.y.f.;.@.:.[ ;.E E Y I w $                               ",
"                                  & d b.C.A.A.D.S.S.Z.c.g.+.Y y t                                   ",
"                                  $ z V.J.J.G.G.G.H.F.m.x...Y 8 $                                   ",
"                                  * z B.H.G.H.G.G.H.F.m.z.@.! 9 X & = * *                           ",
"                                  @ f N.G.G.G.H.G.H.F.m.z.] / j q w q O $                           ",
"                                  @ h C.G.G.H.H.G.H.F.m.k.X.^ >.#.>.' q $                           ",
"                                  $ h M.D.F.H.F.F.D.S.c.h...W *.*.>.' q $                           ",
"                                  $ s e.p.n.m.m.n.a.i.:._ ( ^ } ~ j q X $                           ",
"                                  * g $.t.g.l.v.j.r.%. .| | ) ! L w o & *                           ",
"                                  * w >.r.t.y.u.t.8.=.6.2.{ Y p 6 & $                               ",
"                                  $ 0 #.w.q.*.&.>.,.>.=.6.} K 9 o $ *                               ",
"                                  $ q O.r. .! p q 7 a O.q. .Y w $                                   ",
"                                  * s | -.| K w @ . r ( #.} ! t *                                   ",
"                                      r j T ! w =     9 p ! ! 9 X                                   ",
"                                      $ 9 P P 9 =     - 9 P P 9 O                                   ",
"                                          q 9 O $         r 9 O $                                   ",
"                                          - = = :         - & * *                                   ",
"                                                                                                    ",
"                                                                                                    ",
"                                                                                                    ",
"                                                                                                    ",
"                                                                                                    ",
"                                                                                                    ",
"                                                                                                    "
};
