/* XPM */
static char *result[] = {
/* columns rows colors chars-per-pixel */
"50 50 170 2 ",
"   c #2E381E",
".  c #35371F",
"X  c #323B1C",
"o  c #2F3725",
"O  c #2E3923",
"+  c #2D392A",
"@  c #323624",
"#  c #333924",
"$  c #3D3B20",
"%  c #33352A",
"&  c #38372A",
"*  c #35392B",
"=  c #393A2E",
"-  c #3A3B31",
";  c #45371E",
":  c #49351F",
">  c #44391B",
",  c #473621",
"<  c #4A3523",
"1  c #433821",
"2  c #463528",
"3  c #493529",
"4  c #3A4616",
"5  c #394B17",
"6  c #35471B",
"7  c #3B451C",
"8  c #374A1D",
"9  c #3B491D",
"0  c #364523",
"q  c #3C4522",
"w  c #3B4920",
"e  c #354629",
"r  c #3E462B",
"t  c #354634",
"y  c #4D421D",
"u  c #414F1B",
"i  c #415A17",
"p  c #44561B",
"a  c #4B531B",
"s  c #464227",
"d  c #454F21",
"f  c #41432B",
"g  c #4E472E",
"h  c #404928",
"j  c #4B482C",
"k  c #445322",
"l  c #495324",
"z  c #5B5423",
"x  c #49453C",
"c  c #454A3D",
"v  c #484A3D",
"b  c #454B36",
"n  c #514432",
"m  c #4E5537",
"M  c #4F5538",
"N  c #4F583A",
"B  c #615134",
"V  c #5C5F4F",
"C  c #5C5E51",
"Z  c #B33F38",
"A  c #9E452D",
"S  c #9C4533",
"D  c #974833",
"F  c #96473A",
"G  c #9C433A",
"H  c #B3422B",
"J  c #A24233",
"K  c #AF4334",
"L  c #B24234",
"P  c #B04139",
"I  c #76893E",
"U  c #7D953C",
"Y  c #7E983C",
"T  c #788747",
"R  c #758945",
"E  c #798847",
"W  c #7A8749",
"Q  c #7E9345",
"!  c #7F9843",
"~  c #749649",
"^  c #789548",
"/  c #81953E",
"(  c #8A9E3C",
")  c #85A23C",
"_  c #89A33D",
"`  c #819444",
"'  c #869E44",
"]  c #8A9F43",
"[  c #829449",
"{  c #8B9F4C",
"}  c #9B9F47",
"|  c #9C9E4E",
" . c #8C9C51",
".. c #8B9E5B",
"X. c #969F55",
"o. c #86A142",
"O. c #8AA243",
"+. c #89A14B",
"@. c #96A047",
"#. c #94AE46",
"$. c #97A34C",
"%. c #99A048",
"&. c #94AD4C",
"*. c #9BAC4C",
"=. c #9CBB46",
"-. c #9AB74B",
";. c #9DBA4C",
":. c #8EA050",
">. c #8FAB5D",
",. c #94AC52",
"<. c #9EAF55",
"1. c #94A65D",
"2. c #94A85C",
"3. c #9CB652",
"4. c #9DBA52",
"5. c #A2BE46",
"6. c #A0BC4C",
"7. c #A2AE57",
"8. c #A4AA5A",
"9. c #A2B551",
"0. c #A1BB52",
"q. c #ABBB55",
"w. c #A7B65E",
"e. c #ACBD5B",
"r. c #B3BD54",
"t. c #95A763",
"y. c #97A960",
"u. c #A0A961",
"i. c #B9BC61",
"p. c #BEB876",
"a. c #B5B078",
"s. c #BFBB7C",
"d. c #B9B8B1",
"f. c #C6B284",
"g. c #C1BE80",
"h. c #CBBB82",
"j. c #CAB688",
"k. c #C6B889",
"l. c #CBBB88",
"z. c #D0BC80",
"x. c #D2BD88",
"c. c #DDBB94",
"v. c #DEB99A",
"b. c #E0BC8F",
"n. c #DAC590",
"m. c #D2C991",
"M. c #E0C697",
"N. c #E5C79C",
"B. c #E3C99C",
"V. c #EDD393",
"C. c #F2D695",
"Z. c #F2D69B",
"A. c #F0D99A",
"S. c #E7C8A1",
"D. c #FDD5A5",
"F. c #FED8A4",
"G. c #FFD6AB",
"H. c #FED9A9",
"J. c #F5D2AA",
"K. c #DCDED0",
"L. c #DFE1D2",
"P. c #E4EBCC",
"I. c #E7ECD3",
"U. c #EBEBE5",
"Y. c #E5EAE8",
"T. c #EBEBEA",
"R. c #F2F5E5",
"E. c #F3F6E9",
"W. c #FDFEFE",
"Q. c None",
/* pixels */
"Q.Q.Q.Q.Q.Q.Q.Q.Q.Q.Q.Q.Q.Q.Q.Q.Q.Q.Q.Q.Q.Q.Q.Q.Q.Q.Q.Q.Q.Q.Q.Q.Q.Q.Q.Q.Q.Q.Q.Q.Q.Q.Q.Q.Q.Q.Q.Q.Q.Q.",
"Q.Q.Q.Q.Q.Q.Q.Q.Q.Q.Q.Q.Q.Q.Q.Q.Q.Q.Q.Q.Q.Q.Q.Q.Q.Q.Q.Q.Q.Q.Q.Q.Q.Q.Q.Q.Q.Q.Q.Q.Q.Q.Q.Q.Q.Q.Q.Q.Q.Q.",
"Q.Q.Q.Q.Q.Q.Q.Q.Q.Q.Q.Q.Q.Q.Q.Q.Q.Q.Q.Q.Q.Q.Q.Q.Q.Q.Q.Q.Q.Q.Q.Q.Q.Q.Q.Q.Q.Q.Q.Q.Q.Q.Q.Q.Q.Q.Q.Q.Q.Q.",
"Q.Q.Q.Q.Q.Q.Q.Q.Q.Q.Q.Q.Q.Q.Q.Q.Q.Q.Q.Q.Q.Q.Q.Q.Q.Q.Q.Q.Q.Q.Q.Q.Q.Q.Q.Q.Q.Q.Q.Q.Q.Q.Q.Q.Q.Q.Q.Q.Q.Q.",
"Q.Q.Q.Q.Q.Q.Q.Q.Q.Q.Q.Q.Q.Q.Q.Q.Q.Q.Q.Q.Q.Q.Q.Q.Q.Q.Q.Q.Q.Q.Q.Q.Q.Q.Q.Q.Q.Q.Q.Q.Q.Q.Q.Q.Q.Q.Q.Q.Q.Q.",
"Q.Q.Q.Q.Q.Q.Q.Q.Q.Q.Q.Q.Q.Q.Q.Q.Q.Q.Q.Q.Q.Q.Q.Q.Q.Q.Q.Q.Q.Q.Q.Q.Q.Q.Q.Q.Q.Q.Q.Q.Q.Q.Q.Q.Q.Q.Q.Q.Q.Q.",
"Q.Q.Q.Q.Q.Q.Q.Q.Q.Q.Q.Q.Q.Q.Q.Q.Q.Q.Q.Q.Q.Q.Q.Q.Q.Q.Q.Q.Q.Q.Q.Q.Q.Q.Q.Q.Q.Q.Q.Q.Q.Q.Q.Q.Q.Q.Q.Q.Q.Q.",
"Q.Q.Q.Q.Q.Q.Q.Q.Q.Q.Q.Q.Q.Q.Q.Q.Q.Q.Q.Q.Q.Q.Q.Q.Q.Q.Q.Q.Q.Q.Q.Q.Q.Q.Q.Q.Q.Q.Q.Q.Q.Q.Q.Q.Q.Q.Q.Q.Q.Q.",
"Q.Q.Q.Q.Q.Q.Q.Q.Q.Q.Q.Q.Q.Q.Q.Q.Q.Q.Q.Q.Q.Q.Q.Q.Q.Q.Q.Q.Q.Q.Q.Q.Q.Q.Q.Q.Q.Q.Q.Q.Q.Q.Q.Q.Q.Q.Q.Q.Q.Q.",
"Q.Q.Q.Q.Q.Q.Q.Q.Q.Q.Q.Q.Q.Q.Q.Q.Q.Q.Q.Q.Q.Q.Q.Q.Q.Q.Q.Q.Q.Q.Q.Q.Q.Q.Q.Q.Q.Q.Q.Q.Q.Q.Q.Q.Q.Q.Q.Q.Q.Q.",
"Q.Q.Q.Q.Q.Q.Q.Q.Q.Q.Q.% + + @ # # @ % @ # # @ # * * @ @ # @ @ @ @ @ # Q.Q.Q.Q.Q.Q.Q.Q.Q.Q.Q.Q.Q.Q.Q.",
"Q.Q.Q.Q.Q.Q.Q.Q.Q.Q.Q.% # 6 7 7 0 q 0 0 0 9 9 9 9 w 9 9 9 w 9 9 q s h Q.Q.Q.Q.Q.Q.Q.Q.Q.Q.Q.Q.Q.Q.Q.",
"Q.Q.Q.Q.Q.Q.Q.Q.Q.% # . 7 T Q Q Q ` Q ` Q ,.,.,.&.,.&.,.&.,.,.,.&.&.O.9 # Q.Q.Q.Q.Q.Q.Q.Q.Q.Q.Q.Q.Q.",
"Q.Q.Q.Q.Q.Q.Q.Q.Q.< ; # 7 [ ) ' O.' O.' O.4.4.6.6.6.6.;.;.;.;.6.0.0.*.9 # Q.Q.Q.Q.Q.Q.Q.Q.Q.Q.Q.Q.Q.",
"Q.Q.Q.Q.Q.Q.Q.% < G F ; 4 ` ( ' o.o.' ' _ _ _ ;.6.0.4.O.O._ O.O.O.0.&.w * Q.Q.Q.Q.Q.Q.Q.Q.Q.Q.Q.Q.Q.",
"Q.Q.Q.Q.Q.Q.Q.@ < P P : 6 Q o.t.1.` ` 2.2.O._ ;.6.,.,.O._ O.O.O.o.&.{ q * Q.Q.Q.Q.Q.Q.Q.Q.Q.Q.Q.Q.Q.",
"Q.Q.Q.Q.Q.Q.Q.o 3 L L < 6 ~ 2.I.L.m M L.I.2._ 4.&.w k &.;.;.;.;.$.k w # * Q.Q.Q.Q.Q.Q.Q.Q.Q.Q.Q.Q.Q.",
"Q.Q.Q.Q.Q.Q.Q.# < A D < 7 Q t.E.U.c c T.E.2.) ;.-.i i &.5.;.0.6.#.p 4 X * Q.Q.Q.Q.Q.Q.Q.Q.Q.Q.Q.Q.Q.",
"Q.Q.Q.Q.Q.Q.Q.* X > . . 7 ~ >.R.U.x v T.R.2._ =.;.,.,.6.6.0.6.6.6.,.{ 7 * Q.Q.Q.Q.Q.Q.Q.Q.Q.Q.Q.Q.Q.",
"Q.Q.Q.Q.Q.Q.Q.= & # O : y R ..R.U.V C U.R.2._ ;.5.6.6.6.6.0.;.6.6.9.&.u * Q.Q.Q.Q.Q.Q.Q.Q.Q.Q.Q.Q.Q.",
"Q.Q.Q.Q.Q.Q.Q.Q.Q.* < J A y M Y.W.T.T.W.R.t.O.-.0.5.6.0.0.4.6.6.6.6.&.9 & Q.Q.Q.Q.Q.Q.Q.Q.Q.Q.Q.Q.Q.",
"Q.Q.Q.Q.Q.Q.Q.Q.Q.* < L K > b K.R.E.R.R.P.t.+.-.0.6.0.0.6.5.6.6.0.0.$.q = Q.Q.Q.Q.Q.Q.Q.Q.Q.Q.Q.Q.Q.",
"Q.Q.Q.Q.Q.Q.Q.Q.Q.& < L H : 0 ..2.2.2.t.t.O.+.4.6.6.0.4.5.5.0.6.6.6.,.w # Q.Q.Q.Q.Q.Q.Q.Q.Q.Q.Q.Q.Q.",
"Q.Q.Q.Q.Q.Q.Q.Q.Q.O $ S S 2 0 U ) o.' ' ' ) O.-.=.6.4.,.#.&.,.&.&.-. .r # Q.Q.Q.Q.Q.Q.Q.Q.Q.Q.Q.Q.Q.",
"Q.Q.Q.Q.Q.Q.Q.Q.Q.# X 1 3 % 4 Q { ' ) +.o.' ' o.o.=.&.k w w 5 w q u q . & Q.Q.Q.Q.Q.Q.Q.Q.Q.Q.Q.Q.Q.",
"Q.Q.Q.Q.Q.Q.Q.Q.Q.- # # % # 7 R [ ( ) ' ] O.O.O.O.;.-.a q O # v & % % % = Q.Q.Q.Q.Q.Q.Q.Q.Q.Q.Q.Q.Q.",
"Q.Q.Q.Q.Q.Q.Q.Q.Q.Q.Q.Q.Q.*   4 u ` o.' o.-.3.4.;.4.;.-. .0 c d.Q.Q.Q.Q.Q.Q.Q.Q.Q.Q.Q.Q.Q.Q.Q.Q.Q.Q.",
"Q.Q.Q.Q.Q.Q.Q.Q.Q.Q.Q.Q.Q.= @ @ q ^ +. .$.r.e.e.e.e.0.r.7.w t Q.Q.Q.Q.Q.Q.Q.Q.Q.Q.Q.Q.Q.Q.Q.Q.Q.Q.Q.",
"Q.Q.Q.Q.Q.Q.Q.Q.Q.Q.Q.Q.Q.Q.Q.* q ` } p.z.V.V.Z.Z.Z.C.Z.n.j % Q.Q.Q.Q.Q.Q.Q.Q.Q.Q.Q.Q.Q.Q.Q.Q.Q.Q.Q.",
"Q.Q.Q.Q.Q.Q.Q.Q.Q.Q.Q.Q.Q.Q.Q.* 0 ` } k.c.D.F.G.G.G.F.G.S.j o Q.Q.Q.Q.Q.Q.Q.Q.Q.Q.Q.Q.Q.Q.Q.Q.Q.Q.Q.",
"Q.Q.Q.Q.Q.Q.Q.Q.Q.Q.Q.Q.Q.Q.Q.* e Q $.k.v.D.F.F.F.F.F.G.B.j O Q.Q.Q.Q.Q.Q.Q.Q.Q.Q.Q.Q.Q.Q.Q.Q.Q.Q.Q.",
"Q.Q.Q.Q.Q.Q.Q.Q.Q.Q.Q.Q.Q.Q.Q.h w U } j.v.D.F.F.F.G.G.F.M.g % Q.Q.Q.Q.Q.Q.Q.Q.Q.Q.Q.Q.Q.Q.Q.Q.Q.Q.Q.",
"Q.Q.Q.Q.Q.Q.Q.Q.Q.Q.Q.* # O 9 :.&.O.| h.c.G.H.H.H.G.G.G.S.n % Q.Q.Q.Q.Q.Q.Q.Q.Q.Q.Q.Q.Q.Q.Q.Q.Q.Q.Q.",
"Q.Q.Q.Q.Q.Q.Q.Q.Q.Q.Q.@ O 7 i ,.-.O.:.g.x.n.S.J.D.Z.D.A.m.j % Q.Q.Q.Q.Q.Q.Q.Q.Q.Q.Q.Q.Q.Q.Q.Q.Q.Q.Q.",
"Q.Q.Q.Q.Q.Q.Q.Q.Q.Q.Q.@ q +.&.O.o._ O.w.8.z B f.c.c.x.i.3.4   # - Q.Q.Q.Q.Q.Q.Q.Q.Q.Q.Q.Q.Q.Q.Q.Q.Q.",
"Q.Q.Q.Q.Q.Q.Q.Q.Q.Q.Q.@ h O.#.[ Q o.O.-.$.4 s a.h.l.g.q.&.i 7 % % Q.Q.Q.Q.Q.Q.Q.Q.Q.Q.Q.Q.Q.Q.Q.Q.Q.",
"Q.Q.Q.Q.Q.Q.Q.Q.Q.Q.Q.@ % 7 u $ d [ +.o.Q 7 f u.q.q.q.9.0.&.+.r % Q.Q.Q.Q.Q.Q.Q.Q.Q.Q.Q.Q.Q.Q.Q.Q.Q.",
"Q.Q.Q.Q.Q.Q.Q.Q.Q.Q.Q.% % % % % $ W Q U R 0 s { &.&.*.9.9.5.#.9 @ Q.Q.Q.Q.Q.Q.Q.Q.Q.Q.Q.Q.Q.Q.Q.Q.Q.",
"Q.Q.Q.Q.Q.Q.Q.Q.Q.Q.Q.Q.Q.Q.Q.. # q 7 7 7 @ # 9 8 e l [ &.;.&.q @ Q.Q.Q.Q.Q.Q.Q.Q.Q.Q.Q.Q.Q.Q.Q.Q.Q.",
"Q.Q.Q.Q.Q.Q.Q.Q.Q.Q.Q.Q.Q.Q.Q.@   O @ @ # # # # # @ 7 I U &.+.r % Q.Q.Q.Q.Q.Q.Q.Q.Q.Q.Q.Q.Q.Q.Q.Q.Q.",
"Q.Q.Q.Q.Q.Q.Q.Q.Q.Q.Q.Q.Q.Q.Q.Q.Q.Q.Q.Q.Q.Q.Q.Q.Q.% X q 7 w r Q.Q.Q.Q.Q.Q.Q.Q.Q.Q.Q.Q.Q.Q.Q.Q.Q.Q.Q.",
"Q.Q.Q.Q.Q.Q.Q.Q.Q.Q.Q.Q.Q.Q.Q.Q.Q.Q.Q.Q.Q.Q.Q.Q.Q.- & # & * & Q.Q.Q.Q.Q.Q.Q.Q.Q.Q.Q.Q.Q.Q.Q.Q.Q.Q.Q.",
"Q.Q.Q.Q.Q.Q.Q.Q.Q.Q.Q.Q.Q.Q.Q.Q.Q.Q.Q.Q.Q.Q.Q.Q.Q.Q.Q.Q.Q.Q.Q.Q.Q.Q.Q.Q.Q.Q.Q.Q.Q.Q.Q.Q.Q.Q.Q.Q.Q.Q.",
"Q.Q.Q.Q.Q.Q.Q.Q.Q.Q.Q.Q.Q.Q.Q.Q.Q.Q.Q.Q.Q.Q.Q.Q.Q.Q.Q.Q.Q.Q.Q.Q.Q.Q.Q.Q.Q.Q.Q.Q.Q.Q.Q.Q.Q.Q.Q.Q.Q.Q.",
"Q.Q.Q.Q.Q.Q.Q.Q.Q.Q.Q.Q.Q.Q.Q.Q.Q.Q.Q.Q.Q.Q.Q.Q.Q.Q.Q.Q.Q.Q.Q.Q.Q.Q.Q.Q.Q.Q.Q.Q.Q.Q.Q.Q.Q.Q.Q.Q.Q.Q.",
"Q.Q.Q.Q.Q.Q.Q.Q.Q.Q.Q.Q.Q.Q.Q.Q.Q.Q.Q.Q.Q.Q.Q.Q.Q.Q.Q.Q.Q.Q.Q.Q.Q.Q.Q.Q.Q.Q.Q.Q.Q.Q.Q.Q.Q.Q.Q.Q.Q.Q.",
"Q.Q.Q.Q.Q.Q.Q.Q.Q.Q.Q.Q.Q.Q.Q.Q.Q.Q.Q.Q.Q.Q.Q.Q.Q.Q.Q.Q.Q.Q.Q.Q.Q.Q.Q.Q.Q.Q.Q.Q.Q.Q.Q.Q.Q.Q.Q.Q.Q.Q.",
"Q.Q.Q.Q.Q.Q.Q.Q.Q.Q.Q.Q.Q.Q.Q.Q.Q.Q.Q.Q.Q.Q.Q.Q.Q.Q.Q.Q.Q.Q.Q.Q.Q.Q.Q.Q.Q.Q.Q.Q.Q.Q.Q.Q.Q.Q.Q.Q.Q.Q.",
"Q.Q.Q.Q.Q.Q.Q.Q.Q.Q.Q.Q.Q.Q.Q.Q.Q.Q.Q.Q.Q.Q.Q.Q.Q.Q.Q.Q.Q.Q.Q.Q.Q.Q.Q.Q.Q.Q.Q.Q.Q.Q.Q.Q.Q.Q.Q.Q.Q.Q.",
"Q.Q.Q.Q.Q.Q.Q.Q.Q.Q.Q.Q.Q.Q.Q.Q.Q.Q.Q.Q.Q.Q.Q.Q.Q.Q.Q.Q.Q.Q.Q.Q.Q.Q.Q.Q.Q.Q.Q.Q.Q.Q.Q.Q.Q.Q.Q.Q.Q.Q."
};
