/* XPM */
static char *result[] = {
/* columns rows colors chars-per-pixel */
"50 50 159 2 ",
"   c #2C391F",
".  c #32371E",
"X  c #33391E",
"o  c #2F3723",
"O  c #2D3923",
"+  c #2C3A28",
"@  c #333624",
"#  c #333924",
"$  c #333629",
"%  c #34382A",
"&  c #393A2D",
"*  c #353733",
"=  c #323832",
"-  c #46371F",
";  c #49351E",
":  c #45391D",
">  c #48381B",
",  c #453623",
"<  c #493623",
"1  c #463820",
"2  c #483825",
"3  c #3A4717",
"4  c #35471D",
"5  c #3A451D",
"6  c #3C491C",
"7  c #3C4523",
"8  c #3B4822",
"9  c #3D4329",
"0  c #364525",
"q  c #3F4436",
"w  c #41461C",
"e  c #4D421B",
"r  c #434F1F",
"t  c #415017",
"y  c #45551C",
"u  c #444524",
"i  c #454F22",
"p  c #44472D",
"a  c #4C472F",
"s  c #4A492F",
"d  c #455223",
"f  c #485129",
"g  c #50542B",
"h  c #4B4732",
"j  c #464B35",
"k  c #484C36",
"l  c #46493B",
"z  c #484C3E",
"x  c #4E5533",
"c  c #5E5737",
"v  c #515835",
"b  c #605230",
"n  c #4A4C42",
"m  c #5C5F4F",
"M  c #5C5D54",
"N  c #B43F38",
"B  c #9D4533",
"V  c #9E423A",
"C  c #B3422F",
"Z  c #A04333",
"A  c #AE4432",
"S  c #B34230",
"D  c #758B3D",
"F  c #7E943D",
"G  c #7B8743",
"H  c #768B41",
"J  c #798A45",
"K  c #78874C",
"L  c #77884C",
"P  c #7A884A",
"I  c #7E9443",
"U  c #7F9448",
"Y  c #81973D",
"T  c #879F3D",
"R  c #87A13C",
"E  c #8AA33D",
"W  c #9FBE3F",
"Q  c #819344",
"!  c #869E43",
"~  c #889D45",
"^  c #839349",
"/  c #879F48",
"(  c #8B9E4B",
")  c #989F4E",
"_  c #8C9E52",
"`  c #8C9C5A",
"'  c #969D51",
"]  c #9B9E53",
"[  c #86A143",
"{  c #8AA243",
"}  c #8AA24C",
"|  c #95AF46",
" . c #93A34F",
".. c #95AD4C",
"X. c #98AF4E",
"o. c #9EBD46",
"O. c #9CB64E",
"+. c #9EBA4C",
"@. c #8BA153",
"#. c #95AC52",
"$. c #94A75D",
"%. c #95A95B",
"&. c #9CAA58",
"*. c #92B153",
"=. c #9DB652",
"-. c #9EBA52",
";. c #9EBB58",
":. c #A1BE45",
">. c #A0B64F",
",. c #A1BC4B",
"<. c #A0AE5E",
"1. c #A0BB52",
"2. c #A9BB53",
"3. c #ABBE5B",
"4. c #B0BC5C",
"5. c #8E9E60",
"6. c #94A663",
"7. c #97A862",
"8. c #9BAA61",
"9. c #AEBC60",
"0. c #B8BA67",
"q. c #B8AD7D",
"w. c #C0B678",
"e. c #C2BF7C",
"r. c #CAAF85",
"t. c #CAB984",
"y. c #D1BA87",
"u. c #DCBD8F",
"i. c #D4BE8B",
"p. c #D5B790",
"a. c #D9C78D",
"s. c #DCC492",
"d. c #EBC897",
"f. c #E9C69A",
"g. c #E5C898",
"h. c #EBC99B",
"j. c #E3C398",
"k. c #EED19E",
"l. c #F2D597",
"z. c #F4D59D",
"x. c #F0D999",
"c. c #FBD5A5",
"v. c #FCD9A6",
"b. c #FED6AA",
"n. c #FFD8A9",
"m. c #C7C8C3",
"M. c #C9C9C7",
"N. c #CECFCB",
"B. c #DDDFCF",
"V. c #DDE1CE",
"C. c #DBE1D3",
"Z. c #E4EACF",
"A. c #E4ECD1",
"S. c #EAEBE5",
"D. c #EAEBE9",
"F. c #F2F5E5",
"G. c #F2F5E9",
"H. c #FEFEFD",
"J. c None",
/* pixels */
"J.J.J.J.J.J.J.J.J.J.J.J.J.J.J.J.J.J.J.J.J.J.J.J.J.J.J.J.J.J.J.J.J.J.J.J.J.J.J.J.J.J.J.J.J.J.J.J.J.J.",
"J.J.J.J.J.J.J.J.J.J.J.J.J.J.J.J.J.J.J.J.J.J.J.J.J.J.J.J.J.J.J.J.J.J.J.J.J.J.J.J.J.J.J.J.J.J.J.J.J.J.",
"J.J.J.J.J.J.J.J.J.J.J.J.J.J.J.J.J.J.J.J.J.J.J.J.J.J.J.J.J.J.J.J.J.J.J.J.J.J.J.J.J.J.J.J.J.J.J.J.J.J.",
"J.J.J.J.J.J.J.J.J.J.J.J.J.J.J.J.J.J.J.J.J.J.J.J.J.J.J.J.J.J.J.J.J.J.J.J.J.J.J.J.J.J.J.J.J.J.J.J.J.J.",
"J.J.J.J.J.J.J.J.J.J.J.J.J.J.J.J.J.J.J.J.J.J.J.J.J.J.J.J.J.J.J.J.J.J.J.J.J.J.J.J.J.J.J.J.J.J.J.J.J.J.",
"J.J.J.J.J.J.J.J.J.J.J.J.J.J.J.J.J.J.J.J.J.J.J.J.J.J.J.J.J.J.J.J.J.J.J.J.J.J.J.J.J.J.J.J.J.J.J.J.J.J.",
"J.J.J.J.J.J.J.J.J.J.J.J.J.J.J.J.J.J.J.J.J.J.J.J.J.J.J.J.J.J.J.J.J.J.J.J.J.J.J.J.J.J.J.J.J.J.J.J.J.J.",
"J.J.J.J.J.J.J.J.J.J.J.J.J.J.J.J.J.J.J.J.M.M.N.N.J.J.J.J.J.J.J.J.J.J.J.J.J.J.J.J.J.J.J.J.J.J.J.J.J.J.",
"J.J.J.J.J.J.J.J.J.J.J.J.# # # % % # # q z n n k 9 # X # # # # # + + $ $ J.J.J.J.J.J.J.J.J.J.J.J.J.J.",
"J.J.J.J.J.J.J.J.J.J.J.J.. X 5 5 0 3 5 5 5 7 7 3 5 7 u 7 6 6 w 5 6 6 6 6 J.J.J.J.J.J.J.J.J.J.J.J.J.J.",
"J.J.J.J.J.J.J.J.J.J.o +   0 P Q Q I Q Q Y Y %.#.#.#.#.X.X...X.#.#...| } 8 $ J.J.J.J.J.J.J.J.J.J.J.J.",
"J.J.J.J.J.J.J.J.J.J.> - @ 7 ^ R R E ! R T R =.1.,.1.1.,.+.+.=.-.-.-.,...6 O J.J.J.J.J.J.J.J.J.J.J.J.",
"J.J.J.J.J.J.J.J.+ 2 Z V 2 0 I T R ! [ [ ! T { E +.,.,.O.{ { { E E E ,.#.6 # J.J.J.J.J.J.J.J.J.J.J.J.",
"J.J.J.J.J.J.J.J.# ; S S < 0 I [ $.$.Q ^ 6.$.{ R +.,.#.%.{ { { E E E #._ 8 # J.J.J.J.J.J.J.J.J.J.J.J.",
"J.J.J.J.J.J.J.J.X : A A , 4 I %.Z.V.x v C.A.6.( +.| y y ..:.=.+.;.#.d 9 # # J.J.J.J.J.J.J.J.J.J.J.J.",
"J.J.J.J.J.J.J.J.O , B B < 5 F 6.G.D.l j D.F.$.E >...d d | :.1.1.,.| y 7 X # J.J.J.J.J.J.J.J.J.J.J.J.",
"J.J.J.J.J.J.J.J.# X < ; # 5 Q 8.G.D.l j D.F.#.E >.,...#.+.+.;.o.o.+...} 5 # J.J.J.J.J.J.J.J.J.J.J.J.",
"J.J.J.J.J.J.J.J.# @ $ @ , e G ` F.S.m m D.G.$.! +.o.,.1.+.+.;.-.+.+.-.*.6 # J.J.J.J.J.J.J.J.J.J.J.J.",
"J.J.J.J.J.J.J.J.J.J.+ - B B > v S.H.D.S.H.F.%.E +.,.,.1.o.o.,.,.+.o.:...8 % J.J.J.J.J.J.J.J.J.J.J.J.",
"J.J.J.J.J.J.J.J.J.J.+ < A C ; j V.G.F.F.G.Z.%.{ +.>.1.1.,.,.-.;.1.,.,.#.p * J.J.J.J.J.J.J.J.J.J.J.J.",
"J.J.J.J.J.J.J.J.J.J.+ ; A S < 9 ` %.$.%.7.$.{ { +.,.+.,.:.:.,.1.+.,.:...8 % J.J.J.J.J.J.J.J.J.J.J.J.",
"J.J.J.J.J.J.J.J.J.J.O > B B , 7 ^ ! ! T T [ ! } =.+.,.,.| ....#...X.X.( 7 # J.J.J.J.J.J.J.J.J.J.J.J.",
"J.J.J.J.J.J.J.J.J.J.$ X , , X 5 I { / ~ R R T R { { 1.#.y 7 8 u 7 8 u 5 # & J.J.J.J.J.J.J.J.J.J.J.J.",
"J.J.J.J.J.J.J.J.J.J.$ # $ % X 5 D Y / / ! R { { { E +...y 7 # X # $ # . % # J.J.J.J.J.J.J.J.J.J.J.J.",
"J.J.J.J.J.J.J.J.J.J.J.J.J.J.$ X X r Q ~ [ { O.+.+.+.:.+...( 7 # J.J.J.J.J.J.J.J.J.J.J.J.J.J.J.J.J.J.",
"J.J.J.J.J.J.J.J.J.J.J.J.J.J.% # $ 7 I (  . .2.3.9.3.4.3.3.<.8 # J.J.J.J.J.J.J.J.J.J.J.J.J.J.J.J.J.J.",
"J.J.J.J.J.J.J.J.J.J.J.J.J.J.J.J.# 6 Y ) q.y.h.z.x.l.l.l.l.a.s @ J.J.J.J.J.J.J.J.J.J.J.J.J.J.J.J.J.J.",
"J.J.J.J.J.J.J.J.J.J.J.J.J.J.J.J.# 5 Q ] t.a.v.b.b.c.b.b.n.g.s o J.J.J.J.J.J.J.J.J.J.J.J.J.J.J.J.J.J.",
"J.J.J.J.J.J.J.J.J.J.J.J.$ % # # X 4 ^ ] t.u.v.b.v.v.b.b.n.g.s O J.J.J.J.J.J.J.J.J.J.J.J.J.J.J.J.J.J.",
"J.J.J.J.J.J.J.J.J.J.J.J.$ # 6 6 3 y Q ' q.r.j.d.c.v.b.b.b.f.s   J.J.J.J.J.J.J.J.J.J.J.J.J.J.J.J.J.J.",
"J.J.J.J.J.J.J.J.J.J.J.J.o 3 _ #.#...E I f p j b f.v.v.b.b.f.h O J.J.J.J.J.J.J.J.J.J.J.J.J.J.J.J.J.J.",
"J.J.J.J.J.J.J.J.J.J.J.J.@ 3 _ X.O.-.E F d 8 8 f p.f.c.c.z.s.h O J.J.J.J.J.J.J.J.J.J.J.J.J.J.J.J.J.J.",
"J.J.J.J.J.J.J.J.J.J.J.J.$ # u y Q { R R #.#.#.} x b r.i.0.&.p . J.J.J.J.J.J.J.J.J.J.J.J.J.J.J.J.J.J.",
"J.J.J.J.J.J.J.J.J.J.J.J.$ $ . & K ^ ~ E =.,.+...4 u q.e.2...3 # J.J.J.J.J.J.J.J.J.J.J.J.J.J.J.J.J.J.",
"J.J.J.J.J.J.J.J.J.J.J.J.J.J.$ # 5 t ^ ! R { E Y 7 8 &.2.,...8 # J.J.J.J.J.J.J.J.J.J.J.J.J.J.J.J.J.J.",
"J.J.J.J.J.J.J.J.J.J.J.J.J.J.$ $ @ 3 P I Y F Q J 7 8 ..+.X.} 9 = J.J.J.J.J.J.J.J.J.J.J.J.J.J.J.J.J.J.",
"J.J.J.J.J.J.J.J.J.J.J.J.J.J.J.J.J.J.9 5 5 4 7 7 . 0 *.*.y w J.J.J.J.J.J.J.J.J.J.J.J.J.J.J.J.J.J.J.J.",
"J.J.J.J.J.J.J.J.J.J.J.J.J.J.J.J.J.J.$ @ @ # $ $ 7 d } _ 7 & J.J.J.J.J.J.J.J.J.J.J.J.J.J.J.J.J.J.J.J.",
"J.J.J.J.J.J.J.J.J.J.J.J.J.J.J.J.J.J.J.J.J.J.$ 5 D P d u J.J.J.J.J.J.J.J.J.J.J.J.J.J.J.J.J.J.J.J.J.J.",
"J.J.J.J.J.J.J.J.J.J.J.J.J.J.J.J.J.J.J.J.J.J.$ 5 D J 7 & J.J.J.J.J.J.J.J.J.J.J.J.J.J.J.J.J.J.J.J.J.J.",
"J.J.J.J.J.J.J.J.J.J.J.J.J.J.J.J.J.J.J.J.J.J.% # 7 p J.J.J.J.J.J.J.J.J.J.J.J.J.J.J.J.J.J.J.J.J.J.J.J.",
"J.J.J.J.J.J.J.J.J.J.J.J.J.J.J.J.J.J.J.J.J.J.& % $ & J.J.J.J.J.J.J.J.J.J.J.J.J.J.J.J.J.J.J.J.J.J.J.J.",
"J.J.J.J.J.J.J.J.J.J.J.J.J.J.J.J.J.J.J.J.J.J.J.J.J.J.J.J.J.J.J.J.J.J.J.J.J.J.J.J.J.J.J.J.J.J.J.J.J.J.",
"J.J.J.J.J.J.J.J.J.J.J.J.J.J.J.J.J.J.J.J.J.J.J.J.J.J.J.J.J.J.J.J.J.J.J.J.J.J.J.J.J.J.J.J.J.J.J.J.J.J.",
"J.J.J.J.J.J.J.J.J.J.J.J.J.J.J.J.J.J.J.J.J.J.J.J.J.J.J.J.J.J.J.J.J.J.J.J.J.J.J.J.J.J.J.J.J.J.J.J.J.J.",
"J.J.J.J.J.J.J.J.J.J.J.J.J.J.J.J.J.J.J.J.J.J.J.J.J.J.J.J.J.J.J.J.J.J.J.J.J.J.J.J.J.J.J.J.J.J.J.J.J.J.",
"J.J.J.J.J.J.J.J.J.J.J.J.J.J.J.J.J.J.J.J.J.J.J.J.J.J.J.J.J.J.J.J.J.J.J.J.J.J.J.J.J.J.J.J.J.J.J.J.J.J.",
"J.J.J.J.J.J.J.J.J.J.J.J.J.J.J.J.J.J.J.J.J.J.J.J.J.J.J.J.J.J.J.J.J.J.J.J.J.J.J.J.J.J.J.J.J.J.J.J.J.J.",
"J.J.J.J.J.J.J.J.J.J.J.J.J.J.J.J.J.J.J.J.J.J.J.J.J.J.J.J.J.J.J.J.J.J.J.J.J.J.J.J.J.J.J.J.J.J.J.J.J.J.",
"J.J.J.J.J.J.J.J.J.J.J.J.J.J.J.J.J.J.J.J.J.J.J.J.J.J.J.J.J.J.J.J.J.J.J.J.J.J.J.J.J.J.J.J.J.J.J.J.J.J."
};
