/* XPM */
static char *result[] = {
/* columns rows colors chars-per-pixel */
"50 50 196 2 ",
"   c #2E3D3E",
".  c #2C3E40",
"X  c #303F40",
"o  c #264643",
"O  c #2E4544",
"+  c #2B4946",
"@  c #2D4A49",
"#  c #324443",
"$  c #334D4C",
"%  c #3A4B4C",
"&  c #364648",
"*  c #2E504D",
"=  c #33514E",
"-  c #3E4F51",
";  c #355453",
":  c #3C5555",
">  c #3A5957",
",  c #385758",
"<  c #365C5B",
"1  c #3C5C5A",
"2  c #375B57",
"3  c #3F605E",
"4  c #3E6562",
"5  c #435555",
"6  c #435659",
"7  c #435D5B",
"8  c #455A59",
"9  c #45615F",
"0  c #446363",
"q  c #4A6565",
"w  c #446966",
"e  c #496865",
"r  c #4C6C6B",
"t  c #526869",
"y  c #4D716E",
"u  c #50706E",
"i  c #4D7673",
"p  c #4C7878",
"a  c #527472",
"s  c #5A7676",
"d  c #5A7876",
"f  c #577778",
"g  c #557D7A",
"h  c #5A7C7A",
"j  c #527974",
"k  c #6D7D7E",
"l  c #71787C",
"z  c #5C827E",
"x  c #5C8683",
"c  c #5D8986",
"v  c #5E8C89",
"b  c #638684",
"n  c #698584",
"m  c #628A86",
"M  c #698887",
"N  c #648C89",
"B  c #6B8C8C",
"V  c #7A8F8E",
"C  c #63918E",
"Z  c #71908F",
"A  c #649491",
"S  c #6C9392",
"D  c #679897",
"F  c #699996",
"G  c #6D9E9B",
"H  c #6E9798",
"J  c #749492",
"K  c #7C9395",
"L  c #749A96",
"P  c #739E9B",
"I  c #7D9C9C",
"U  c #789898",
"Y  c #6CA19C",
"T  c #73A19D",
"R  c #7CA19E",
"E  c #7DA4A2",
"W  c #76ACA7",
"Q  c #7CAAA6",
"!  c #7CACA9",
"~  c #75AAA6",
"^  c #7CB0AA",
"/  c #7EBCB5",
"(  c #7CBEB9",
")  c #7CC0BA",
"_  c #819294",
"`  c #8C979A",
"'  c #81999A",
"]  c #8B9D9D",
"[  c #8A9397",
"{  c #959CA0",
"}  c #82A4A3",
"|  c #89A5A6",
" . c #82AAA6",
".. c #8CA8A7",
"X. c #84ACA9",
"o. c #8BAEAD",
"O. c #91A2A3",
"+. c #93ACAC",
"@. c #9CA6A7",
"#. c #8CB2AE",
"$. c #87B0AE",
"%. c #90AFB0",
"&. c #8BB4B2",
"*. c #83BBB5",
"=. c #8CBAB6",
"-. c #84BDB9",
";. c #8ABCB9",
":. c #84B4B3",
">. c #93B3B3",
",. c #99B4B5",
"<. c #95B9B5",
"1. c #9BB7B9",
"2. c #94BBBB",
"3. c #9CBCBC",
"4. c #9DB8B7",
"5. c #A2ACAF",
"6. c #A9AEB1",
"7. c #A4B4B5",
"8. c #A2BBBC",
"9. c #ADBBBC",
"0. c #ADB7BA",
"q. c #B1BDBF",
"w. c #83C1BC",
"e. c #8AC1BC",
"r. c #93C2BD",
"t. c #9CC1BE",
"y. c #A2C1BE",
"u. c #9DBFC0",
"i. c #A2BDC0",
"p. c #8DC6C4",
"a. c #8EC9C5",
"s. c #92C5C2",
"d. c #9CC4C2",
"f. c #9BC8C5",
"g. c #96CCCB",
"h. c #9BCFCD",
"j. c #95C9C2",
"k. c #9AD1CD",
"l. c #97D1CD",
"z. c #9DD4D1",
"x. c #A4C4C2",
"c. c #ABC4C4",
"v. c #A4CAC6",
"b. c #ABC5C8",
"n. c #ACCBCA",
"m. c #A7C9C9",
"M. c #B5C5C6",
"N. c #B2CCCC",
"B. c #B8CDCE",
"V. c #A5D1CF",
"C. c #AAD0CE",
"Z. c #B2D0CF",
"A. c #B2CFD1",
"S. c #BCCDD1",
"D. c #A3D5D3",
"F. c #ACD4D2",
"G. c #A4D9D6",
"H. c #A9D9D6",
"J. c #A5DDD9",
"K. c #AADDDB",
"L. c #B5D2D1",
"P. c #BBD3D4",
"I. c #B5DAD7",
"U. c #BFD4D8",
"Y. c #BEDCD9",
"T. c #BADCDA",
"R. c #ADE0DE",
"E. c #BCE0DD",
"W. c #C1D4D6",
"Q. c #C3D4D8",
"!. c #C4DCDC",
"~. c #CCDDDE",
"^. c #CAD6D8",
"/. c #D2DEDF",
"(. c #C8E1DE",
"). c #C4E3E1",
"_. c #CBE5E4",
"`. c #CDE9E6",
"'. c #CFE7E8",
"]. c #C8EBE7",
"[. c #D1E5E4",
"{. c #D3E9E7",
"}. c #D4ECEB",
"|. c #DAEEEC",
" X c #DAE7E9",
".X c #DCF3F3",
"XX c #E1EEEC",
"oX c #E2F3F3",
"OX c #ECF3F5",
"+X c #E8F8F7",
"@X c #E4F7F8",
"#X c #E4FBFA",
"$X c #ECFDFC",
"%X c #F6FDFE",
"&X c #FAFDFE",
"*X c None",
/* pixels */
"*X*X*X*X*X*X*X*X*X*X*X*X*X*X*X*X*X*X*X*X*X*X*X*X*X*X*X*X*X*X*X*X*X*X*X*X*X*X*X*X*X*X*X*X*X*X*X*X*X*X",
"*X*X*X*X*X*X*X*X*X*X*X*X*X*X*X*X*X*X*X*X*X*X*X*X*X*X*X*X*X*X*X*X*X*X*X*X*X*X*X*X*X*X*X*X*X*X*X*X*X*X",
"*X*X*X*X*X*X*X*X*X*X*X*X*X*X*X*X*X*X*X*X*X*X*X*X*X*X*X*X*X*X*X*X*X*X*X*X*X*X*X*X*X*X*X*X*X*X*X*X*X*X",
"*X*X*X*X*X*X*X*X*X*X*X*X*X*X*X*X*X*X*X*X*X*X*X*X*X*X*X*X*X*X*X*X*X*X*X*X*X*X*X*X*X*X*X*X*X*X*X*X*X*X",
"*X*X*X*X*X*X*X*X*X*X*X*X*X*X*X*X*X*X*X*X*X*X*X*X*X*X*X*X*X*X*X*X*X*X*X*X*X*X*X*X*X*X*X*X*X*X*X*X*X*X",
"*X*X*X*X*X*X*X*X*X*X*X*X*X*X*X*X*X*X*X*X*X*X*X*X*X*X*X*X*X*X*X*X*X*X*X*X*X*X*X*X*X*X*X*X*X*X*X*X*X*X",
"*X*X*X*X*X*X*X*X*X*X*X*X*X*X*X*X*X*X*X*X*X*X*X*X*X*X*X*X*X*X*X*X*X*X*X*X*X*X*X*X*X*X*X*X*X*X*X*X*X*X",
"*X*X*X*X*X*X*X*X*X*X*X*X*X*X*X*X*X*X*X*X*X*X*X*X*X*X*X*X*XU J S S U ' *X*X*X*X*X*X*X*X*X*X*X*X*X*X*X",
"*X*X*X*X*X*X*X*X*X*X*X*X*X*X*X*X*X*X*X*X*X*X*X*X*X*X*XS E 2.&.~ ! &.8.*X*X*X*X*X*X*X*X*X*X*X*X*X*X*X",
"*X*X*X*X*X*X*X*X*X*X*X*X*X*X*X*X*X*X*X*X*X*X*X6.9.,.} ~ :.f.;.~  .3.B.5.*X*X*X*X*X*X*X*X*X*X*X*X*X*X",
"*X*X*X*X*X*X*X*X*X*X*X*X*X*X*X*X*X*X*X*X*XO.+.y.{.!.f.r.;.*.! E E <.W.y.6.*X*X*X*X*X*X*X*X*X*X*X*X*X",
"*X*X*X*X*X*X*X*X*X*X*X*X*X*X*X*X*X*X*XR +.y.I.'.#X.X).f.=.~ :.u.8.M.B.M.0.*X*X*X*X*X*X*X*X*X*X*X*X*X",
"*X*X*X*X*X*X*X*X*X*X*X*X*X*X*X*X*X..o.#.f.T.].|.}.@X.Xn.<.o.x.U.Y.P.L.7.O.*X*X*X*X*X*X*X*X*X*X*X*X*X",
"*X*X*X*X*X*X*X*X*X*X*X*X*X*X*X*X*Xf.V.V.H.H.V.v.n.{.#X^.n.n.A.W.P.P.N.I n V k *X*X*X*X*X*X*X*X*X*X*X",
"*X*X*X*X*X*X*X*X*X*X*X*X*X*X*X+.2.H.R.J.D.k.e.*.;.E.@X~.N.x.N.U.P.N.<.m y a q 5 *X*X*X*X*X*X*X*X*X*X",
"*X*X*X*X*X*X*X*X*X*X*X*X*X*X| 2.H.K.D.l.p.w.) ) e.E..XW.y. .t.N.L.y.R g 4 ; $ O *X*X*X*X*X*X*X*X*X*X",
"*X*X*X*X*X*X*X*X*X*X*X*X*X*Xd.z.K.G.l.p.w./ / *.=.Z.!.4.Q T  .<.A.t.L i > + + X *X*X*X*X*X*X*X*X*X*X",
"*X*X*X*X*X*X*X*X*X*X*X*X*X8.F.R.J.l.a.) ) ) w.r.v.Z.N...T Y G  .n.x.E i > ; % # *X*X*X*X*X*X*X*X*X*X",
"*X*X*X*X*X*X*X*X*X*X*X*X^._.E.H.g.p.p.( ) ) e.C.].(.C...P G P  .n.n.%.h 9 9 5 @ *X*X*X*X*X*X*X*X*X*X",
"*X*X*X*X*X*X*X*X*X*X*XW.oX$X}.I.s.*./ ( w.e.C.(.`.(.L.8.X.E X.3.M.b.8.Z j r 8 # *X*X*X*X*X*X*X*X*X*X",
"*X*X*X*X*X*X*X*X*X` y.XXoX#X#X).v.d.f.t.f.v.`.{.!.W.Q.L.x.o.u.A.b.i.1.} B r : & *X*X*X*X*X*X*X*X*X*X",
"*X*X*X*X*X*X*X*X*X_ 8.).E.`.#X@X{.{.{.{.`.`.[.~.W.U.U.P.L.n.A.L.i.,.| ' B q - X *X*X*X*X*X*X*X*X*X*X",
"*X*X*X*X*X*X*X*X*X| 2.H.V.F.(..X%X%X%X%X+X|.(.L.y.x.x.x.i.x.u.3.i.,.I B d 7 $ . *X*X*X*X*X*X*X*X*X*X",
"*X*X*X*X*X*X*X*X| f.H.G.k.f.t.E.oX%X&X&XXX(.L.x...E  .E E E U P >.%.U f q : $ . *X*X*X*X*X*X*X*X*X*X",
"*X*X*X*X*X*X*XK X.F.J.z.a.-.*.r.I.XX&X&X XL.3.%.T G P G F C c m P U M t 9 , $ . *X*X*X*X*X*X*X*X*X*X",
"*X*X*X*X*X*X*X} =.D.D.g.e.-./ *.r.{.&XOX(.v. .E P Y G G S c z x x h d q 1 , $ # *X*X*X*X*X*X*X*X*X*X",
"*X*X*X*X*X*X*X2.k.D.D.g.p.-./ / r.{.OX/.c.X.T T Y Y G A v z c z j f s 9 , , $ # *X*X*X*X*X*X*X*X*X*X",
"*X*X*X*X*X*XI s.J.z.g.a.e.-./ / #.!.[.P.<.T Y Y G D A v c c v z w q q 1 ; ; $ & *X*X*X*X*X*X*X*X*X*X",
"*X*X*X*X*X*XJ 2.G.l.a.-.*.*.*.^  .c.Y.B.<.T G Y Y A c c c c z z 1 > > ; ; : % *X*X*X*X*X*X*X*X*X*X*X",
"*X*X*X*X*X*XJ ;.k.r.*.W W Q Q #.y.N.W.L.<.P T Y G C x x c z z y ; $ ; 1 1 = *X*X*X*X*X*X*X*X*X*X*X*X",
"*X*X*X*X*X*X_ 8.V.=.W Y Y T ..y.L.Y.Y.B.u.X.~ Y D v c x c z y > + + ; 9 7 $ *X*X*X*X*X*X*X*X*X*X*X*X",
"*X*X*X*X*X*X[ S.(.&.T Y Y  .y.B.W.W.W.P.A.x. .D v c c x b z 9 + o + ; 3 8 & *X*X*X*X*X*X*X*X*X*X*X*X",
"*X*X*X*X*X*X{ ^.oXi.>.2.2.i.L.Q.Q.W.U.U.L.c.} B x x c c g w = O + = > > : *X*X*X*X*X*X*X*X*X*X*X*X*X",
"*X*X*X*X*X*X*X^. X^.U.S.S.A.P.U.W.N.Z.N.b.1.I B c c c f w @ + + = : 9 ; @ *X*X*X*X*X*X*X*X*X*X*X*X*X",
"*X*X*X*X*X*X*X@.9.S.Q.W.W.W.U.P.L.2.#.&.1.3.>.E S N z 0 ; o + $ = 1 9 5 *X*X*X*X*X*X*X*X*X*X*X*X*X*X",
"*X*X*X*X*X*X*X*XO.M.W.W.U.L.m.x.d. .L S R %.3.2.} N u = o o @ ; > 1 8 *X*X*X*X*X*X*X*X*X*X*X*X*X*X*X",
"*X*X*X*X*X*X*X*X] c.P.S.L.m.o.E ~ P D N B J %.2.%.b 3 ; * * = : 9 8 *X*X*X*X*X*X*X*X*X*X*X*X*X*X*X*X",
"*X*X*X*X*X*X*X*X*X{ 1.b.u.&.~ D C C v v b M I U M r , ; , ; 1 : : *X*X*X*X*X*X*X*X*X*X*X*X*X*X*X*X*X",
"*X*X*X*X*X*X*X*X*Xl ` 3.o.T F C v c c g f s s u < , ; = ; : : : *X*X*X*X*X*X*X*X*X*X*X*X*X*X*X*X*X*X",
"*X*X*X*X*X*X*X*X*X*X` 1.X.G C v c c g w 7 1 : ; ; ; ; = , 7 6 *X*X*X*X*X*X*X*X*X*X*X*X*X*X*X*X*X*X*X",
"*X*X*X*X*X*X*X*X*X*X*X' Z z p p i y w ; $ @ @ = , 1 3 1 1 6 *X*X*X*X*X*X*X*X*X*X*X*X*X*X*X*X*X*X*X*X",
"*X*X*X*X*X*X*X*X*X*X*Xt q 3 < < < ; * $ @ @ = : 0 q e 0 6 *X*X*X*X*X*X*X*X*X*X*X*X*X*X*X*X*X*X*X*X*X",
"*X*X*X*X*X*X*X*X*X*X*X*X6 6 , $ @ @ @ $ = : 1 0 q 8 5 8 *X*X*X*X*X*X*X*X*X*X*X*X*X*X*X*X*X*X*X*X*X*X",
"*X*X*X*X*X*X*X*X*X*X*X*X*X6 - & O O O & $ : 7 7 8 5 *X*X*X*X*X*X*X*X*X*X*X*X*X*X*X*X*X*X*X*X*X*X*X*X",
"*X*X*X*X*X*X*X*X*X*X*X*X*X*X*X*X  X # # # & $ % *X*X*X*X*X*X*X*X*X*X*X*X*X*X*X*X*X*X*X*X*X*X*X*X*X*X",
"*X*X*X*X*X*X*X*X*X*X*X*X*X*X*X*X*X*X# # # # # *X*X*X*X*X*X*X*X*X*X*X*X*X*X*X*X*X*X*X*X*X*X*X*X*X*X*X",
"*X*X*X*X*X*X*X*X*X*X*X*X*X*X*X*X*X*X*X*X*X*X*X*X*X*X*X*X*X*X*X*X*X*X*X*X*X*X*X*X*X*X*X*X*X*X*X*X*X*X",
"*X*X*X*X*X*X*X*X*X*X*X*X*X*X*X*X*X*X*X*X*X*X*X*X*X*X*X*X*X*X*X*X*X*X*X*X*X*X*X*X*X*X*X*X*X*X*X*X*X*X",
"*X*X*X*X*X*X*X*X*X*X*X*X*X*X*X*X*X*X*X*X*X*X*X*X*X*X*X*X*X*X*X*X*X*X*X*X*X*X*X*X*X*X*X*X*X*X*X*X*X*X",
"*X*X*X*X*X*X*X*X*X*X*X*X*X*X*X*X*X*X*X*X*X*X*X*X*X*X*X*X*X*X*X*X*X*X*X*X*X*X*X*X*X*X*X*X*X*X*X*X*X*X"
};
