/* XPM */
static char *b32570c0546a4d97bb2545da28d1adcczews4a3Xt3DoAibp[] = {
/* columns rows colors chars-per-pixel */
"50 50 152 2 ",
"   c #677247",
".  c #677246",
"X  c #687347",
"o  c #667146",
"O  c #657145",
"+  c #667247",
"@  c #667147",
"#  c #687249",
"$  c #677248",
"%  c #677347",
"&  c #667246",
"*  c #687248",
"=  c #677148",
"-  c #677147",
";  c #647044",
":  c #657044",
">  c #687346",
",  c #657043",
"<  c #6A764A",
"1  c #68744A",
"2  c #667149",
"3  c #657049",
"4  c #68724B",
"5  c #687448",
"6  c #667145",
"7  c #666F47",
"8  c #636C45",
"9  c #656E47",
"0  c #656F47",
"q  c #666F48",
"w  c #697448",
"e  c #667248",
"r  c #657047",
"t  c #69744A",
"y  c #687349",
"u  c #626D44",
"i  c #626D46",
"p  c #66714A",
"a  c #657048",
"s  c #636D44",
"d  c #5F6841",
"f  c #5C663F",
"g  c #5C653E",
"h  c #5D663F",
"j  c #606942",
"k  c #616A43",
"l  c #636D43",
"z  c #657147",
"x  c #67724A",
"c  c #5B653F",
"v  c #4F5A34",
"b  c #5A643E",
"n  c #68724D",
"m  c #5B6540",
"M  c #4C5632",
"N  c #4F5936",
"B  c #616C46",
"V  c #606A40",
"C  c #5E6740",
"Z  c #5F6A40",
"A  c #636F43",
"S  c #5F6A41",
"D  c #545F38",
"F  c #5E6942",
"G  c #5A653E",
"H  c #535D39",
"J  c #4B5534",
"K  c #56603F",
"L  c #596342",
"P  c #4D5735",
"I  c #5F6946",
"U  c #68734B",
"Y  c #667245",
"T  c #626E42",
"R  c #5D673E",
"E  c #5D673F",
"W  c #5E683F",
"Q  c #616D41",
"!  c #657046",
"~  c #606B44",
"^  c #606B47",
"/  c #545E3D",
"(  c #4D5734",
")  c #4D5834",
"_  c #4F5A36",
"`  c #5E6845",
"'  c #656F4C",
"]  c #4F5937",
"[  c #485230",
"{  c #596341",
"}  c #636D4B",
"|  c #626C48",
" . c #69744B",
".. c #657144",
"X. c #657045",
"o. c #5C663E",
"O. c #5A653C",
"+. c #5B653D",
"@. c #5B663D",
"#. c #606B41",
"$. c #5E6940",
"%. c #4C5733",
"&. c #4E5838",
"*. c #495334",
"=. c #5A6440",
"-. c #5F6A44",
";. c #5F6A43",
":. c #68734C",
">. c #67724B",
",. c #616C45",
"<. c #5E6943",
"1. c #6A744E",
"2. c #606B45",
"3. c #525C38",
"4. c #636E48",
"5. c #626B42",
"6. c #5D653F",
"7. c #606B42",
"8. c #646F45",
"9. c #606B43",
"0. c #4B5533",
"q. c #475131",
"w. c #515B3B",
"e. c #5C6745",
"r. c #657146",
"t. c #697449",
"y. c #667148",
"u. c #68734A",
"i. c #606A42",
"p. c #677249",
"a. c #687348",
"s. c #667046",
"d. c #667047",
"f. c #505B38",
"g. c #525C3A",
"h. c #677049",
"j. c #677345",
"k. c #59633D",
"l. c #515B37",
"z. c #616B46",
"x. c #636E45",
"c. c #677346",
"v. c #677348",
"b. c #555F3E",
"n. c #647045",
"m. c #4E5833",
"M. c #626D45",
"N. c #535E34",
"B. c #5F6B40",
"V. c #626E41",
"C. c #636F42",
"Z. c white",
/* pixels */
"                                                                                                    ",
"                                                                                                    ",
"                                                                                                    ",
"                                                                                                    ",
"                                                                                                    ",
"                                                                                                    ",
"                                                                                                    ",
"                                                                                                    ",
"                                                                                                    ",
"                                                                                                    ",
"                                                                                                    ",
"                                                                                                    ",
"                                                                                                    ",
"                                                                                                    ",
"                                                                                                    ",
"                                                                                                    ",
"                                                                                                    ",
"                                                                                                    ",
"                                                                                                    ",
"                                                                                                    ",
"  . X     o o . . O . X .   + @ @ # $                           %   & .   * = - = = = $ $         X ",
". . X %   . . ;   : > > , < 1 2 3 4 2                           5 & O 6 - 7 8 8 8 9 9 0 q @   & & w ",
"X % o     @ e r t e t y t u i p a 2 r                           5 & 6 6 s d f g h j j k k l o & & 5 ",
"  O O y @ z t x c v b n m M N B 2 @ o                           %   o ; V h g g g h h C C Z A .   % ",
"  O o t S D F G v H J K J L P I U o Y                               o T R g g g g g g h E W Q 6     ",
"  ! ~ ^ / ( ) _ ` ' ] [ { } P |  .& ..                              . X.V g g h o.O.O.+.@.#.X.&     ",
"$.%.P &.*.=.-.;.:.>.,.<.1.2.3.4.x 5 %                                   5.g h 6.h S S 7.7.8.        ",
"9.0.q.w.e.a r.@ t.8.y.u. .u i.p.p.a.%                                   s.9 9 9 9 d.@ e $           ",
"@ 2 2.f.g.~ + @ t y.@ @ y.y a.a.a.  o                                   = h.h.h.h.$ $ y y a.        ",
". j.  a k.l.z.p x.@ + + @ o c.. a.  &                                   - = = = = $ $ v.a.$         ",
"        ! g.b.n n.Y   . o 6 .                                                                       ",
"        $ -.m.M.r.&   . o o                                                                         ",
"        a.y.N.B.X 6                                                                                 ",
"          6 V.C.w %                                                                                 ",
"          . X & X                                                                                   ",
"                                                                                                    ",
"                                                                                                    ",
"                                                                                                    ",
"                                                                                                    ",
"                                                                                                    ",
"                                                                                                    ",
"                                                                                                    ",
"                                                                                                    ",
"                                                                                                    ",
"                                                                                                    ",
"                                                                                                    ",
"                                                                                                    ",
"                                                                                                    ",
"                                                                                                    ",
"                                                                                                    "
};
