/* XPM */
static char *_c0c485dbd024c11bffdf66049a459a371ulEZK5Rwt44EXq[] = {
/* columns rows colors chars-per-pixel */
"50 50 189 2 ",
"   c None",
".  c #150D06",
"X  c #1A0F07",
"o  c #160F0A",
"O  c #1B0F09",
"+  c #0F150E",
"@  c #161206",
"#  c #1C1206",
"$  c #15130C",
"%  c #1C130B",
"&  c #14190E",
"*  c #1C1A0E",
"=  c #0F1717",
"-  c #071C17",
";  c #0E1B13",
":  c #0D1719",
">  c #0C1C1A",
",  c #061D1D",
"<  c #141512",
"1  c #1C1611",
"2  c #141A14",
"3  c #1B1A14",
"4  c #141B1A",
"5  c #1B1D1A",
"6  c #210E06",
"7  c #201207",
"8  c #22140B",
"9  c #29150B",
"0  c #231A0E",
"q  c #2A1C0E",
"w  c #231712",
"e  c #281710",
"r  c #241B13",
"t  c #2B1C13",
"y  c #241F18",
"u  c #321D15",
"i  c #381F15",
"p  c #351F18",
"a  c #391F19",
"s  c #06221C",
"d  c #0C221C",
"f  c #172117",
"g  c #1A2416",
"h  c #14241D",
"j  c #1B241C",
"k  c #17281C",
"l  c #25220F",
"z  c #252116",
"x  c #2B2314",
"c  c #25221A",
"v  c #2B241B",
"b  c #2D2A1E",
"n  c #342315",
"m  c #3B2515",
"M  c #372A17",
"N  c #35241A",
"B  c #3A251B",
"V  c #33291E",
"C  c #3D291D",
"Z  c #211E20",
"A  c #0D2222",
"S  c #062820",
"D  c #0E2729",
"F  c #0B2B2B",
"G  c #082827",
"H  c #142622",
"J  c #192623",
"K  c #142A24",
"L  c #1B2924",
"P  c #122C2D",
"I  c #1D2C28",
"U  c #08302E",
"Y  c #17302E",
"T  c #1C312B",
"R  c #0A2D31",
"E  c #162A30",
"W  c #103030",
"Q  c #1A3834",
"!  c #2C2521",
"~  c #2C2A22",
"^  c #212C2B",
"/  c #232926",
"(  c #372723",
")  c #322B22",
"_  c #3F2C23",
"`  c #21342F",
"'  c #213430",
"]  c #412B17",
"[  c #422A1E",
"{  c #4A2B1D",
"}  c #44271A",
"|  c #44311F",
" . c #4B311F",
".. c #50321D",
"X. c #442D22",
"o. c #4C2F24",
"O. c #532F24",
"+. c #453024",
"@. c #4B3225",
"#. c #4C3A23",
"$. c #46342B",
"%. c #4D352A",
"&. c #4E382B",
"*. c #523525",
"=. c #5C3625",
"-. c #553925",
";. c #5A3A25",
":. c #543529",
">. c #5B372C",
",. c #563A2C",
"<. c #5A3A2C",
"1. c #4C3930",
"2. c #553C31",
"3. c #5A3C31",
"4. c #623F26",
"5. c #574128",
"6. c #5C412D",
"7. c #584031",
"8. c #64442C",
"9. c #6A442C",
"0. c #67492F",
"q. c #6B4A2F",
"w. c #644226",
"e. c #6A4A31",
"r. c #684D36",
"t. c #6C533C",
"y. c #755237",
"u. c #745239",
"i. c #79513E",
"p. c #70583D",
"a. c #7A593F",
"s. c #7F5B40",
"d. c #825439",
"f. c #825B3D",
"g. c #8F683F",
"h. c #8B603D",
"j. c #93663E",
"k. c #946A3E",
"l. c #926636",
"z. c #835D47",
"x. c #846342",
"c. c #8E6645",
"v. c #8C6A46",
"b. c #8B654B",
"n. c #8F6D4E",
"m. c #866449",
"M. c #926544",
"N. c #946A44",
"B. c #9A6A43",
"V. c #936B4A",
"C. c #9A6E49",
"Z. c #9B744E",
"A. c #997348",
"S. c #916F51",
"D. c #9C7A53",
"F. c #9A7659",
"G. c #A17345",
"H. c #A4734A",
"J. c #AD7D4C",
"K. c #A67C46",
"L. c #AD7E50",
"P. c #A67E5C",
"I. c #B27E57",
"U. c #A38056",
"Y. c #AC8253",
"T. c #A3815A",
"R. c #B98653",
"E. c #B48A64",
"W. c #BC8D66",
"Q. c #BF9362",
"!. c #BD9171",
"~. c #C7925F",
"^. c #C69862",
"/. c #CD9D6E",
"(. c #C49567",
"). c #D29C6D",
"_. c #CC9E72",
"`. c #D0A069",
"'. c #CEA27A",
"]. c #D3A175",
"[. c #DAA775",
"{. c #DDAC74",
"}. c #D3A77C",
"|. c #D4AD7A",
" X c #DCAA7B",
".X c #E2A975",
"XX c #D0A780",
"oX c #DEAD80",
"OX c #E3AF82",
/* pixels */
"                                                                                                    ",
"                                                                                                    ",
"                                                  W                                                 ",
"                                                H < 2                                               ",
"                                                * t.#.2                           A                 ",
"                                              + 5.'.F.0                         4 r 3               ",
"                & < H                       2 M E.OX].5.<                     4 | F.@.2             ",
"              2 6.p.0 h                   K 0 n.oX[. XP.q h                 4 n T.OXV.*             ",
"            A N E.|.x.q 4                 & r.XX_.J.^.}.e.&               J q C. X.X/.#.;           ",
"            2 x. X{.[.V.q 3             4 n P.].L.l.K.[.W.m 4           J 0 s. X).~.{.D.t           ",
"          ; #._.].R.).oXA.n 2           3 e.C.G.k.k.k.~. Xr.<           2 6.!.(.H.B.`.}.8.&         ",
"        h q U. XI.j.H./.|.S.t h       4 V b.B.j.j.M.M.Y.'.6.2           0 s.C.N.N.j.J.W.f.q         ",
"        & y. X(.B.c.j.G.Y.Z.-.3       3 u i.M.N.V.d.d.Z.D.] 5         h n x.N.j.N.N.B.C.x.n j       ",
"        x T.Q.A.g.v.v.N.N.v. .3         q =.9.y.u.4.9.z.t.[ 1         d M b.M.h.c.M.N.c.y.q J       ",
"        l x.N.N.v.y.a.m.s.e.m 2         0 *.=.=.-...*.<.;.:.t 4       h x 8.9.w.9.q.q.0.;.0         ",
"        * e.c.b.u.;.<.6.<.<.n 4         0 *.>.<.*.} @.-.-.-.t 5       H t *.;.;.-.-.;.;.+.r         ",
"        3  .9.9.;.;.*.@.-.<.p 4         3 &.<.<.,.:.:.>.<.-.q f       K r -.;.-.<.<.-.,.X.3         ",
"        3 [ ;.=.;.;.*.-.<.:.t 4         3 %.<.,.,.3.3.>.<.-.r h       H r #.-.<.:.*.;.,.X.3         ",
"        2 X.<.<.<.<.<.<.<.{ 9 /         3 @.<.,.,.<.,.<.-.:.t h       k 0 #.-.<.*.{ *.3.X.2         ",
"        2 [ <.<.<.<.<.<.<.{ 9 L         3 +.<.<.<.<.-.@.-.-.r k       J r *.;.,.:.*.-.3._ 2         ",
"        < C 3.<.<.<.<.<.-.:.u 5         3 +.<.<.<.<.<.*.<.:.r J       4 8 *.<.,.<.<.<.3.C <         ",
"        < N ,.:.,.<.<.<.<.:.u 5       I & n @.,.3.<.<.,.<.:.r J     - $ @ N &.,.,.-.-.2.B ;         ",
"      > % # q p C %.&.:.&.%.t 5       > & # 7 t C o.:.,.2.%.r I   G 2 ~ z # 8 N $.&.,.2.B 2         ",
"      - ~ v 0 % # % 8 8 8 8 X < F     - j b x % # 7 8 r t t # 4 Y   d 2 ~ ) r 8 8 q N _ t < K       ",
"      > 3 x b b v v v c v v z z > R   K & * v ) V v c y r r r 5 : P   > $ w V ) v r # # X @ ; S     ",
"        2 . # % 0 z v v v ! c z < P   L & % 8 O % w c v v V ( ~ 4 G     1 9 % 1 v v $ $ z ) 3 s     ",
"        j e [ N t t w # . . @ % =   k < o v $.X.n q 8 8 8 8 O < A     ^ w B r . . # z ~ b % + s     ",
"        H t 2.2.2.$.N % # r ) v > Q 4 z c # n ,.<.:.&.&.%.X.8 L     F 2 o # $ 3 v ) v % . $ d       ",
"        J w X.B t 8 % t V v * & K   H < ~ v # 9 | ,.7.3.3.&.w ^   U - z v ~ ~ ~ z 8 6 9 % k         ",
"      E 4 $ # # w v ) v w O @ J       A < ! ) * # x $.3.3.%.%     F > c c w 1 # % u X.$.0 d         ",
"      > Z ~ b ) v c % # r ( r I         > $ r b c # % p $.$.w       D 2 o e N _ $.,.3.C *           ",
"      , 5 y 0 8 7 8 p X.1.$.r T           $ # # v ) v 1 % q 1 I         1 X.<.3.2.<.:.e g           ",
"        > @ q B X.:.,.,.,.@.r T           * C n % % v ~ v 3 # 2         3 X.<.<.<.<.@.%             ",
"          3 +.,.<.<.<.,.,.@.r T           w @.3.$.p % $ c ) ~ 2 s       1 { <.<.<.<.@.0 H           ",
"          1 X.3.<.<.<.<.,.@.0 `           w O.<.3.2.@.N 8 # * ; s       1 { <.-.<.<.<.N 4           ",
"          2 B <.<.>.<.<.,.+.w '           w :.<.<.<.<.,.&.B @ d         3 [ <.-.-.<.<.+.f           ",
"          g q :.<.<.<.,.,.+.w             w @.<.<.<.<.<.<.+.&           3 [ -.-.,.<.<.C 2           ",
"          k 0 &.<.<.<.<.,.+.w             1 o.<.<.<.-.*.*.X.3           * [ <.<.,.<.<.C 2           ",
"          ; x :.<.<.<.<.<.X.1             1 o.<.<.<.@.} { [ 3           3 [ <.<.<.<.3.B <           ",
"          3 N ,.<.>.<.,.3.X.2             1 X.,.,.<.*.@.*.[ 3           3 [ <.<.<.:.:.B 2           ",
"          3 N <.<.<.<.:.<.X.2             3 X.,.-.*.@.-.<.X.2           3 C <.-.:.*.:.N 2           ",
"          2 n ,.<.<.;.{ :.[ 2             3 X.,.-.<.-.<.<.[ 2           3 C ,.*.{ *.,.N 4           ",
"          4 t ,.<.<.*.o.<.[ 2             3 [ ,.-.<.<.<.<.C 2           3 B ,.*.O.*.,.N h           ",
"          4 t ,.<.<.-.<.<.[ 2             3 C ,.;.<.<.<.<.C 2           5 B ,.<.<.<.-.v h           ",
"          h r :.<.<.-.<.3.[ 3             3 C ,.-.;.<.<.<.C 4           3 N ,.<.<.<.:.t k           ",
"          H r :.<.<.<.<.<.C 3             3 N ;.;.<.<.<.<.C 2           2 N ,.<.<.<.:.r h           ",
"            3 p N N i i a e 2             5 r n n N a n n t 5           4 w N n n i u 1             ",
"            H 2 2 2 < < < 4                 > 2 2 3 2 2 2 4               4 2 2 2 2 2 >             ",
"                                                                                                    ",
"                                                                                                    "
};
